<svg xmlns="http://www.w3.org/2000/svg">
<defs>
<font id="ALSFuchsia" horiz-adv-x="729" >
  <font-face 
    font-family="ALS Fuchsia"
    font-weight="400"
    font-stretch="normal"
    units-per-em="1000"
    panose-1="2 0 5 5 9 0 0 2 0 3"
    ascent="750"
    descent="-250"
    x-height="463"
    cap-height="730"
    bbox="-665 -488 1955 1160"
    underline-thickness="50"
    underline-position="-50"
    unicode-range="U+0020-FB03"
  />
<missing-glyph horiz-adv-x="1779" 
d="M897 423q0 -41 24 -67.5t72 -27.5l-4 -16q-30 -10 -54 -10q-53 0 -89.5 32.5t-36.5 88.5q0 41 16.5 71t45 45.5t58.5 22t64 6.5q47 0 115 -15q51 94 159 94q36 0 62 -16t26 -44q0 -34 -37.5 -52.5t-82.5 -18.5q-27 0 -43 2q-8 -35 -20.5 -137t-34 -179.5t-63.5 -127.5
q66 -33 138.5 -90.5t124 -92.5t97.5 -35q25 0 44.5 17.5t19.5 51.5l20 4q1 -7 1 -20q0 -52 -34.5 -86t-96.5 -34q-26 0 -51 4.5t-45 9.5t-43 18t-37.5 21t-35.5 27.5t-31 28.5t-31 33.5t-28 33t-28.5 36t-26.5 33.5q-33 -23 -60.5 -32.5t-68.5 -9.5q-39 0 -63.5 14.5
t-24.5 40.5q0 31 30.5 47.5t79.5 16.5q47 0 87 -12q20 53 38 209.5t48 225.5q-35 6 -72 6q-128 0 -128 -117zM1599 427l4 14q77 0 77 82q0 40 -25.5 63t-75.5 23q-70 0 -103 -30.5t-33 -73.5q0 -37 30.5 -66t74.5 -51t87.5 -45.5t74 -61t30.5 -86.5q0 -85 -75.5 -143.5
t-187.5 -58.5q-86 1 -136 45.5t-50 109.5q0 63 40 100t96 37q39 0 68.5 -21.5t34.5 -63.5l-18 -8q-27 32 -65 32q-40 0 -61.5 -26t-21.5 -63q0 -53 35 -85.5t85 -32.5q69 0 111 40.5t42 96.5q0 43 -29.5 75t-71.5 54t-84.5 44t-72 56t-29.5 79q0 74 66.5 122.5t165.5 48.5
q75 0 126 -36t51 -92q0 -36 -29.5 -64t-77.5 -28q-34 0 -53 14zM782 317l-5 -22q-23 9 -51 9q-30 0 -65 -11q-14 -84 -14 -157q0 -99 62 -99q57 0 78 80l20 -5q-19 -120 -136 -120q-63 0 -97.5 38t-34.5 114q0 35 9 111q-123 -45 -193 -50q-19 -52 -34.5 -83.5t-39 -65
t-56 -49t-74.5 -15.5q-57 0 -89 30.5t-32 70.5t32 71t81 32l8 -12q-36 -27 -36 -74q0 -33 18 -55.5t48 -22.5q45 0 76 45t60 127q-79 1 -132 31t-53 85q0 46 41 68t98 22q62 0 112 -15q42 111 100.5 173.5t155.5 62.5q66 0 66 -60l-42 -253q30 8 62 8q23 0 57 -9zM326 230

<glyph glyph-name="fi" unicode="fi" horiz-adv-x="719" 
d="M239 411h143q103 0 191 49q6 3 11 3q8 0 14.5 -6.5t6.5 -15.5l-41 -290q-10 -88 43 -88q46 0 93 92l14 -6q-49 -150 -160 -150q-57 0 -83.5 43.5t-17.5 107.5l34 244q-29 -8 -102 -10h-150l-11 -87q1 -52 18 -113.5t37 -108.5t37 -105t17 -105q0 -180 -145 -180
q-148 8 -130 180l66 519h-74l8 27h69q24 174 96 254.5t233 80.5q29 0 59.5 -7.5t60 -23.5t48.5 -46.5t19 -70.5q0 -37 -21 -63t-52 -26q-23 0 -39 16.5t-16 38.5q0 16 11.5 26t25.5 14t25.5 12.5t11.5 21.5q0 38 -33 62t-87 24q-29 0 -54.5 -7t-44 -16.5t-35.5 -28
t-28 -33.5t-21.5 -41.5t-16.5 -43.5t-12.5 -48.5t-9.5 -47t-8 -47.5zM214 217l-45 -352q-19 -136 50 -136q38 0 61.5 42.5t23.5 97.5q0 59 -40.5 171.5t-49.5 176.5z" />
    <glyph glyph-name="ffi" unicode="ffi" horiz-adv-x="1123" 
d="M188 -315q-148 8 -130 180l66 519h-74l8 27h69q43 335 286 335q52 0 83 -27.5t31 -64.5q0 -57 -48 -104.5t-110.5 -73.5t-124.5 -34l-6 -31h293q24 174 96 254.5t233 80.5q29 0 59.5 -7.5t60 -23.5t48.5 -46.5t19 -70.5q0 -37 -21 -63t-52 -26q-23 0 -39 16.5t-16 38.5
q0 16 11.5 26t25.5 14t25.5 12.5t11.5 21.5q0 38 -33 62t-87 24q-29 0 -54.5 -7t-44 -16.5t-35.5 -28t-28 -33.5t-21.5 -41.5t-16.5 -43.5t-12.5 -48.5t-9.5 -47t-8 -47.5h143q103 0 191 49q6 3 11 3q8 0 14.5 -6.5t6.5 -15.5l-41 -290q-10 -88 43 -88q46 0 93 92l14 -6
q-49 -150 -160 -150q-57 0 -83.5 43.5t-17.5 107.5l34 244q-29 -8 -102 -10h-150l-11 -87q1 -52 18 -113.5t37 -108.5t37 -105t17 -105q0 -180 -145 -180q-148 8 -130 180l66 519h-293l-11 -87q1 -52 18 -113.5t37 -108.5t37 -105t17 -105q0 -180 -145 -180zM618 217
l-45 -352q-19 -136 50 -136q38 0 61.5 42.5t23.5 97.5q0 59 -40.5 171.5t-49.5 176.5zM214 217l-45 -352q-19 -136 50 -136q38 0 61.5 42.5t23.5 97.5q0 59 -40.5 171.5t-49.5 176.5zM424 724q-32 0 -60 -19.5t-46 -47t-33.5 -65.5t-23 -67t-13.5 -59q91 12 157.5 66
t66.5 134q0 58 -48 58z" />
    <glyph glyph-name="Th" unicode="Th" horiz-adv-x="1314" 
d="M275 -8q-29 0 -56.5 5.5t-54 18t-43 36.5t-16.5 57q0 52 40.5 84t92.5 32l8 -13q-44 -19 -44 -90q0 -44 17.5 -73t52.5 -29q40 0 62 29.5t29.5 81t10 106.5t10.5 120t26 108q32 77 118 102q-24 10 -91 44t-110.5 47.5t-93.5 13.5q-80 0 -128 -38t-48 -103
q0 -53 33.5 -81.5t77.5 -28.5q36 0 66.5 19.5t40.5 51.5l15 -6q0 -74 -33.5 -110t-81.5 -36q-72 0 -108.5 53.5t-36.5 126.5q0 105 71.5 170t188.5 65q72 0 142.5 -25.5t118.5 -57t108 -67t104 -48.5q4 29 7 48t13.5 47t25 44.5t40.5 29t61 12.5q39 0 63 -22t24 -59
q0 -52 -35 -86t-91 -49l-35 -272q29 13 53.5 41t41.5 57t37 57t50 45.5t69 17.5q47 0 76.5 -25.5t29.5 -79.5q0 -32 -20 -108.5t-20 -121.5q0 -70 47 -70q30 0 52 24t43 68l14 -6q-25 -71 -61 -110.5t-99 -39.5q-56 0 -81 34.5t-25 87.5q0 43 19 113.5t19 99.5q0 58 -42 58
q-22 0 -47.5 -22.5t-45.5 -51t-51 -56.5t-62 -36l-20 -162q-11 -64 -69 -64q-47 0 -47 32l61 481q-101 4 -193 38q-18 -13 -29.5 -33t-17.5 -53.5t-8.5 -56t-5.5 -71t-5 -68.5q-13 -142 -66 -209.5t-158 -67.5zM936 707q-28 0 -39.5 -37.5t-21.5 -112.5q-1 -5 -1 -7
q43 9 69.5 37.5t26.5 72.5q0 47 -34 47z" />
    <glyph glyph-name="Tl" unicode="Tl" horiz-adv-x="991" 
d="M711 142l47 371q-101 4 -193 38q-18 -13 -29.5 -33t-17.5 -53.5t-8.5 -56t-5.5 -71t-5 -68.5q-13 -142 -66 -209.5t-158 -67.5q-29 0 -56.5 5.5t-54 18t-43 36.5t-16.5 57q0 52 40.5 84t92.5 32l8 -13q-44 -19 -44 -90q0 -44 17.5 -73t52.5 -29q40 0 62 29.5t29.5 81
t10 106.5t10.5 120t26 108q32 77 118 102q-24 10 -91 44t-110.5 47.5t-93.5 13.5q-80 0 -128 -38t-48 -103q0 -53 33.5 -81.5t77.5 -28.5q36 0 66.5 19.5t40.5 51.5l15 -6q0 -74 -33.5 -110t-81.5 -36q-72 0 -108.5 53.5t-36.5 126.5q0 105 71.5 170t188.5 65
q72 0 142.5 -25.5t118.5 -57t108 -67t104 -48.5q4 29 7 48t13.5 47t25 44.5t40.5 29t61 12.5q39 0 63 -22t24 -59q0 -52 -35 -86t-91 -49l-47 -385q-9 -73 44 -73q49 0 97 96l13 -6q-24 -71 -62.5 -113t-101.5 -42q-57 0 -83.5 41.5t-19.5 101.5zM936 707q-28 0 -39.5 -37.5
t-21.5 -112.5q-1 -5 -1 -7q43 9 69.5 37.5t26.5 72.5q0 47 -34 47z" />
    <glyph glyph-name="Tk" unicode="Tk" horiz-adv-x="1221" 
d="M275 -8q-29 0 -56.5 5.5t-54 18t-43 36.5t-16.5 57q0 52 40.5 84t92.5 32l8 -13q-44 -19 -44 -90q0 -44 17.5 -73t52.5 -29q40 0 62 29.5t29.5 81t10 106.5t10.5 120t26 108q32 77 118 102q-24 10 -91 44t-110.5 47.5t-93.5 13.5q-80 0 -128 -38t-48 -103
q0 -53 33.5 -81.5t77.5 -28.5q36 0 66.5 19.5t40.5 51.5l15 -6q0 -74 -33.5 -110t-81.5 -36q-72 0 -108.5 53.5t-36.5 126.5q0 105 71.5 170t188.5 65q72 0 142.5 -25.5t118.5 -57t108 -67t104 -48.5q4 29 7 48t13.5 47t25 44.5t40.5 29t61 12.5q39 0 63 -22t24 -59
q0 -52 -35 -86t-91 -49l-34 -263q28 15 57 54t48.5 74t54 63t76.5 28q50 0 79.5 -29t29.5 -68q0 -60 -60.5 -98t-151.5 -48q7 -50 48.5 -101.5t94.5 -51.5q60 0 89 73l14 -6q-45 -150 -148 -150q-74 0 -129 62t-55 172q202 54 202 141q0 18 -10.5 31t-31.5 13
q-29 0 -56 -24.5t-46 -55.5t-48.5 -63t-59.5 -43l-21 -168q-11 -64 -69 -64q-47 0 -47 32l61 481q-101 4 -193 38q-18 -13 -29.5 -33t-17.5 -53.5t-8.5 -56t-5.5 -71t-5 -68.5q-13 -142 -66 -209.5t-158 -67.5zM936 707q-28 0 -39.5 -37.5t-21.5 -112.5q-1 -5 -1 -7
q43 9 69.5 37.5t26.5 72.5q0 47 -34 47z" />
    <glyph glyph-name="Tb" unicode="Tb" horiz-adv-x="1297" 
d="M275 -8q-29 0 -56.5 5.5t-54 18t-43 36.5t-16.5 57q0 52 40.5 84t92.5 32l8 -13q-44 -19 -44 -90q0 -44 17.5 -73t52.5 -29q40 0 62 29.5t29.5 81t10 106.5t10.5 120t26 108q32 77 118 102q-24 10 -91 44t-110.5 47.5t-93.5 13.5q-80 0 -128 -38t-48 -103
q0 -53 33.5 -81.5t77.5 -28.5q36 0 66.5 19.5t40.5 51.5l15 -6q0 -74 -33.5 -110t-81.5 -36q-72 0 -108.5 53.5t-36.5 126.5q0 105 71.5 170t188.5 65q72 0 142.5 -25.5t118.5 -57t108 -67t104 -48.5q4 29 7 48t13.5 47t25 44.5t40.5 29t61 12.5q39 0 63 -22t24 -59
q0 -52 -35 -86t-91 -49l-27 -210q37 76 89.5 121t113.5 45q48 0 82.5 -18t53 -48.5t26.5 -63.5t8 -71q0 -41 -11 -82q59 10 90 36l11 -12q-25 -37 -108 -47q-28 -80 -91 -130t-145 -50q-55 0 -84.5 25t-29.5 65q0 23 8 40.5t27 28.5t36 17.5t49.5 10t52 5t58.5 2.5
q9 44 9 94q0 67 -22.5 104t-58.5 37q-53 0 -97 -51t-76 -128l-22 -178q-11 -64 -69 -64q-47 0 -47 32l61 481q-101 4 -193 38q-18 -13 -29.5 -33t-17.5 -53.5t-8.5 -56t-5.5 -71t-5 -68.5q-13 -142 -66 -209.5t-158 -67.5zM880 88q0 -28 20.5 -41.5t48.5 -13.5q46 0 78 35
t48 95q-46 -2 -74.5 -4.5t-59.5 -10t-46 -22.5t-15 -38zM936 707q-28 0 -39.5 -37.5t-21.5 -112.5q-1 -5 -1 -7q43 9 69.5 37.5t26.5 72.5q0 47 -34 47z" />
    <glyph glyph-name="Tf" unicode="Tf" horiz-adv-x="991" 
d="M275 -8q-29 0 -56.5 5.5t-54 18t-43 36.5t-16.5 57q0 52 40.5 84t92.5 32l8 -13q-44 -19 -44 -90q0 -44 17.5 -73t52.5 -29q40 0 62 29.5t29.5 81t10 106.5t10.5 120t26 108q31 77 117 101q-28 12 -74 35.5t-73.5 36t-67.5 23.5t-79 11q-80 0 -128 -38t-48 -103
q0 -53 33.5 -81.5t77.5 -28.5q36 0 66.5 19.5t40.5 51.5l15 -6q0 -74 -33.5 -110t-81.5 -36q-72 0 -108.5 53.5t-36.5 126.5q0 105 71.5 170t188.5 65q72 0 142.5 -25.5t118.5 -57t108 -67t104 -48.5q29 181 176 181q56 0 89 -26.5t33 -64.5q0 -51 -55.5 -83.5t-135.5 -45.5
l-22 -172q67 9 118.5 48.5t56.5 74.5l12 -3q10 -16 10 -40q0 -99 -180 -99h-19l-45 -356q74 25 112 67l10 -12q-35 -52 -125 -82q-7 -56 -18.5 -98t-34 -80t-61.5 -59t-93 -22q-51 0 -82.5 31.5t-31.5 77.5q0 29 12.5 52t28.5 36.5t49 26t54.5 17.5l64.5 15l71 571
q-102 4 -192 39q-18 -13 -29.5 -33.5t-17.5 -53.5t-8.5 -56t-5.5 -71t-5 -68q-13 -142 -66 -209.5t-158 -67.5zM683 -86q-43 -9 -67.5 -16t-52.5 -20t-41 -31.5t-13 -44.5q0 -31 21 -52t49 -21q23 0 41.5 13.5t28.5 30t17.5 46t10 44.5t5.5 43q1 5 1 8zM967 704
q-40 0 -61 -41t-32 -115q64 6 106.5 31t42.5 71q0 24 -16.5 39t-39.5 15z" />
    <glyph glyph-name="Fl" unicode="Fl" horiz-adv-x="1017" 
d="M897 522l-49 -382q-4 -30 6.5 -53t39.5 -23q49 0 97 96l13 -6q-24 -71 -62.5 -113t-101.5 -42q-57 0 -83.5 41.5t-19.5 101.5l47 371q-121 6 -250 57q-57 -37 -57 -184q10 3 45.5 15t60 17.5t47.5 5.5q38 0 60 -22t22 -54q0 -31 -22 -56l-15 4q0 72 -81 72
q-52 0 -119 -14q0 -362 -237 -362q-83 0 -126.5 35.5t-43.5 87.5q0 49 38 79.5t87 30.5l9 -13q-37 -16 -37 -78q0 -48 19.5 -81t57.5 -33q19 0 34.5 8t26 19.5t19 33.5t13 40.5t8 50t5.5 52t4 57.5q2 29 3 44q-38 -6 -76 -6q-123 0 -186 59.5t-63 148.5q0 116 73.5 172.5
t181.5 56.5q74 0 149.5 -25.5t128 -57t117 -67t109.5 -49.5q3 29 7 48.5t14 47t24.5 44t40.5 29t61 12.5q39 0 63 -22t24 -59q0 -52 -35 -86t-91 -49zM242 667q-70 0 -122.5 -40.5t-52.5 -116.5q0 -75 62.5 -119.5t145.5 -44.5q40 0 82 8q9 105 40 156t107 72
q-15 6 -67.5 29t-73 30.5t-56.5 16.5t-65 9zM996 660q0 47 -34 47q-28 0 -39.5 -37.5t-21.5 -112.5q-1 -5 -1 -7q42 9 69 37.5t27 72.5z" />
    <glyph glyph-name="Fk" unicode="Fk" horiz-adv-x="1247" 
d="M477 386q10 3 45.5 15t60 17.5t47.5 5.5q38 0 60 -22t22 -54q0 -31 -22 -56l-15 4q0 72 -81 72q-52 0 -119 -14q0 -362 -237 -362q-83 0 -126.5 35.5t-43.5 87.5q0 49 38 79.5t87 30.5l9 -13q-37 -16 -37 -78q0 -48 19.5 -81t57.5 -33q19 0 34.5 8t26 19.5t19 33.5
t13 40.5t8 50t5.5 52t4 57.5q2 29 3 44q-38 -6 -76 -6q-123 0 -186 59.5t-63 148.5q0 116 73.5 172.5t181.5 56.5q74 0 149.5 -25.5t128 -57t117 -67t109.5 -49.5q3 29 7 48.5t14 47t24.5 44t40.5 29t61 12.5q39 0 63 -22t24 -59q0 -52 -35 -86t-91 -49l-34 -263
q24 13 46.5 40.5t40.5 57t38 57.5t48.5 46t62.5 18q50 0 79.5 -29t29.5 -68q0 -60 -60.5 -98t-151.5 -48q7 -50 48.5 -101.5t94.5 -51.5q60 0 89 73l14 -6q-45 -150 -148 -150q-74 0 -129 62t-55 172q202 54 202 141q0 18 -10.5 31t-31.5 13q-29 0 -56 -24.5t-46 -55.5
t-48.5 -63t-59.5 -43l-21 -168q-11 -64 -69 -64q-47 0 -47 32l61 481q-121 6 -250 57q-57 -37 -57 -184zM242 667q-70 0 -122.5 -40.5t-52.5 -116.5q0 -75 62.5 -119.5t145.5 -44.5q40 0 82 8q9 105 40 156t107 72q-15 6 -67.5 29t-73 30.5t-56.5 16.5t-65 9zM996 660
q0 47 -34 47q-28 0 -39.5 -37.5t-21.5 -112.5q-1 -5 -1 -7q42 9 69 37.5t27 72.5z" />
    <glyph glyph-name="Fb" unicode="Fb" horiz-adv-x="1323" 
d="M861 244l-22 -180q-11 -64 -69 -64q-47 0 -47 32l61 481q-121 6 -250 57q-57 -37 -57 -184q10 3 45.5 15t60 17.5t47.5 5.5q38 0 60 -22t22 -54q0 -31 -22 -56l-15 4q0 72 -81 72q-52 0 -119 -14q0 -362 -237 -362q-83 0 -126.5 35.5t-43.5 87.5q0 49 38 79.5t87 30.5
l9 -13q-37 -16 -37 -78q0 -48 19.5 -81t57.5 -33q19 0 34.5 8t26 19.5t19 33.5t13 40.5t8 50t5.5 52t4 57.5q2 29 3 44q-38 -6 -76 -6q-123 0 -186 59.5t-63 148.5q0 116 73.5 172.5t181.5 56.5q74 0 149.5 -25.5t128 -57t117 -67t109.5 -49.5q3 29 7 48.5t14 47t24.5 44
t40.5 29t61 12.5q39 0 63 -22t24 -59q0 -52 -35 -86t-91 -49l-27 -210q37 76 89.5 121t113.5 45q48 0 82.5 -18t53 -48.5t26.5 -63.5t8 -71q0 -41 -11 -82q59 10 90 36l11 -12q-25 -37 -108 -47q-28 -80 -91 -130t-145 -50q-55 0 -84.5 25t-29.5 65q0 23 8 40.5t27 28.5
t36 17.5t49.5 10t52 5t58.5 2.5q9 44 9 94q0 67 -22.5 104t-58.5 37q-97 0 -173 -177zM242 667q-70 0 -122.5 -40.5t-52.5 -116.5q0 -75 62.5 -119.5t145.5 -44.5q40 0 82 8q9 105 40 156t107 72q-15 6 -67.5 29t-73 30.5t-56.5 16.5t-65 9zM906 88q0 -28 20.5 -41.5
t48.5 -13.5q46 0 78 35t48 95q-46 -2 -74.5 -4.5t-59.5 -10t-46 -22.5t-15 -38zM996 660q0 47 -34 47q-28 0 -39.5 -37.5t-21.5 -112.5q-1 -5 -1 -7q42 9 69 37.5t27 72.5z" />
    <glyph glyph-name="Fh" unicode="Fh" horiz-adv-x="1340" 
d="M477 386q10 3 45.5 15t60 17.5t47.5 5.5q38 0 60 -22t22 -54q0 -31 -22 -56l-15 4q0 72 -81 72q-52 0 -119 -14q0 -362 -237 -362q-83 0 -126.5 35.5t-43.5 87.5q0 49 38 79.5t87 30.5l9 -13q-37 -16 -37 -78q0 -48 19.5 -81t57.5 -33q19 0 34.5 8t26 19.5t19 33.5
t13 40.5t8 50t5.5 52t4 57.5q2 29 3 44q-38 -6 -76 -6q-123 0 -186 59.5t-63 148.5q0 116 73.5 172.5t181.5 56.5q74 0 149.5 -25.5t128 -57t117 -67t109.5 -49.5q3 29 7 48.5t14 47t24.5 44t40.5 29t61 12.5q39 0 63 -22t24 -59q0 -52 -35 -86t-91 -49l-35 -272
q29 13 53.5 41t41.5 57t37 57t50 45.5t69 17.5q47 0 76.5 -25.5t29.5 -79.5q0 -32 -20 -108.5t-20 -121.5q0 -70 47 -70q30 0 52 24t43 68l14 -6q-25 -71 -61 -110.5t-99 -39.5q-56 0 -81 34.5t-25 87.5q0 43 19 113.5t19 99.5q0 58 -42 58q-22 0 -47.5 -22.5t-45.5 -51
t-51 -56.5t-62 -36l-20 -162q-11 -64 -69 -64q-47 0 -47 32l61 481q-121 6 -250 57q-57 -37 -57 -184zM242 667q-70 0 -122.5 -40.5t-52.5 -116.5q0 -75 62.5 -119.5t145.5 -44.5q40 0 82 8q9 105 40 156t107 72q-15 6 -67.5 29t-73 30.5t-56.5 16.5t-65 9zM996 660
q0 47 -34 47q-28 0 -39.5 -37.5t-21.5 -112.5q-1 -5 -1 -7q42 9 69 37.5t27 72.5z" />
    <glyph glyph-name="om" unicode="om" horiz-adv-x="1590" 
d="M723 463q60 0 83 -44t12 -108l-7 -49q24 15 45.5 43t37 54.5t33.5 52t46 41t64 15.5q56 0 81 -35.5t25 -90.5q0 -24 -5 -54l-4 -26q27 19 53.5 56.5t44.5 69t52 56t79 24.5q47 0 76.5 -25.5t29.5 -79.5q0 -32 -20 -108.5t-20 -121.5q0 -70 47 -70q30 0 52 24t43 68l14 -6
q-25 -71 -61 -110.5t-99 -39.5q-56 0 -81 34.5t-25 87.5q0 43 19 113.5t19 99.5q0 58 -42 58q-26 0 -55 -31t-63.5 -72t-67.5 -56l-25 -169q-10 -64 -69 -64q-47 0 -47 32l42 281q6 38 -1.5 58.5t-36.5 20.5q-21 0 -43 -19t-39.5 -43.5t-45.5 -52.5t-57 -41l-25 -172
q-11 -64 -71 -64q-20 0 -34.5 7t-12.5 25l43 294q10 83 -33 83q-18 0 -39 -15.5t-38 -34.5t-43 -35.5t-54 -17.5q2 -24 2 -37q0 -111 -67.5 -194.5t-175.5 -83.5q-104 0 -156.5 62t-52.5 147q0 116 75.5 197.5t188.5 81.5q83 0 131 -46q21 -1 34 -15.5t18 -32t14.5 -32
t23.5 -14.5q13 0 34 19.5t40.5 42.5t50.5 42.5t63 19.5zM475 274q0 12 -2 34q-32 6 -54.5 25.5t-22.5 47.5q0 26 18 41q-31 21 -67 21q-77 0 -123 -70t-46 -169q0 -78 34.5 -118.5t85.5 -40.5q81 0 129 73t48 156z" />
    <glyph glyph-name="on" unicode="on" horiz-adv-x="1284" 
d="M723 463q60 0 83 -44t12 -108l-9 -60q28 13 52 41t41 57t36.5 56.5t49.5 45t69 17.5q47 0 76.5 -25.5t29.5 -79.5q0 -32 -20 -108.5t-20 -121.5q0 -70 47 -70q30 0 52 24t43 68l14 -6q-25 -71 -61 -110.5t-99 -39.5q-56 0 -81 34.5t-25 87.5q0 43 19 113.5t19 99.5
q0 58 -42 58q-22 0 -47 -22.5t-45 -50.5t-50.5 -56t-61.5 -37l-23 -162q-11 -64 -71 -64q-20 0 -34.5 7t-12.5 25l43 294q10 83 -33 83q-18 0 -39 -15.5t-38 -34.5t-43 -35.5t-54 -17.5q2 -24 2 -37q0 -111 -67.5 -194.5t-175.5 -83.5q-104 0 -156.5 62t-52.5 147
q0 116 75.5 197.5t188.5 81.5q83 0 131 -46q21 -1 34 -15.5t18 -32t14.5 -32t23.5 -14.5q13 0 34 19.5t40.5 42.5t50.5 42.5t63 19.5zM475 274q0 12 -2 34q-32 6 -54.5 25.5t-22.5 47.5q0 26 18 41q-31 21 -67 21q-77 0 -123 -70t-46 -169q0 -78 34.5 -118.5t85.5 -40.5
q81 0 129 73t48 156z" />
    <glyph glyph-name="op" unicode="op" horiz-adv-x="1232" 
d="M672 409q-18 0 -39 -15.5t-38 -34.5t-43 -35.5t-54 -17.5q2 -24 2 -37q0 -111 -67.5 -194.5t-175.5 -83.5q-104 0 -156.5 62t-52.5 147q0 116 75.5 197.5t188.5 81.5q83 0 131 -46q21 -1 34 -15.5t18 -32t14.5 -32t23.5 -14.5q13 0 34 19.5t40.5 42.5t50.5 42.5t63 19.5
q54 0 75.5 -43.5t17.5 -102.5q79 161 199 161q75 0 122 -52t47 -135q0 -138 -74 -218.5t-194 -80.5q-80 0 -135 45l-17 -132q70 2 105 25l11 -10q-34 -39 -119 -41q-13 -80 -63.5 -137t-136.5 -57q-66 0 -104.5 32t-38.5 82q0 45 26 73t60.5 37t77.5 9q25 0 73 -4l52 412
q8 83 -33 83zM971 421q-52 0 -94.5 -52t-70.5 -119l-24 -187q59 -36 116 -36q42 0 74 26t49 67t25 82.5t8 79.5q0 55 -18.5 97t-64.5 42zM529 -269q95 0 120 158q-27 4 -59 4q-61 0 -102.5 -21t-41.5 -66q0 -34 24 -54.5t59 -20.5zM473 274q0 12 -2 34q-32 6 -54.5 25.5
t-22.5 47.5q0 26 18 41q-31 21 -67 21q-77 0 -123 -70t-46 -169q0 -78 34.5 -118.5t85.5 -40.5q81 0 129 73t48 156z" />
    <glyph glyph-name="or" unicode="or" horiz-adv-x="1068" 
d="M723 463q58 0 79.5 -45t15.5 -107l-6 -42q33 83 86.5 145.5t114.5 62.5q33 0 49 -22t16 -51q0 -38 -19 -66t-50 -40l-15 6q4 12 4 26q0 25 -13 37t-33 12q-38 0 -78.5 -46t-68.5 -112l-23 -157q-11 -64 -71 -64q-47 0 -47 28v4l43 294q9 83 -33 83q-18 0 -39 -15.5
t-38 -34.5t-43 -35.5t-54 -17.5q2 -24 2 -37q0 -111 -67.5 -194.5t-175.5 -83.5q-104 0 -156.5 62t-52.5 147q0 116 75.5 197.5t188.5 81.5q83 0 131 -46q21 -1 34 -15.5t18 -32t14.5 -32t23.5 -14.5q13 0 34 19.5t40.5 42.5t50.5 42.5t63 19.5zM475 274q0 12 -2 34
q-32 6 -54.5 25.5t-22.5 47.5q0 26 18 41q-31 21 -67 21q-77 0 -123 -70t-46 -169q0 -78 34.5 -118.5t85.5 -40.5q81 0 129 73t48 156z" />
    <glyph glyph-name="ou" unicode="ou" horiz-adv-x="1274" 
d="M729 462q47 0 70 -30.5t23 -76.5q0 -41 -21.5 -112t-21.5 -110q0 -59 43 -59q25 0 51 20.5t45.5 47t47 54t53.5 37.5l23 166q9 64 71 64q46 0 46 -32l-40 -280q-10 -88 43 -88q46 0 93 92l14 -6q-49 -150 -160 -150q-57 0 -83.5 43.5t-17.5 107.5l8 58q-22 -13 -51 -49.5
t-52.5 -70.5t-62 -61.5t-80.5 -27.5q-45 0 -74 33.5t-29 86.5q0 50 23.5 127t23.5 108q0 53 -36 53q-18 0 -39.5 -15.5t-39 -34t-44.5 -34.5t-55 -17q2 -24 2 -37q0 -111 -67.5 -194.5t-175.5 -83.5q-104 0 -156.5 62t-52.5 147q0 116 75.5 197.5t188.5 81.5q83 0 131 -46
q21 -1 34 -15.5t18 -32t14.5 -32t23.5 -14.5q16 0 45.5 30.5t68.5 61.5t80 31zM475 274q0 12 -2 34q-32 6 -54.5 25.5t-22.5 47.5q0 26 18 41q-31 21 -67 21q-77 0 -123 -70t-46 -169q0 -78 34.5 -118.5t85.5 -40.5q81 0 129 73t48 156z" />
    <glyph glyph-name="ov" unicode="ov" horiz-adv-x="1110" 
d="M723 463q49 0 70.5 -31.5t21.5 -74.5q0 -37 -18.5 -104t-18.5 -102q0 -39 17.5 -67t55.5 -29q73 0 139 79.5t66 167.5q0 42 -18 66t-46 24q-49 0 -66 -50l-13 5q-2 9 -2 27q0 47 27 75.5t64 28.5q38 0 65.5 -32t27.5 -87q0 -80 -36 -163.5t-105 -143.5t-151 -60
q-61 0 -98 39.5t-37 100.5q0 39 21 109.5t21 107.5q0 60 -36 60q-18 0 -39 -15.5t-38 -34.5t-43 -35.5t-54 -17.5q2 -24 2 -37q0 -111 -67.5 -194.5t-175.5 -83.5q-104 0 -156.5 62t-52.5 147q0 116 75.5 197.5t188.5 81.5q83 0 131 -46q21 -1 34 -15.5t18 -32t14.5 -32
t23.5 -14.5q13 0 34 19.5t40.5 42.5t50.5 42.5t63 19.5zM475 274q0 12 -2 34q-32 6 -54.5 25.5t-22.5 47.5q0 26 18 41q-31 21 -67 21q-77 0 -123 -70t-46 -169q0 -78 34.5 -118.5t85.5 -40.5q81 0 129 73t48 156z" />
    <glyph glyph-name="ow" unicode="ow" horiz-adv-x="1318" 
d="M1016 184q0 -21 5 -48q56 62 56 113q0 31 -21 31q-19 0 -29.5 -28t-10.5 -68zM723 463q41 0 66 -28.5t25 -72.5q0 -38 -27 -114t-27 -113q0 -43 22.5 -63.5t59.5 -20.5q45 0 88 19q-16 36 -16 87q0 65 30.5 111t88.5 46q29 0 48 -15t19 -47q0 -67 -71 -140q24 -57 81 -57
q67 0 113.5 64t46.5 162q0 46 -19.5 79.5t-59.5 33.5q-23 0 -43 -14.5t-27 -37.5l-13 5q-2 7 -2 22q0 42 25.5 75.5t68.5 33.5q37 0 61 -26.5t33 -63.5t9 -84q0 -79 -26 -148.5t-80.5 -116.5t-127.5 -47q-83 0 -124 52q-86 -52 -165 -52q-54 0 -94 34.5t-40 101.5
q0 49 31 125t31 108q0 48 -34 48q-18 0 -39 -15.5t-38 -34.5t-43 -35.5t-54 -17.5q2 -24 2 -37q0 -111 -67.5 -194.5t-175.5 -83.5q-104 0 -156.5 62t-52.5 147q0 116 75.5 197.5t188.5 81.5q83 0 131 -46q21 -1 34 -15.5t18 -32t14.5 -32t23.5 -14.5q13 0 34 19.5
t40.5 42.5t50.5 42.5t63 19.5zM475 274q0 12 -2 34q-32 6 -54.5 25.5t-22.5 47.5q0 26 18 41q-31 21 -67 21q-77 0 -123 -70t-46 -169q0 -78 34.5 -118.5t85.5 -40.5q81 0 129 73t48 156z" />
    <glyph glyph-name="oy" unicode="oy" horiz-adv-x="1169" 
d="M860 -267q81 13 109 187q-125 -18 -162 -33q-60 -25 -60 -75q0 -36 26 -58.5t66 -22.5q5 0 21 2zM729 462q47 0 70 -30.5t23 -76.5q0 -41 -21.5 -112t-21.5 -110q0 -59 43 -59q25 0 50.5 20.5t44.5 46t46 53t53 38.5l26 167q9 64 71 64q44 0 44 -32l-71 -461
q87 27 115 84l11 -10q-22 -72 -129 -101q-15 -120 -66.5 -189t-143.5 -69h-10q-60 0 -103 34t-43 86q0 30 12.5 52.5t33.5 36t50 22.5t61.5 15t67.5 11q20 3 30 4l40 260q-18 -12 -39.5 -38.5t-41.5 -54t-43 -54t-53.5 -43.5t-64.5 -17q-45 0 -74 33.5t-29 86.5
q0 50 23.5 127t23.5 108q0 53 -36 53q-18 0 -39.5 -15.5t-39 -34t-44.5 -34.5t-55 -17q2 -24 2 -37q0 -111 -67.5 -194.5t-175.5 -83.5q-104 0 -156.5 62t-52.5 147q0 116 75.5 197.5t188.5 81.5q83 0 131 -46q21 -1 34 -15.5t18 -32t14.5 -32t23.5 -14.5q16 0 45.5 30.5
t68.5 61.5t80 31zM475 274q0 12 -2 34q-32 6 -54.5 25.5t-22.5 47.5q0 26 18 41q-31 21 -67 21q-77 0 -123 -70t-46 -169q0 -78 34.5 -118.5t85.5 -40.5q81 0 129 73t48 156z" />
    <glyph glyph-name="LM" unicode="LM" horiz-adv-x="1722" 
d="M158 35q67 0 98 66q-49 33 -92 33q-32 0 -51 -14.5t-19 -37.5q0 -21 18 -34t46 -13zM177 160q46 0 94 -16q13 49 24.5 222t42.5 249q-45 8 -86 8q-147 0 -147 -132q0 -51 28.5 -84.5t87.5 -34.5l-3 -16q-33 -11 -62 -11q-62 0 -106 39.5t-44 106.5q0 37 13 66t33 47
t48 29t55.5 15.5t57.5 4.5q52 0 134 -16q57 110 189 110q44 0 71.5 -21t27.5 -51q0 -39 -40.5 -59.5t-94.5 -20.5q-26 0 -50 3q-10 -49 -21 -158.5t-29 -191.5t-55 -135q63 -34 144 -101.5t142 -111.5t107 -44q35 0 59.5 23t24.5 63q0 7 -2 21l18 8q12 -34 12 -66
q0 -56 -38 -97t-108 -41q-61 0 -122 33.5t-100 73t-95.5 101.5t-85.5 89q-68 -56 -150 -56q-49 0 -76.5 19.5t-27.5 52.5q0 39 38.5 59.5t91.5 20.5zM1435 638q6 37 29.5 57t51.5 20q34 0 34 -34l-57 -472q-21 -169 71 -169q76 0 111 95l22 -7q-41 -137 -168 -136
q-91 1 -127 64.5t-24 148.5l40 310q-38 -93 -159 -205q4 -44 4 -81q0 -237 -146 -237q-44 0 -66 24t-22 61q0 33 19.5 67t36.5 51t53 48q7 6 10 9q-37 248 -129 361q-11 -122 -25.5 -214t-37 -171t-52 -129.5t-71.5 -78.5t-95 -28q-72 0 -108 34t-36 85t39 82.5t90 31.5
l8 -13q-40 -17 -40 -83q0 -44 19.5 -66.5t51.5 -22.5q96 0 152.5 158.5t75.5 445.5q-42 45 -105 45q-57 0 -90.5 -39t-33.5 -95q0 -49 27 -83t79 -34l-3 -16q-26 -17 -63 -17q-63 0 -100.5 40t-37.5 101q0 79 64.5 125t143.5 46q83 0 151 -30.5t113.5 -84t75 -118.5
t43.5 -142q37 36 57 58.5t49.5 61.5t47.5 82.5t27 93.5zM1152 219q-33 -31 -47.5 -45.5t-29.5 -41t-15 -52.5q0 -24 12 -37.5t29 -13.5q55 0 55 118q0 20 -4 72zM455 619q11 -1 36 -1q96 0 96 62q0 19 -12.5 31t-34.5 12q-60 0 -85 -104z" />
    <glyph glyph-name="o_t" unicode="&#x43e;&#x442;" horiz-adv-x="1590" 
d="M723 463q60 0 83 -44t12 -108l-7 -49q24 15 45.5 43t37 54.5t33.5 52t46 41t64 15.5q56 0 81 -35.5t25 -90.5q0 -24 -5 -54l-4 -26q27 19 53.5 56.5t44.5 69t52 56t79 24.5q47 0 76.5 -25.5t29.5 -79.5q0 -32 -20 -108.5t-20 -121.5q0 -70 47 -70q30 0 52 24t43 68l14 -6
q-25 -71 -61 -110.5t-99 -39.5q-56 0 -81 34.5t-25 87.5q0 43 19 113.5t19 99.5q0 58 -42 58q-26 0 -55 -31t-63.5 -72t-67.5 -56l-25 -169q-10 -64 -69 -64q-47 0 -47 32l42 281q6 38 -1.5 58.5t-36.5 20.5q-21 0 -43 -19t-39.5 -43.5t-45.5 -52.5t-57 -41l-25 -172
q-11 -64 -71 -64q-20 0 -34.5 7t-12.5 25l43 294q10 83 -33 83q-18 0 -39 -15.5t-38 -34.5t-43 -35.5t-54 -17.5q2 -24 2 -37q0 -111 -67.5 -194.5t-175.5 -83.5q-104 0 -156.5 62t-52.5 147q0 116 75.5 197.5t188.5 81.5q83 0 131 -46q21 -1 34 -15.5t18 -32t14.5 -32
t23.5 -14.5q13 0 34 19.5t40.5 42.5t50.5 42.5t63 19.5zM475 274q0 12 -2 34q-32 6 -54.5 25.5t-22.5 47.5q0 26 18 41q-31 21 -67 21q-77 0 -123 -70t-46 -169q0 -78 34.5 -118.5t85.5 -40.5q81 0 129 73t48 156z" />
    <glyph glyph-name="o_n_cyr" unicode="&#x43e;&#x43f;" horiz-adv-x="1284" 
d="M723 463q60 0 83 -44t12 -108l-9 -60q28 13 52 41t41 57t36.5 56.5t49.5 45t69 17.5q47 0 76.5 -25.5t29.5 -79.5q0 -32 -20 -108.5t-20 -121.5q0 -70 47 -70q30 0 52 24t43 68l14 -6q-25 -71 -61 -110.5t-99 -39.5q-56 0 -81 34.5t-25 87.5q0 43 19 113.5t19 99.5
q0 58 -42 58q-22 0 -47 -22.5t-45 -50.5t-50.5 -56t-61.5 -37l-23 -162q-11 -64 -71 -64q-20 0 -34.5 7t-12.5 25l43 294q10 83 -33 83q-18 0 -39 -15.5t-38 -34.5t-43 -35.5t-54 -17.5q2 -24 2 -37q0 -111 -67.5 -194.5t-175.5 -83.5q-104 0 -156.5 62t-52.5 147
q0 116 75.5 197.5t188.5 81.5q83 0 131 -46q21 -1 34 -15.5t18 -32t14.5 -32t23.5 -14.5q13 0 34 19.5t40.5 42.5t50.5 42.5t63 19.5zM475 274q0 12 -2 34q-32 6 -54.5 25.5t-22.5 47.5q0 26 18 41q-31 21 -67 21q-77 0 -123 -70t-46 -169q0 -78 34.5 -118.5t85.5 -40.5
q81 0 129 73t48 156z" />
    <glyph glyph-name="o_p_cyr" unicode="&#x43e;&#x440;" horiz-adv-x="1234" 
d="M674 409q-18 0 -39 -15.5t-38 -34.5t-43 -35.5t-54 -17.5q2 -24 2 -37q0 -111 -67.5 -194.5t-175.5 -83.5q-104 0 -156.5 62t-52.5 147q0 116 75.5 197.5t188.5 81.5q83 0 131 -46q21 -1 34 -15.5t18 -32t14.5 -32t23.5 -14.5q13 0 34 19.5t40.5 42.5t50.5 42.5t63 19.5
q54 0 75.5 -43.5t17.5 -102.5q79 161 199 161q75 0 122 -52t47 -135q0 -138 -74 -218.5t-194 -80.5q-80 0 -135 45l-17 -132q70 2 105 25l11 -10q-34 -39 -119 -41q-13 -80 -63.5 -137t-136.5 -57q-66 0 -104.5 32t-38.5 82q0 45 26 73t60.5 37t77.5 9q25 0 73 -4l52 412
q8 83 -33 83zM973 421q-52 0 -94.5 -52t-70.5 -119l-24 -187q59 -36 116 -36q42 0 74 26t49 67t25 82.5t8 79.5q0 55 -18.5 97t-64.5 42zM531 -269q95 0 120 158q-27 4 -59 4q-61 0 -102.5 -21t-41.5 -66q0 -34 24 -54.5t59 -20.5zM475 274q0 12 -2 34q-32 6 -54.5 25.5
t-22.5 47.5q0 26 18 41q-31 21 -67 21q-77 0 -123 -70t-46 -169q0 -78 34.5 -118.5t85.5 -40.5q81 0 129 73t48 156z" />
    <glyph glyph-name="o_u_cyr" unicode="&#x43e;&#x438;" horiz-adv-x="1274" 
d="M729 462q47 0 70 -30.5t23 -76.5q0 -41 -21.5 -112t-21.5 -110q0 -59 43 -59q25 0 51 20.5t45.5 47t47 54t53.5 37.5l23 166q9 64 71 64q46 0 46 -32l-40 -280q-10 -88 43 -88q46 0 93 92l14 -6q-49 -150 -160 -150q-57 0 -83.5 43.5t-17.5 107.5l8 58q-22 -13 -51 -49.5
t-52.5 -70.5t-62 -61.5t-80.5 -27.5q-45 0 -74 33.5t-29 86.5q0 50 23.5 127t23.5 108q0 53 -36 53q-18 0 -39.5 -15.5t-39 -34t-44.5 -34.5t-55 -17q2 -24 2 -37q0 -111 -67.5 -194.5t-175.5 -83.5q-104 0 -156.5 62t-52.5 147q0 116 75.5 197.5t188.5 81.5q83 0 131 -46
q21 -1 34 -15.5t18 -32t14.5 -32t23.5 -14.5q16 0 45.5 30.5t68.5 61.5t80 31zM475 274q0 12 -2 34q-32 6 -54.5 25.5t-22.5 47.5q0 26 18 41q-31 21 -67 21q-77 0 -123 -70t-46 -169q0 -78 34.5 -118.5t85.5 -40.5q81 0 129 73t48 156z" />
    <glyph glyph-name="o_y_cyr" unicode="&#x43e;&#x443;" horiz-adv-x="1169" 
d="M860 -267q81 13 109 187q-125 -18 -162 -33q-60 -25 -60 -75q0 -36 26 -58.5t66 -22.5q5 0 21 2zM729 462q47 0 70 -30.5t23 -76.5q0 -41 -21.5 -112t-21.5 -110q0 -59 43 -59q25 0 50.5 20.5t44.5 46t46 53t53 38.5l26 167q9 64 71 64q44 0 44 -32l-71 -461
q87 27 115 84l11 -10q-22 -72 -129 -101q-15 -120 -66.5 -189t-143.5 -69h-10q-60 0 -103 34t-43 86q0 30 12.5 52.5t33.5 36t50 22.5t61.5 15t67.5 11q20 3 30 4l40 260q-18 -12 -39.5 -38.5t-41.5 -54t-43 -54t-53.5 -43.5t-64.5 -17q-45 0 -74 33.5t-29 86.5
q0 50 23.5 127t23.5 108q0 53 -36 53q-18 0 -39.5 -15.5t-39 -34t-44.5 -34.5t-55 -17q2 -24 2 -37q0 -111 -67.5 -194.5t-175.5 -83.5q-104 0 -156.5 62t-52.5 147q0 116 75.5 197.5t188.5 81.5q83 0 131 -46q21 -1 34 -15.5t18 -32t14.5 -32t23.5 -14.5q16 0 45.5 30.5
t68.5 61.5t80 31zM475 274q0 12 -2 34q-32 6 -54.5 25.5t-22.5 47.5q0 26 18 41q-31 21 -67 21q-77 0 -123 -70t-46 -169q0 -78 34.5 -118.5t85.5 -40.5q81 0 129 73t48 156z" />
    <glyph glyph-name="o_g_cyr" unicode="&#x43e;&#x433;" horiz-adv-x="969" 
d="M259 -9q-104 0 -156.5 62t-52.5 147q0 116 75.5 197.5t188.5 81.5q83 0 131 -46q21 -1 34 -15.5t18 -32t14.5 -32t23.5 -14.5q25 0 93 56q50 42 91 62.5t95 20.5q65 0 100 -29t35 -68q0 -33 -24.5 -63.5t-59 -54.5t-69 -47.5t-59 -52t-24.5 -58.5q0 -34 20 -50.5
t53 -16.5q39 0 86.5 21.5t85.5 62.5l9 -9q-77 -121 -247 -121q-65 0 -101 32.5t-36 80.5q0 37 24.5 70t59.5 57.5t70 48.5t59.5 52.5t24.5 58.5q0 19 -13.5 33t-41.5 14q-30 0 -64 -20t-61 -44.5t-65.5 -46t-75.5 -22.5q2 -24 2 -37q0 -111 -67.5 -194.5t-175.5 -83.5z
M475 274q0 18 -3 34q-31 7 -53.5 26t-22.5 47q0 26 18 41q-31 21 -67 21q-77 0 -123 -70t-46 -169q0 -78 34.5 -118.5t85.5 -40.5q81 0 129 73t48 156z" />
    <glyph glyph-name="o_k_cyr" unicode="&#x43e;&#x43a;" horiz-adv-x="1213" 
d="M819 311l-7 -45h16q33 0 58 21t42.5 51t35.5 59.5t46.5 50.5t65.5 21q44 0 73 -24t29 -62q0 -37 -35.5 -64.5t-81.5 -27.5q-9 0 -13 1l-4 16q23 5 36.5 23.5t13.5 35.5q0 21 -11.5 36t-34.5 15q-26 0 -49 -22t-37.5 -50t-39.5 -55t-55 -34q73 0 111.5 -24.5t56.5 -86.5
q2 -8 8 -30.5t9 -30.5t10 -20.5t16 -17t23 -4.5q49 0 92 84l15 -6q-52 -129 -158 -129q-85 0 -116 73q-9 22 -17.5 71.5t-24.5 76t-54 32.5q-14 2 -29 2l-26 -183q-11 -64 -71 -64q-20 0 -34.5 7t-12.5 25l43 294q10 83 -33 83q-20 0 -40.5 -15.5t-36.5 -34.5t-42 -35.5
t-56 -17.5q2 -24 2 -37q0 -111 -67.5 -194.5t-175.5 -83.5q-104 0 -156.5 62t-52.5 147q0 116 75.5 197.5t188.5 81.5q83 0 131 -46q21 -1 34 -15.5t18 -32t14.5 -32t23.5 -14.5t34.5 19.5t40 42.5t50.5 42.5t64 19.5q60 0 83 -44t12 -108zM475 274q0 12 -2 34
q-32 6 -54.5 25.5t-22.5 47.5q0 26 18 41q-31 21 -67 21q-77 0 -123 -70t-46 -169q0 -78 34.5 -118.5t85.5 -40.5q81 0 129 73t48 156z" />
    <glyph glyph-name="o_an_cyr" unicode="&#x43e;&#x43d;" horiz-adv-x="1266" 
d="M475 274q0 12 -2 34q-32 6 -54.5 25.5t-22.5 47.5q0 26 18 41q-31 21 -67 21q-77 0 -123 -70t-46 -169q0 -78 34.5 -118.5t85.5 -40.5q81 0 129 73t48 156zM259 -9q-104 0 -156.5 62t-52.5 147q0 116 75.5 197.5t188.5 81.5q83 0 131 -46q21 -1 34 -15.5t18 -32t14.5 -32
t23.5 -14.5t34.5 19.5t40 42.5t50.5 42.5t64 19.5q60 0 83 -44t12 -108l-10 -66h204l21 154q9 64 71 64q46 0 46 -32l-40 -280q-10 -88 43 -88q46 0 93 92l14 -6q-49 -150 -160 -150q-57 0 -83.5 43.5t-17.5 107.5l9 71h-203l-23 -157q-11 -64 -71 -64q-20 0 -34.5 7
t-12.5 25l43 294q10 83 -33 83q-20 0 -40.5 -15.5t-36.5 -34.5t-42 -35.5t-56 -17.5q2 -24 2 -37q0 -111 -67.5 -194.5t-175.5 -83.5z" />
    <glyph glyph-name="ox" unicode="ox" horiz-adv-x="1158" 
d="M259 -9q-104 0 -156.5 62t-52.5 147q0 116 75.5 197.5t188.5 81.5q83 0 131 -46q21 -1 34 -15.5t18 -32t14.5 -32t23.5 -14.5q16 0 38 20t43 44t56 44t73 20q62 0 93.5 -42.5t49.5 -117.5q70 159 159 159q43 0 64.5 -25.5t21.5 -62.5q0 -40 -23 -67t-65 -28q-9 0 -13 1
l-3 14q32 17 32 60q0 23 -12 39.5t-34 16.5q-15 0 -31 -8t-41 -41.5t-47 -90.5q2 -10 6.5 -33.5t7 -34.5t7 -31t8.5 -30.5t10.5 -25.5t13 -22.5t15.5 -15.5t20.5 -11.5t24.5 -3.5q27 0 49 20t33 58l17 -6q-31 -143 -154 -146q-68 0 -101 44t-50 122q-26 -76 -67.5 -121
t-91.5 -45q-47 0 -71 25t-24 61q0 38 25.5 68.5t68.5 32.5l3 -14q-22 -18 -22 -54q0 -28 15 -44t37 -16q35 0 67 38t53 112q-2 12 -5.5 34.5t-5.5 34.5t-6 31.5t-7.5 30.5t-9 25.5t-11.5 22.5t-14.5 16t-19 11.5t-22.5 3.5q-27 0 -51.5 -15.5t-41 -35t-43.5 -36.5t-59 -18
q2 -24 2 -37q0 -111 -67.5 -194.5t-175.5 -83.5zM475 274q0 12 -2 34q-32 6 -54.5 25.5t-22.5 47.5q0 26 18 41q-31 21 -67 21q-77 0 -123 -70t-46 -169q0 -78 34.5 -118.5t85.5 -40.5q81 0 129 73t48 156z" />
    <glyph glyph-name="o_x_cyr" unicode="&#x43e;&#x445;" horiz-adv-x="1158" 
d="M259 -9q-104 0 -156.5 62t-52.5 147q0 116 75.5 197.5t188.5 81.5q83 0 131 -46q21 -1 34 -15.5t18 -32t14.5 -32t23.5 -14.5q16 0 38 20t43 44t56 44t73 20q62 0 93.5 -42.5t49.5 -117.5q70 159 159 159q43 0 64.5 -25.5t21.5 -62.5q0 -40 -23 -67t-65 -28q-9 0 -13 1
l-3 14q32 17 32 60q0 23 -12 39.5t-34 16.5q-15 0 -31 -8t-41 -41.5t-47 -90.5q2 -10 6.5 -33.5t7 -34.5t7 -31t8.5 -30.5t10.5 -25.5t13 -22.5t15.5 -15.5t20.5 -11.5t24.5 -3.5q27 0 49 20t33 58l17 -6q-31 -143 -154 -146q-68 0 -101 44t-50 122q-26 -76 -67.5 -121
t-91.5 -45q-47 0 -71 25t-24 61q0 38 25.5 68.5t68.5 32.5l3 -14q-22 -18 -22 -54q0 -28 15 -44t37 -16q35 0 67 38t53 112q-2 12 -5.5 34.5t-5.5 34.5t-6 31.5t-7.5 30.5t-9 25.5t-11.5 22.5t-14.5 16t-19 11.5t-22.5 3.5q-27 0 -51.5 -15.5t-41 -35t-43.5 -36.5t-59 -18
q2 -24 2 -37q0 -111 -67.5 -194.5t-175.5 -83.5zM475 274q0 12 -2 34q-32 6 -54.5 25.5t-22.5 47.5q0 26 18 41q-31 21 -67 21q-77 0 -123 -70t-46 -169q0 -78 34.5 -118.5t85.5 -40.5q81 0 129 73t48 156z" />
    <glyph glyph-name="o_ce_cyr" unicode="&#x43e;&#x446;" horiz-adv-x="1237" 
d="M1237 109l14 -7q-16 -54 -67.5 -103t-128.5 -70q40 -8 67 -29.5t66 -70.5q1 -2 6.5 -8.5t7 -8.5t6 -7.5t6.5 -7.5l6.5 -6.5t7 -6t7 -4t7.5 -3.5t7.5 -2t8.5 -1q44 0 72 68l11 -6q-31 -151 -137 -151q-39 0 -66.5 24t-42.5 58.5t-28 68.5t-31.5 58t-44.5 24
q-23 0 -45.5 -24t-45 -47.5t-45.5 -23.5q-17 0 -29 13t-12 32q0 22 13 36t36.5 20t46 8t52 4t43.5 4q111 19 180 88q-35 -29 -80 -29q-58 0 -81.5 47.5t-15.5 103.5l8 57q-23 -13 -52 -50t-52.5 -70.5t-61.5 -60.5t-80 -27q-45 0 -74 33.5t-29 86.5q0 50 24 130t24 111
q0 53 -36 53q-22 0 -50 -26t-61 -53t-68 -28q2 -24 2 -37q0 -111 -67.5 -194.5t-175.5 -83.5q-104 0 -156.5 62t-52.5 147q0 116 75.5 197.5t188.5 81.5q83 0 131 -46q21 -1 34 -15.5t18 -32t14.5 -32t23.5 -14.5q13 0 35 20t43 44.5t53 44.5t64 20q47 0 70 -30.5t23 -76.5
q0 -41 -22 -115t-22 -113q0 -59 43 -59q26 0 51.5 21t44.5 47.5t46.5 53.5t54.5 36l23 167q9 64 71 64q46 0 46 -32l-40 -280q-10 -109 39 -109q44 0 79 67zM475 274q0 12 -2 34q-32 6 -54.5 25.5t-22.5 47.5q0 26 18 41q-31 21 -67 21q-77 0 -123 -70t-46 -169
q0 -78 34.5 -118.5t85.5 -40.5q81 0 129 73t48 156z" />
    <glyph glyph-name="o_ch_cyr" unicode="&#x43e;&#x447;" horiz-adv-x="1210" 
d="M445 433q21 -1 34 -15.5t18 -32t14.5 -32t23.5 -14.5q17 0 37 19t37.5 42.5t47 42.5t63.5 19q38 0 56 -25.5t18 -60.5q0 -27 -13.5 -77t-13.5 -80q0 -45 33 -45q23 0 48 22.5t55.5 51.5t63.5 39l20 112q11 64 73 64q13 0 21.5 -1.5t16 -9.5t7.5 -21l-50 -280
q-12 -88 40 -88q47 0 96 92l14 -6q-54 -150 -165 -150q-58 0 -82.5 43.5t-13.5 107.5l19 113q-25 -11 -53 -38.5t-48 -52t-53 -44t-71 -19.5q-43 0 -64 28t-21 64q0 27 16 80.5t16 82.5q0 39 -23 39q-18 -1 -43 -25t-56 -48t-63 -24q2 -24 2 -37q0 -111 -67.5 -194.5
t-175.5 -83.5q-104 0 -156.5 62t-52.5 147q0 116 75.5 197.5t188.5 81.5q83 0 131 -46zM475 274q0 12 -2 34q-32 6 -54.5 25.5t-22.5 47.5q0 26 18 41q-31 21 -67 21q-77 0 -123 -70t-46 -169q0 -78 34.5 -118.5t85.5 -40.5q81 0 129 73t48 156z" />
    <glyph glyph-name="o_sh_cyr" unicode="&#x43e;&#x448;" horiz-adv-x="1582" 
d="M1467 431l-40 -280q-10 -88 43 -88q46 0 93 92l14 -6q-49 -150 -160 -150q-57 0 -83.5 43.5t-17.5 107.5l5 41q-15 -16 -41 -55t-46 -67t-57 -50t-80 -20q-61 3 -85.5 55t-9.5 139v5q-17 -14 -38 -41t-40 -52.5t-41.5 -50.5t-51.5 -40t-61 -15q-45 0 -74 33.5t-29 86.5
q0 50 24 130t24 111q0 53 -36 53q-22 0 -50 -26t-61 -53t-68 -28q2 -24 2 -37q0 -111 -67.5 -194.5t-175.5 -83.5q-104 0 -156.5 62t-52.5 147q0 116 75.5 197.5t188.5 81.5q83 0 131 -46q21 -1 34 -15.5t18 -32t14.5 -32t23.5 -14.5q13 0 35 20t43 44.5t53 44.5t64 20
q47 0 70 -30.5t23 -76.5q0 -41 -22 -115t-22 -113q0 -59 43 -59q31 0 60.5 29.5t62 69t61.5 53.5l24 173q9 64 71 64q46 0 46 -32l-35 -253q-1 -22 -2.5 -44.5t8.5 -40t33 -18.5q34 -2 63 24.5t58.5 66.5t53.5 56l24 177q9 64 71 64q46 0 46 -32zM475 274q0 12 -2 34
q-32 6 -54.5 25.5t-22.5 47.5q0 26 18 41q-31 21 -67 21q-77 0 -123 -70t-46 -169q0 -78 34.5 -118.5t85.5 -40.5q81 0 129 73t48 156z" />
    <glyph glyph-name="o_she_cyr" unicode="&#x43e;&#x449;" horiz-adv-x="1564" 
d="M1467 431l-40 -280q-10 -109 39 -109q44 0 79 67l14 -7q-43 -133 -204 -172q45 -8 74.5 -29.5t71.5 -71.5q2 -3 9.5 -12l10 -12t9 -9.5t10 -9t9.5 -6.5t12 -5t13 -1q52 0 81 68l13 -6q-44 -151 -158 -151q-40 1 -68.5 25t-44.5 58.5t-29.5 68.5t-34.5 57.5t-51 23.5
t-68 -47.5t-68 -47.5q-17 0 -29 13t-12 32q0 66 139 68q72 0 142.5 24t115.5 75q-43 -36 -89 -36q-58 0 -81.5 47.5t-15.5 103.5l5 41q-15 -16 -40 -53.5t-45 -65t-55 -50.5t-76 -23q-54 0 -81.5 35t-27.5 98q0 28 6 61v5q-17 -14 -38 -41t-40 -52.5t-41.5 -50.5t-51.5 -40
t-61 -15q-45 0 -74 33.5t-29 86.5q0 50 24 130t24 111q0 53 -36 53q-22 0 -50 -26t-61 -53t-68 -28q2 -24 2 -37q0 -111 -67.5 -194.5t-175.5 -83.5q-104 0 -156.5 62t-52.5 147q0 116 75.5 197.5t188.5 81.5q83 0 131 -46q21 -1 34 -15.5t18 -32t14.5 -32t23.5 -14.5
q13 0 35 20t43 44.5t53 44.5t64 20q47 0 70 -30.5t23 -76.5q0 -41 -22 -115t-22 -113q0 -59 43 -59q31 0 60.5 29.5t62 69t61.5 53.5l24 173q9 64 71 64q46 0 46 -32l-35 -253q-3 -19 -3 -42q0 -61 47 -61q27 0 50.5 18t38 40.5t36 48.5t44.5 38l25 179q9 64 71 64
q46 0 46 -32zM475 274q0 12 -2 34q-32 6 -54.5 25.5t-22.5 47.5q0 26 18 41q-31 21 -67 21q-77 0 -123 -70t-46 -169q0 -78 34.5 -118.5t85.5 -40.5q81 0 129 73t48 156z" />
    <glyph glyph-name="o_ee_cyr" unicode="&#x43e;&#x44b;" horiz-adv-x="1380" 
d="M259 -9q-104 0 -156.5 62t-52.5 147q0 116 75.5 197.5t188.5 81.5q83 0 131 -46q21 -1 34 -15.5t18 -32t14.5 -32t23.5 -14.5q16 0 36 19t37.5 42.5t45.5 42.5t57 19q46 0 68 -24.5t22 -57.5q0 -20 -3.5 -41t-13 -58t-11.5 -48q28 44 71.5 70t92.5 26q62 0 103 -38
t41 -94q0 -86 -75 -146t-177 -60q-180 0 -180 140q0 16 1 29.5t5 34.5t7 34t11.5 50.5t14.5 62.5q7 14 3.5 41t-24.5 27q-15 0 -33.5 -15.5t-35 -34.5t-43 -35.5t-55.5 -18.5q2 -24 2 -37q0 -111 -67.5 -194.5t-175.5 -83.5zM475 274q0 12 -2 34q-32 6 -54.5 25.5
t-22.5 47.5q0 26 18 41q-31 21 -67 21q-77 0 -123 -70t-46 -169q0 -78 34.5 -118.5t85.5 -40.5q81 0 129 73t48 156zM1265 431l-40 -280q-10 -88 43 -88q46 0 93 92l14 -6q-49 -150 -160 -150q-57 0 -83.5 43.5t-17.5 107.5l34 249q9 64 71 64q46 0 46 -32zM907 292
q-45 0 -87.5 -39t-59.5 -86q-4 -27 -4 -62q0 -89 68 -89q65 0 102 62t37 133q0 81 -56 81z" />
    <glyph glyph-name="o_ea_cyr" unicode="&#x43e;&#x44c;" horiz-adv-x="1111" 
d="M259 -9q-104 0 -156.5 62t-52.5 147q0 116 75.5 197.5t188.5 81.5q83 0 131 -46q21 -1 34 -15.5t18 -32t14.5 -32t23.5 -14.5q16 0 36 19t37.5 42.5t45.5 42.5t57 19q46 0 68 -24.5t22 -57.5q0 -20 -3.5 -41t-13 -58t-11.5 -48q28 44 71.5 70t92.5 26q62 0 103 -38
t41 -94q0 -86 -75 -146t-177 -60q-180 0 -180 140q0 16 1 29.5t5 34.5t7 34t11.5 50.5t14.5 62.5q7 14 3.5 41t-24.5 27q-15 0 -33.5 -15.5t-35 -34.5t-43 -35.5t-55.5 -18.5q2 -24 2 -37q0 -111 -67.5 -194.5t-175.5 -83.5zM475 274q0 12 -2 34q-32 6 -54.5 25.5
t-22.5 47.5q0 26 18 41q-31 21 -67 21q-77 0 -123 -70t-46 -169q0 -78 34.5 -118.5t85.5 -40.5q81 0 129 73t48 156zM907 292q-45 0 -87.5 -39t-59.5 -86q-4 -27 -4 -62q0 -89 68 -89q65 0 102 62t37 133q0 81 -56 81z" />
    <glyph glyph-name="o_ua_cyr" unicode="&#x43e;&#x44e;" horiz-adv-x="1394" 
d="M1306 274q0 20 -3 40q-36 1 -64 19.5t-28 47.5q0 30 28 47q-23 15 -53 15q-73 0 -113.5 -69.5t-40.5 -169.5q0 -79 29.5 -119t77.5 -40q52 0 91.5 37.5t57.5 88.5t18 103zM805 220l-22 -156q-11 -64 -71 -64q-20 0 -34.5 7t-12.5 25l43 294q10 83 -33 83
q-20 0 -40.5 -15.5t-36.5 -34.5t-42 -35.5t-56 -17.5q2 -24 2 -37q0 -111 -67.5 -194.5t-175.5 -83.5q-104 0 -156.5 62t-52.5 147q0 116 75.5 197.5t188.5 81.5q83 0 131 -46q21 -1 34 -15.5t18 -32t14.5 -32t23.5 -14.5t34.5 19.5t40 42.5t50.5 42.5t64 19.5q60 0 83 -44
t12 -108l-10 -67h98q14 101 82.5 168t164.5 67q77 0 124 -45q17 -5 28.5 -25.5t21.5 -37.5t23 -17q23 0 39 28.5t19 56.5l15 -6q-5 -51 -30.5 -81t-63.5 -36q3 -23 3 -47q0 -111 -64 -194.5t-167 -83.5q-51 0 -90.5 18.5t-62 49t-34 66.5t-11.5 75q0 13 1 20h-100zM475 274
q0 12 -2 34q-32 6 -54.5 25.5t-22.5 47.5q0 26 18 41q-31 21 -67 21q-77 0 -123 -70t-46 -169q0 -78 34.5 -118.5t85.5 -40.5q81 0 129 73t48 156z" />
    <glyph glyph-name="u_g_cyr" unicode="&#x44e;&#x433;" horiz-adv-x="1243" 
d="M127 409q-22 0 -50.5 -27.5t-54.5 -76.5l-12 10q28 73 72 110t95 37q119 0 95 -169l-7 -49h98q14 101 82.5 168t164.5 67q84 0 130 -51q13 -7 22 -22.5t13.5 -30t13 -25.5t20.5 -11q25 0 93 56q50 42 91 62.5t95 20.5q65 0 100 -29t35 -68q0 -33 -24.5 -63.5t-59 -54.5
t-69 -47.5t-59 -52t-24.5 -58.5q0 -34 20 -50.5t53 -16.5q39 0 86.5 21.5t85.5 62.5l9 -9q-77 -121 -247 -121q-65 0 -101 32.5t-36 80.5q0 37 24.5 70t59.5 57.5t70 48.5t59.5 52.5t24.5 58.5q0 19 -13.5 33t-41.5 14q-29 0 -61.5 -19t-58.5 -42t-62.5 -44.5t-70.5 -25.5
q2 -26 2 -39q0 -111 -64 -194.5t-167 -83.5q-51 0 -90.5 18.5t-62 49t-34 66.5t-11.5 75q0 13 1 20h-100l-22 -156q-11 -64 -71 -64q-47 0 -47 32l40 276q18 101 -34 101zM762 274q0 11 -2 33q-37 2 -63.5 21t-26.5 53q0 33 27 46q-26 16 -55 16q-73 0 -113.5 -69.5
t-40.5 -169.5q0 -79 29.5 -119t77.5 -40q52 0 91.5 37.5t57.5 88.5t18 103z" />
    <glyph glyph-name="u_i_cyr" unicode="&#x44e;&#x438;" horiz-adv-x="1561" 
d="M1295 150l8 58q-22 -13 -51 -49.5t-52.5 -70.5t-62 -61.5t-80.5 -27.5q-45 0 -74 33.5t-29 86.5q0 50 23.5 127t23.5 108q0 55 -36 55q-20 0 -47.5 -24.5t-61.5 -50.5t-69 -28q2 -24 2 -37q0 -111 -64 -194.5t-167 -83.5q-51 0 -90.5 18.5t-62 49t-34 66.5t-11.5 75
q0 13 1 20h-100l-22 -156q-11 -64 -71 -64q-47 0 -47 32l40 276q18 101 -34 101q-22 0 -50.5 -27.5t-54.5 -76.5l-12 10q28 73 72 110t95 37q119 0 95 -169l-7 -49h98q14 101 82.5 168t164.5 67q81 0 125 -46q19 -2 32 -17t18 -32t14 -31t23 -14q13 0 35 19t43 42.5
t52.5 42.5t63.5 19q47 0 70 -30.5t23 -76.5q0 -41 -21.5 -112t-21.5 -110q0 -59 43 -59q25 0 51 20.5t45.5 47t47 54t53.5 37.5l23 166q9 64 71 64q46 0 46 -32l-40 -280q-10 -88 43 -88q46 0 93 92l14 -6q-49 -150 -160 -150q-57 0 -83.5 43.5t-17.5 107.5zM762 274
q0 12 -2 34q-32 6 -54.5 25.5t-22.5 47.5q0 29 20 42q-26 20 -61 20q-73 0 -113.5 -69.5t-40.5 -169.5q0 -79 29.5 -119t77.5 -40q52 0 91.5 37.5t57.5 88.5t18 103z" />
    <glyph glyph-name="u_j_cyr" unicode="&#x44e;&#x439;" horiz-adv-x="1561" 
d="M1295 150l8 58q-22 -13 -51 -49.5t-52.5 -70.5t-62 -61.5t-80.5 -27.5q-45 0 -74 33.5t-29 86.5q0 50 23.5 127t23.5 108q0 55 -36 55q-20 0 -47.5 -24.5t-61.5 -50.5t-69 -28q2 -24 2 -37q0 -111 -64 -194.5t-167 -83.5q-51 0 -90.5 18.5t-62 49t-34 66.5t-11.5 75
q0 13 1 20h-100l-22 -156q-11 -64 -71 -64q-47 0 -47 32l40 276q18 101 -34 101q-22 0 -50.5 -27.5t-54.5 -76.5l-12 10q28 73 72 110t95 37q119 0 95 -169l-7 -49h98q14 101 82.5 168t164.5 67q81 0 125 -46q19 -2 32 -17t18 -32t14 -31t23 -14q13 0 35 19t43 42.5
t52.5 42.5t63.5 19q47 0 70 -30.5t23 -76.5q0 -41 -21.5 -112t-21.5 -110q0 -59 43 -59q25 0 51 20.5t45.5 47t47 54t53.5 37.5l23 166q2 12 4 18q-30 -8 -60 -8q-81 0 -139.5 46.5t-58.5 114.5q0 42 27.5 73t73.5 31q34 0 63 -20.5t40 -58.5l-12 -8q-25 24 -55 24
q-33 0 -50.5 -22.5t-17.5 -54.5q0 -52 39 -78t103 -26q31 0 57 8q19 25 57 25q46 0 46 -32l-40 -280q-10 -88 43 -88q46 0 93 92l14 -6q-49 -150 -160 -150q-57 0 -83.5 43.5t-17.5 107.5zM762 274q0 12 -2 34q-32 6 -54.5 25.5t-22.5 47.5q0 29 20 42q-26 20 -61 20
q-73 0 -113.5 -69.5t-40.5 -169.5q0 -79 29.5 -119t77.5 -40q52 0 91.5 37.5t57.5 88.5t18 103z" />
    <glyph glyph-name="u_k_cyr" unicode="&#x44e;&#x43a;" horiz-adv-x="1501" 
d="M558 -9q-51 0 -90.5 18.5t-62 49t-34 66.5t-11.5 75q0 13 1 20h-100l-22 -156q-11 -64 -71 -64q-47 0 -47 32l40 276q18 101 -34 101q-22 0 -50.5 -27.5t-54.5 -76.5l-12 10q28 73 72 110t95 37q119 0 95 -169l-7 -49h98q14 101 82.5 168t164.5 67q81 0 125 -46
q19 -2 32 -17t18 -32t14 -31t23 -14t36 19t43.5 42.5t54.5 42.5t66 19q111 0 89 -148l-7 -48h16q33 0 58 21t42.5 51t35.5 59.5t46.5 50.5t65.5 21q44 0 73 -24t29 -62q0 -37 -35.5 -64.5t-81.5 -27.5q-9 0 -13 1l-4 16q23 5 36.5 23.5t13.5 35.5q0 21 -11.5 36t-34.5 15
q-26 0 -49 -22t-37.5 -50t-39.5 -55t-55 -34q73 0 109.5 -24.5t54.5 -86.5q2 -8 8 -30.5t9 -30.5t10 -20.5t16 -17t23 -4.5q49 0 92 84l15 -6q-52 -129 -158 -129q-85 0 -116 73q-9 22 -16 60t-12 61.5t-26.5 42t-60.5 18.5h-6l-30 -183q-11 -64 -71 -64q-47 0 -47 32
l44 276q8 29 2.5 65t-34.5 36q-20 0 -47.5 -24.5t-61.5 -50.5t-69 -28q2 -24 2 -37q0 -111 -64 -194.5t-167 -83.5zM762 274q0 12 -2 34q-32 6 -54.5 25.5t-22.5 47.5q0 29 20 42q-26 20 -61 20q-73 0 -113.5 -69.5t-40.5 -169.5q0 -79 29.5 -119t77.5 -40q52 0 91.5 37.5
t57.5 88.5t18 103z" />
    <glyph glyph-name="u_en_cyr" unicode="&#x44e;&#x43d;" horiz-adv-x="1558" 
d="M1022 462q111 0 89 -148l-10 -69h204l21 154q9 64 71 64q46 0 46 -32l-40 -280q-10 -88 43 -88q46 0 93 92l14 -6q-49 -150 -160 -150q-57 0 -83.5 43.5t-17.5 107.5l9 71h-204l-22 -157q-11 -64 -71 -64q-47 0 -47 32l40 276q13 98 -30 101q-21 0 -48.5 -24.5t-62 -50.5
t-69.5 -28q2 -24 2 -37q0 -111 -64 -194.5t-167 -83.5q-51 0 -90.5 18.5t-62 49t-34 66.5t-11.5 75q0 13 1 20h-100l-22 -156q-11 -64 -71 -64q-47 0 -47 32l40 276q18 101 -34 101q-22 0 -50.5 -27.5t-54.5 -76.5l-12 10q28 73 72 110t95 37q119 0 95 -169l-7 -49h98
q14 101 82.5 168t164.5 67q81 0 125 -46q19 -2 32 -17t18 -32t14 -31t23 -14t36 19t43.5 42.5t54.5 42.5t66 19zM762 274q0 12 -2 34q-32 6 -54.5 25.5t-22.5 47.5q0 29 20 42q-26 20 -61 20q-73 0 -113.5 -69.5t-40.5 -169.5q0 -79 29.5 -119t77.5 -40q52 0 91.5 37.5
t57.5 88.5t18 103z" />
    <glyph glyph-name="u_n_cyr" unicode="&#x44e;&#x43f;" horiz-adv-x="1577" 
d="M1463 63q30 0 52 24t43 68l14 -6q-25 -71 -61 -110.5t-99 -39.5q-56 0 -81 34.5t-25 87.5q0 43 19 113.5t19 99.5q0 58 -42 58q-22 0 -47 -22.5t-45 -50.5t-50.5 -56t-61.5 -37l-23 -162q-11 -64 -71 -64q-47 0 -47 32l40 276q13 98 -30 101q-21 0 -48.5 -24.5t-62 -50.5
t-69.5 -28q2 -24 2 -37q0 -111 -64 -194.5t-167 -83.5q-51 0 -90.5 18.5t-62 49t-34 66.5t-11.5 75q0 13 1 20h-100l-22 -156q-11 -64 -71 -64q-47 0 -47 32l40 276q18 101 -34 101q-22 0 -50.5 -27.5t-54.5 -76.5l-12 10q28 73 72 110t95 37q119 0 95 -169l-7 -49h98
q14 101 82.5 168t164.5 67q81 0 125 -46q19 -2 32 -17t18 -32t14 -31t23 -14t36 19t43.5 42.5t54.5 42.5t66 19q111 0 89 -148l-9 -63q28 13 52 41t41 57t36.5 56.5t49.5 45t69 17.5q47 0 76.5 -25.5t29.5 -79.5q0 -32 -20 -108.5t-20 -121.5q0 -70 47 -70zM762 274
q0 12 -2 34q-32 6 -54.5 25.5t-22.5 47.5q0 29 20 42q-26 20 -61 20q-73 0 -113.5 -69.5t-40.5 -169.5q0 -79 29.5 -119t77.5 -40q52 0 91.5 37.5t57.5 88.5t18 103z" />
    <glyph glyph-name="u_p_cyr" unicode="&#x44e;&#x440;" horiz-adv-x="1517" 
d="M558 -9q-51 0 -90.5 18.5t-62 49t-34 66.5t-11.5 75q0 13 1 20h-100l-22 -156q-11 -64 -71 -64q-47 0 -47 32l40 276q18 101 -34 101q-22 0 -50.5 -27.5t-54.5 -76.5l-12 10q28 73 72 110t95 37q119 0 95 -169l-7 -49h98q14 101 82.5 168t164.5 67q81 0 125 -46
q19 -2 31.5 -17t18 -32t14 -31t19.5 -14q13 0 34 19.5t40.5 42.5t50.5 42.5t63 19.5q54 0 75.5 -43.5t17.5 -102.5q79 161 199 161q75 0 122 -52t47 -135q0 -138 -74 -218.5t-194 -80.5q-80 0 -135 45l-17 -132q70 2 105 25l11 -10q-34 -39 -119 -41q-13 -80 -63.5 -137
t-136.5 -57q-66 0 -104.5 32t-38.5 82q0 45 26 73t60.5 37t77.5 9q25 0 73 -4l52 412q8 83 -33 83q-17 0 -37.5 -15.5t-37.5 -34.5t-42.5 -35t-52.5 -17q2 -24 2 -38q0 -111 -64 -194.5t-167 -83.5zM762 274q0 13 -2 35q-32 5 -54.5 24t-22.5 48t20 42q-26 20 -61 20
q-73 0 -113.5 -69.5t-40.5 -169.5q0 -79 29.5 -119t77.5 -40q52 0 91.5 37.5t57.5 88.5t18 103zM1256 421q-52 0 -94.5 -52t-70.5 -119l-24 -187q59 -36 116 -36q42 0 74 26t49 67t25 82.5t8 79.5q0 55 -18.5 97t-64.5 42zM814 -269q95 0 120 158q-27 4 -59 4
q-61 0 -102.5 -21t-41.5 -66q0 -34 24 -54.5t59 -20.5z" />
    <glyph glyph-name="u_m_cyr" unicode="&#x44e;&#x442;" horiz-adv-x="1883" 
d="M1100 236l-25 -172q-11 -64 -71 -64q-47 0 -47 32l40 276q13 98 -30 101q-21 0 -48.5 -24.5t-62 -50.5t-69.5 -28q2 -24 2 -37q0 -111 -64 -194.5t-167 -83.5q-51 0 -90.5 18.5t-62 49t-34 66.5t-11.5 75q0 13 1 20h-100l-22 -156q-11 -64 -71 -64q-47 0 -47 32l40 276
q18 101 -34 101q-22 0 -50.5 -27.5t-54.5 -76.5l-12 10q28 73 72 110t95 37q119 0 95 -169l-7 -49h98q14 101 82.5 168t164.5 67q81 0 125 -46q19 -2 32 -17t18 -32t14 -31t23 -14t36 19t43.5 42.5t54.5 42.5t66 19q111 0 89 -148l-8 -52q29 18 55.5 56t43.5 69.5t50 56
t78 24.5q56 0 81 -35.5t25 -90.5q0 -23 -9 -80q27 19 53.5 56.5t44.5 69t52 56t79 24.5q47 0 76.5 -25.5t29.5 -79.5q0 -32 -20 -108.5t-20 -121.5q0 -70 47 -70q30 0 52 24t43 68l14 -6q-25 -71 -61 -110.5t-99 -39.5q-56 0 -81 34.5t-25 87.5q0 43 19 113.5t19 99.5
q0 58 -42 58q-26 0 -55 -31t-63.5 -72t-67.5 -56l-25 -169q-10 -64 -69 -64q-47 0 -47 32l42 281q6 38 -1.5 58.5t-36.5 20.5q-21 0 -43 -19t-39.5 -43.5t-45.5 -52.5t-57 -41zM762 274q0 12 -2 34q-32 6 -54.5 25.5t-22.5 47.5q0 29 20 42q-26 20 -61 20
q-73 0 -113.5 -69.5t-40.5 -169.5q0 -79 29.5 -119t77.5 -40q52 0 91.5 37.5t57.5 88.5t18 103z" />
    <glyph glyph-name="u_y_cyr" unicode="&#x44e;&#x443;" horiz-adv-x="1455" 
d="M558 -9q-51 0 -90.5 18.5t-62 49t-34 66.5t-11.5 75q0 13 1 20h-100l-22 -156q-11 -64 -71 -64q-47 0 -47 32l40 276q18 101 -34 101q-22 0 -50.5 -27.5t-54.5 -76.5l-12 10q28 73 72 110t95 37q119 0 95 -169l-7 -49h98q14 101 82.5 168t164.5 67q81 0 125 -46
q19 -2 32 -17t18 -32t14 -31t23 -14q13 0 35 19t43 42.5t52.5 42.5t63.5 19q48 0 70.5 -31t22.5 -77q0 -39 -22 -111t-22 -109q0 -60 43 -60q25 0 50.5 20.5t44.5 46t46 53t53 38.5l26 167q9 64 71 64q44 0 44 -32l-71 -461q87 27 115 84l11 -10q-22 -72 -129 -101
q-16 -121 -69.5 -189.5t-146.5 -68.5q-60 0 -105 33t-45 87q0 30 12.5 52.5t33.5 36t50 22.5t61.5 15t67.5 11q20 3 30 4l40 260q-18 -12 -39.5 -38.5t-41.5 -54t-43 -54t-53.5 -43.5t-64.5 -17q-45 0 -74 34t-29 88q0 48 24 125t24 108q0 55 -36 55q-20 0 -47.5 -24.5
t-61.5 -50.5t-69 -28q2 -24 2 -37q0 -111 -64 -194.5t-167 -83.5zM762 274q0 12 -2 34q-32 6 -54.5 25.5t-22.5 47.5q0 29 20 42q-26 20 -61 20q-73 0 -113.5 -69.5t-40.5 -169.5q0 -79 29.5 -119t77.5 -40q52 0 91.5 37.5t57.5 88.5t18 103zM1033 -188q0 -36 27 -58.5
t62 -22.5q102 0 133 189q-125 -18 -162 -33q-60 -25 -60 -75z" />
    <glyph glyph-name="u_x_cyr" unicode="&#x44e;&#x445;" horiz-adv-x="1445" 
d="M822 339q16 0 38 20t43 44t56 44t73 20q62 0 93.5 -42.5t49.5 -117.5q70 159 159 159q43 0 64.5 -25.5t21.5 -62.5q0 -40 -23 -67t-65 -28q-9 0 -13 1l-3 14q32 17 32 60q0 23 -12 39.5t-34 16.5q-15 0 -31 -8t-41 -41.5t-47 -90.5q2 -10 6.5 -33.5t7 -34.5t7 -31
t8.5 -30.5t10.5 -25.5t13 -22.5t15.5 -15.5t20.5 -11.5t24.5 -3.5q27 0 49 20t33 58l17 -6q-31 -143 -154 -146q-68 0 -101 44t-50 122q-26 -76 -67.5 -121t-91.5 -45q-47 0 -71 25t-24 61q0 38 25.5 68.5t68.5 32.5l3 -14q-22 -18 -22 -54q0 -28 15 -44t37 -16q35 0 67 38
t53 112q-2 12 -5.5 34.5t-5.5 34.5t-6 31.5t-7.5 30.5t-9 25.5t-11.5 22.5t-14.5 16t-19 11.5t-22.5 3.5q-27 0 -51.5 -15.5t-41 -35t-43.5 -36.5t-59 -18q2 -24 2 -37q0 -111 -64 -194.5t-167 -83.5q-51 0 -90.5 18.5t-62 49t-34 66.5t-11.5 75q0 13 1 20h-100l-22 -156
q-11 -64 -71 -64q-47 0 -47 32l40 276q18 101 -34 101q-22 0 -50.5 -27.5t-54.5 -76.5l-12 10q28 73 72 110t95 37q119 0 95 -169l-7 -49h98q14 101 82.5 168t164.5 67q81 0 125 -46q19 -2 32 -17t18 -32t14 -31t23 -14zM762 274q0 12 -2 34q-33 6 -55 24.5t-22 48.5
q0 29 20 42q-26 20 -61 20q-73 0 -113.5 -69.5t-40.5 -169.5q0 -79 29.5 -119t77.5 -40q52 0 91.5 37.5t57.5 88.5t18 103z" />
    <glyph glyph-name="u_ce_cyr" unicode="&#x44e;&#x446;" horiz-adv-x="1524" 
d="M1295 150l8 58q-22 -13 -51 -49.5t-52.5 -70.5t-62 -61.5t-80.5 -27.5q-45 0 -74 33.5t-29 86.5q0 50 23.5 127t23.5 108q0 55 -36 55q-20 0 -47.5 -24.5t-61.5 -50.5t-69 -28q2 -24 2 -37q0 -111 -64 -194.5t-167 -83.5q-51 0 -90.5 18.5t-62 49t-34 66.5t-11.5 75
q0 13 1 20h-100l-22 -156q-11 -64 -71 -64q-47 0 -47 32l40 276q18 101 -34 101q-22 0 -50.5 -27.5t-54.5 -76.5l-12 10q28 73 72 110t95 37q119 0 95 -169l-7 -49h98q14 101 82.5 168t164.5 67q81 0 125 -46q19 -2 32 -17t18 -32t14 -31t23 -14q13 0 35 19t43 42.5
t52.5 42.5t63.5 19q47 0 70 -30.5t23 -76.5q0 -41 -21.5 -112t-21.5 -110q0 -59 43 -59q25 0 51 20.5t45.5 47t47 54t53.5 37.5l23 166q9 64 71 64q46 0 46 -32l-40 -280q-10 -109 39 -109q44 0 79 67l14 -7q-16 -54 -67.5 -103t-128.5 -70q40 -8 67 -29.5t66 -70.5
q1 -2 6.5 -8.5t7 -8.5t6 -7.5t6.5 -7.5l6.5 -6.5t7 -6t7 -4t7.5 -3.5t7.5 -2t8.5 -1q44 0 72 68l11 -6q-31 -151 -137 -151q-39 0 -67 24t-43 58t-28 68t-32 58t-45 24q-22 0 -43.5 -23.5t-44.5 -47t-46 -23.5q-17 0 -29 13t-12 32q0 21 12 35t35.5 20.5t43 9t48.5 3.5t39 2
q113 13 191 88q-33 -27 -78 -27q-60 1 -82.5 46.5t-14.5 104.5zM762 274q0 12 -2 34q-32 6 -54.5 25.5t-22.5 47.5q0 29 20 42q-26 20 -61 20q-73 0 -113.5 -69.5t-40.5 -169.5q0 -79 29.5 -119t77.5 -40q52 0 91.5 37.5t57.5 88.5t18 103z" />
    <glyph glyph-name="u_chh_cyr" unicode="&#x44e;&#x447;" horiz-adv-x="1497" 
d="M558 -9q-51 0 -90.5 18.5t-62 49t-34 66.5t-11.5 75q0 13 1 20h-100l-22 -156q-11 -64 -71 -64q-47 0 -47 32l40 276q18 101 -34 101q-22 0 -50.5 -27.5t-54.5 -76.5l-12 10q28 73 72 110t95 37q119 0 95 -169l-7 -49h98q14 101 82.5 168t164.5 67q81 0 125 -46
q19 -1 31.5 -16.5t18 -33t14.5 -31.5t23 -13q17 0 37 19t37.5 42.5t47 42.5t63.5 19q38 0 56 -25.5t18 -60.5q0 -27 -13.5 -77t-13.5 -80q0 -45 33 -45q23 0 48 22.5t55.5 51.5t63.5 39l20 112q11 64 73 64q13 0 21.5 -1.5t16 -9.5t7.5 -21l-50 -280q-12 -88 40 -88
q47 0 96 92l14 -6q-54 -150 -165 -150q-58 0 -82.5 43.5t-13.5 107.5l19 113q-25 -11 -53 -38.5t-48 -52t-53 -44t-71 -19.5q-43 0 -64 28t-21 64q0 27 16 80.5t16 82.5q0 39 -23 39q-18 -1 -43 -25t-56 -48t-63 -24q2 -24 2 -37q0 -111 -64 -194.5t-167 -83.5zM762 274
q0 12 -2 34q-33 6 -55 24.5t-22 48.5q0 28 19 42q-26 20 -60 20q-73 0 -113.5 -69.5t-40.5 -169.5q0 -79 29.5 -119t77.5 -40q52 0 91.5 37.5t57.5 88.5t18 103z" />
    <glyph glyph-name="u_sh_cyr" unicode="&#x44e;&#x448;" horiz-adv-x="1869" 
d="M558 -9q-51 0 -90.5 18.5t-62 49t-34 66.5t-11.5 75q0 13 1 20h-100l-22 -156q-11 -64 -71 -64q-47 0 -47 32l40 276q18 101 -34 101q-22 0 -50.5 -27.5t-54.5 -76.5l-12 10q28 73 72 110t95 37q119 0 95 -169l-7 -49h98q14 101 82.5 168t164.5 67q81 0 125 -46
q19 -2 32 -17t18 -32t14 -31t23 -14q13 0 35 19t43 42.5t52.5 42.5t63.5 19q48 0 71 -32.5t23 -78.5q-1 -37 -22.5 -108t-21.5 -110q0 -59 43 -59q30 0 60 29.5t63.5 69.5t61.5 55l23 171q9 64 71 64q46 0 46 -32l-35 -253q-1 -22 -2.5 -44.5t8.5 -40t33 -18.5
q34 -2 63 24.5t58.5 66.5t53.5 56l24 177q9 64 71 64q46 0 46 -32l-40 -280q-10 -88 43 -88q46 0 93 92l14 -6q-49 -150 -160 -150q-57 0 -83.5 43.5t-17.5 107.5l5 41q-15 -16 -41 -55t-46 -67t-57 -50t-80 -20q-61 3 -85.5 55t-9.5 139l1 6q-19 -16 -47 -53t-50.5 -67.5
t-59 -55t-76.5 -24.5q-45 0 -74 33.5t-29 86.5q0 48 24 124.5t24 107.5q0 58 -37 58q-20 0 -47.5 -24.5t-61.5 -50.5t-69 -28q2 -24 2 -37q0 -111 -64 -194.5t-167 -83.5zM762 274q0 12 -2 34q-32 6 -54.5 25.5t-22.5 47.5q0 29 20 42q-26 20 -61 20q-73 0 -113.5 -69.5
t-40.5 -169.5q0 -79 29.5 -119t77.5 -40q52 0 91.5 37.5t57.5 88.5t18 103z" />
    <glyph glyph-name="u_she_cyr" unicode="&#x44e;&#x449;" horiz-adv-x="1851" 
d="M558 -9q-51 0 -90.5 18.5t-62 49t-34 66.5t-11.5 75q0 13 1 20h-100l-22 -156q-11 -64 -71 -64q-47 0 -47 32l40 276q18 101 -34 101q-22 0 -50.5 -27.5t-54.5 -76.5l-12 10q28 73 72 110t95 37q119 0 95 -169l-7 -49h98q14 101 82.5 168t164.5 67q81 0 125 -46
q19 -2 32 -17t18 -32t14 -31t23 -14q13 0 35 19t43 42.5t52.5 42.5t63.5 19q48 0 71 -32.5t23 -78.5q-1 -37 -22.5 -108t-21.5 -110q0 -59 43 -59q30 0 60 29.5t63.5 69.5t61.5 55l23 171q9 64 71 64q46 0 46 -32l-35 -253q-1 -22 -2.5 -44.5t8.5 -40t33 -18.5
q34 -2 63 24.5t58.5 66.5t53.5 56l24 177q9 64 71 64q46 0 46 -32l-40 -280q-10 -109 39 -109q44 0 79 67l14 -7q-43 -133 -204 -172q45 -8 74.5 -29.5t71.5 -71.5q2 -3 9.5 -12l10 -12t9 -9.5t10 -9t9.5 -6.5t12 -5t13 -1q52 0 81 68l13 -6q-44 -151 -158 -151
q-40 1 -68.5 25t-44.5 58.5t-29.5 68.5t-34.5 57.5t-51 23.5q-25 0 -46.5 -24t-43 -47.5t-46.5 -23.5q-17 0 -29 13t-12 32q0 23 13 37.5t37 20t47 7.5t54 3t48 4q131 18 198 95q-43 -36 -89 -36q-58 0 -81.5 47.5t-15.5 103.5l5 41q-15 -16 -41 -55t-46 -67t-57 -50
t-80 -20q-61 3 -85.5 55t-9.5 139l1 6q-19 -16 -47 -53t-50.5 -67.5t-59 -55t-76.5 -24.5q-45 0 -74 33.5t-29 86.5q0 48 24 124.5t24 107.5q0 58 -37 58q-20 0 -47.5 -24.5t-61.5 -50.5t-69 -28q2 -24 2 -37q0 -111 -64 -194.5t-167 -83.5zM762 274q0 12 -2 34
q-32 6 -54.5 25.5t-22.5 47.5q0 29 20 42q-26 20 -61 20q-73 0 -113.5 -69.5t-40.5 -169.5q0 -79 29.5 -119t77.5 -40q52 0 91.5 37.5t57.5 88.5t18 103z" />
    <glyph glyph-name="u_ee_cyr" unicode="&#x44e;&#x44b;" horiz-adv-x="1672" 
d="M1089 380q0 -20 -3.5 -41t-13 -58t-11.5 -48q28 44 71.5 70t92.5 26q62 0 103 -38t41 -94q0 -86 -74.5 -145.5t-177.5 -59.5q-180 0 -180 140q0 16 1 29.5t5 34t7 34t11.5 50t14.5 62.5q7 14 3.5 41t-24.5 27q-15 0 -33.5 -15.5t-35 -34.5t-43 -35.5t-55.5 -18.5h-1
q2 -24 2 -37q0 -111 -64 -194.5t-167 -83.5q-51 0 -90.5 18.5t-62 49t-34 66.5t-11.5 75q0 13 1 20h-100l-22 -156q-11 -64 -71 -64q-47 0 -47 32l40 276q18 101 -34 101q-22 0 -50.5 -27.5t-54.5 -76.5l-12 10q28 73 72 110t95 37q119 0 95 -169l-7 -49h98q14 101 82.5 168
t164.5 67q81 0 125 -46q20 -2 33 -17t17.5 -32t15 -31t26.5 -14q15 2 35 21.5t37 42t44 41t56 18.5q46 0 68 -24.5t22 -57.5zM762 274q0 12 -2 34q-33 7 -55 25.5t-22 47.5t20 42q-26 20 -61 20q-73 0 -113.5 -69.5t-40.5 -169.5q0 -79 29.5 -119t77.5 -40q52 0 91.5 37.5
t57.5 88.5t18 103zM1557 431l-40 -280q-10 -88 43 -88q46 0 93 92l14 -6q-49 -150 -160 -150q-57 0 -83.5 43.5t-17.5 107.5l34 249q9 64 71 64q46 0 46 -32zM1195 292q-45 0 -87.5 -38.5t-59.5 -86.5q-4 -27 -4 -61q0 -89 68 -89q65 0 102 61.5t37 132.5q0 81 -56 81z" />
    <glyph glyph-name="u_ea_cyr" unicode="&#x44e;&#x44c;" horiz-adv-x="1399" 
d="M1089 380q0 -20 -3.5 -41t-13 -58t-11.5 -48q28 44 71.5 70t92.5 26q62 0 103 -38t41 -94q0 -86 -74.5 -145.5t-177.5 -59.5q-180 0 -180 140q0 16 1 29.5t5 34t7 34t11.5 50t14.5 62.5q7 14 3.5 41t-24.5 27q-15 0 -33.5 -15.5t-35 -34.5t-43 -35.5t-55.5 -18.5h-1
q2 -24 2 -37q0 -111 -64 -194.5t-167 -83.5q-51 0 -90.5 18.5t-62 49t-34 66.5t-11.5 75q0 13 1 20h-100l-22 -156q-11 -64 -71 -64q-47 0 -47 32l40 276q18 101 -34 101q-22 0 -50.5 -27.5t-54.5 -76.5l-12 10q28 73 72 110t95 37q119 0 95 -169l-7 -49h98q14 101 82.5 168
t164.5 67q81 0 125 -46q20 -2 33 -17t17.5 -32t15 -31t26.5 -14q15 2 35 21.5t37 42t44 41t56 18.5q46 0 68 -24.5t22 -57.5zM762 274q0 12 -2 34q-33 7 -55 25.5t-22 47.5t20 42q-26 20 -61 20q-73 0 -113.5 -69.5t-40.5 -169.5q0 -79 29.5 -119t77.5 -40q52 0 91.5 37.5
t57.5 88.5t18 103zM1195 292q-45 0 -87.5 -38.5t-59.5 -86.5q-4 -27 -4 -61q0 -89 68 -89q65 0 102 61.5t37 132.5q0 81 -56 81z" />
    <glyph glyph-name="u_u_cyr" unicode="&#x44e;&#x44e;" horiz-adv-x="1686" 
d="M1097 220l-22 -156q-11 -64 -71 -64q-47 0 -47 32l40 276q13 98 -30 101q-21 0 -48.5 -24.5t-62 -50.5t-69.5 -28q2 -24 2 -37q0 -111 -64 -194.5t-167 -83.5q-51 0 -90.5 18.5t-62 49t-34 66.5t-11.5 75q0 13 1 20h-100l-22 -156q-11 -64 -71 -64q-47 0 -47 32l40 276
q18 101 -34 101q-22 0 -50.5 -27.5t-54.5 -76.5l-12 10q28 73 72 110t95 37q119 0 95 -169l-7 -49h98q14 101 82.5 168t164.5 67q81 0 125 -46q19 -2 32 -17t18 -32t14 -31t23 -14t36 19t43.5 42.5t54.5 42.5t66 19q111 0 89 -148l-10 -70h98q14 101 82.5 168t164.5 67
q77 0 124 -45q17 -5 28.5 -25.5t21.5 -37.5t23 -17q23 0 39 28.5t19 56.5l15 -6q-5 -51 -30.5 -81t-63.5 -36q3 -23 3 -47q0 -111 -64 -194.5t-167 -83.5q-51 0 -90.5 18.5t-62 49t-34 66.5t-11.5 75q0 13 1 20h-100zM762 274q0 12 -2 34q-32 6 -54.5 25.5t-22.5 47.5
q0 29 20 42q-26 20 -61 20q-73 0 -113.5 -69.5t-40.5 -169.5q0 -79 29.5 -119t77.5 -40q52 0 91.5 37.5t57.5 88.5t18 103zM1598 274q0 20 -3 40q-36 1 -64 19.5t-28 47.5q0 30 28 47q-22 15 -53 15q-73 0 -113.5 -69.5t-40.5 -169.5q0 -79 29.5 -119t77.5 -40
q52 0 91.5 37.5t57.5 88.5t18 103z" />
    <glyph glyph-name="ll" unicode="ll" horiz-adv-x="760" 
d="M704 726q-71 0 -95 -85q42 -30 92 -30q33 0 48.5 16.5t15.5 40.5q0 23 -16.5 40.5t-44.5 17.5zM78 142l51 401q26 204 227 204q49 0 86 -13t94 -46q48 60 163 58q58 -1 90.5 -25t30.5 -59q-2 -31 -28 -53t-80 -22q-45 0 -109 30q-6 -21 -11 -63l-50 -417q-9 -73 44 -73
q49 0 97 96l13 -6q-24 -71 -62.5 -113t-101.5 -42q-57 0 -83.5 42t-19.5 101l51 401q11 79 39 123q-79 53 -141 53q-117 0 -138 -172l-49 -410q-9 -73 44 -73q49 0 97 96l13 -6q-24 -71 -62.5 -113t-101.5 -42q-57 0 -83.5 42t-19.5 101z" />
    <glyph glyph-name="fj" unicode="fj" horiz-adv-x="663" 
d="M240 384l-52 -413q74 25 112 67l10 -12q-35 -52 -125 -82q-7 -56 -18.5 -98t-34 -80t-61.5 -59t-93 -22q-51 0 -82.5 31.5t-31.5 77.5q0 29 12.5 52t28.5 36.5t49 26t54.5 17.5l64.5 15l56 443h-74l8 27h69q24 174 96 254.5t233 80.5q29 0 59.5 -7.5t60 -23.5t48.5 -46.5
t19 -70.5q0 -37 -21 -63t-52 -26q-23 0 -39 16.5t-16 38.5q0 16 11.5 26t25.5 14t25.5 12.5t11.5 21.5q0 38 -33 62t-87 24q-51 0 -90.5 -20.5t-62.5 -49t-40 -75.5t-24 -82t-14 -86h146q102 0 190 49q6 3 11 3q8 0 14.5 -6.5t6.5 -15.5l-67 -528q-14 -107 -52.5 -167.5
t-119.5 -60.5q-100 3 -108 139l17 4q15 -99 68 -99q20 0 34.5 15t24 44t14.5 55t10 65l63 486q-31 -8 -103 -10h-152zM70 -86q-43 -9 -67.5 -16t-52.5 -20t-41 -31.5t-13 -44.5q0 -31 21 -52t49 -21q23 0 41.5 13.5t28.5 30t17.5 46t10 44.5t5.5 43q1 5 1 8z" />
    <glyph glyph-name="py" unicode="py" horiz-adv-x="1294" 
d="M107 -142l60 476l2 32t-7 27.5t-25 11.5q-30 0 -61.5 -29.5t-48.5 -63.5l-12 10q30 69 75.5 104.5t92.5 35.5q55 0 77.5 -44.5t15.5 -99.5q34 71 84.5 115.5t113.5 44.5q75 0 122 -52t47 -135q0 -138 -74 -218.5t-194 -80.5q-80 0 -135 45l-21 -173q-12 -108 36 -115
q22 -3 47 19t44 61l14 -6q-21 -61 -62 -99.5t-101 -38.5q-40 0 -62.5 29t-27.5 65.5t0 78.5zM359 27q42 0 74 26t49 67t25 82.5t8 79.5q0 55 -18.5 97t-64.5 42q-52 0 -94.5 -52t-70.5 -119l-23 -187q58 -36 115 -36zM904 134q0 -60 43 -60q25 0 50.5 20.5t44.5 46t46 53
t53 38.5l26 167q9 64 71 64q44 0 44 -32l-71 -461q87 27 115 84l11 -10q-22 -72 -129 -101q-16 -121 -69.5 -189.5t-146.5 -68.5q-60 0 -105 33t-45 87q0 30 12.5 52.5t33.5 36t50 22.5t61.5 15t67.5 11q20 3 30 4l40 260q-18 -12 -39.5 -38.5t-41.5 -54t-43 -54
t-53.5 -43.5t-64.5 -17q-45 0 -74 34t-29 88q0 47 24 123t24 107q0 57 -41 57q-52 0 -107 -103l-12 10q28 73 72 110t95 37q50 0 75.5 -28.5t25.5 -74.5q0 -40 -22 -113.5t-22 -111.5zM872 -188q0 -36 27 -58.5t62 -22.5q59 0 89 52.5t44 136.5q-125 -18 -162 -33
q-60 -25 -60 -75z" />
    <glyph glyph-name="yp" unicode="yp" horiz-adv-x="1339" 
d="M753 -142l60 476l2 32t-7 27.5t-25 11.5q-30 0 -61.5 -29.5t-48.5 -63.5l-12 10q30 69 75.5 104.5t92.5 35.5q55 0 77.5 -44.5t15.5 -99.5q34 71 84.5 115.5t113.5 44.5q75 0 122 -52t47 -135q0 -138 -74 -218.5t-194 -80.5q-80 0 -135 45l-21 -173q-12 -108 36 -115
q22 -3 47 19t44 61l14 -6q-21 -61 -62 -99.5t-101 -38.5q-40 0 -62.5 29t-27.5 65.5t0 78.5zM1005 27q42 0 74 26t49 67t25 82.5t8 79.5q0 55 -18.5 97t-64.5 42q-52 0 -94.5 -52t-70.5 -119l-23 -187q58 -36 115 -36zM234 134q0 -60 43 -60q25 0 50.5 20.5t44.5 46t46 53
t53 38.5l26 167q9 64 71 64q44 0 44 -32l-71 -461q87 27 115 84l11 -10q-22 -72 -129 -101q-16 -121 -69.5 -189.5t-146.5 -68.5q-60 0 -105 33t-45 87q0 30 12.5 52.5t33.5 36t50 22.5t61.5 15t67.5 11q20 3 30 4l40 260q-18 -12 -39.5 -38.5t-41.5 -54t-43 -54
t-53.5 -43.5t-64.5 -17q-45 0 -74 34t-29 88q0 47 24 123t24 107q0 57 -41 57q-52 0 -107 -103l-12 10q28 73 72 110t95 37q50 0 75.5 -28.5t25.5 -74.5q0 -40 -22 -113.5t-22 -111.5zM202 -188q0 -36 27 -58.5t62 -22.5q59 0 89 52.5t44 136.5q-125 -18 -162 -33
q-60 -25 -60 -75z" />
    <glyph glyph-name="p_y_cyr" unicode="&#x440;&#x443;" horiz-adv-x="1294" 
d="M107 -142l60 476l2 32t-7 27.5t-25 11.5q-30 0 -61.5 -29.5t-48.5 -63.5l-12 10q30 69 75.5 104.5t92.5 35.5q55 0 77.5 -44.5t15.5 -99.5q34 71 84.5 115.5t113.5 44.5q75 0 122 -52t47 -135q0 -138 -74 -218.5t-194 -80.5q-80 0 -135 45l-21 -173q-12 -108 36 -115
q22 -3 47 19t44 61l14 -6q-21 -61 -62 -99.5t-101 -38.5q-40 0 -62.5 29t-27.5 65.5t0 78.5zM359 27q42 0 74 26t49 67t25 82.5t8 79.5q0 55 -18.5 97t-64.5 42q-52 0 -94.5 -52t-70.5 -119l-23 -187q58 -36 115 -36zM904 134q0 -60 43 -60q25 0 50.5 20.5t44.5 46t46 53
t53 38.5l26 167q9 64 71 64q44 0 44 -32l-71 -461q87 27 115 84l11 -10q-22 -72 -129 -101q-16 -121 -69.5 -189.5t-146.5 -68.5q-60 0 -105 33t-45 87q0 30 12.5 52.5t33.5 36t50 22.5t61.5 15t67.5 11q20 3 30 4l40 260q-18 -12 -39.5 -38.5t-41.5 -54t-43 -54
t-53.5 -43.5t-64.5 -17q-45 0 -74 34t-29 88q0 47 24 123t24 107q0 57 -41 57q-52 0 -107 -103l-12 10q28 73 72 110t95 37q50 0 75.5 -28.5t25.5 -74.5q0 -40 -22 -113.5t-22 -111.5zM872 -188q0 -36 27 -58.5t62 -22.5q59 0 89 52.5t44 136.5q-125 -18 -162 -33
q-60 -25 -60 -75z" />
    <glyph glyph-name="y_p_cyr" unicode="&#x443;&#x440;" horiz-adv-x="1339" 
d="M753 -142l60 476l2 32t-7 27.5t-25 11.5q-30 0 -61.5 -29.5t-48.5 -63.5l-12 10q30 69 75.5 104.5t92.5 35.5q55 0 77.5 -44.5t15.5 -99.5q34 71 84.5 115.5t113.5 44.5q75 0 122 -52t47 -135q0 -138 -74 -218.5t-194 -80.5q-80 0 -135 45l-21 -173q-12 -108 36 -115
q22 -3 47 19t44 61l14 -6q-21 -61 -62 -99.5t-101 -38.5q-40 0 -62.5 29t-27.5 65.5t0 78.5zM1005 27q42 0 74 26t49 67t25 82.5t8 79.5q0 55 -18.5 97t-64.5 42q-52 0 -94.5 -52t-70.5 -119l-23 -187q58 -36 115 -36zM234 134q0 -60 43 -60q25 0 50.5 20.5t44.5 46t46 53
t53 38.5l26 167q9 64 71 64q44 0 44 -32l-71 -461q87 27 115 84l11 -10q-22 -72 -129 -101q-16 -121 -69.5 -189.5t-146.5 -68.5q-60 0 -105 33t-45 87q0 30 12.5 52.5t33.5 36t50 22.5t61.5 15t67.5 11q20 3 30 4l40 260q-18 -12 -39.5 -38.5t-41.5 -54t-43 -54
t-53.5 -43.5t-64.5 -17q-45 0 -74 34t-29 88q0 47 24 123t24 107q0 57 -41 57q-52 0 -107 -103l-12 10q28 73 72 110t95 37q50 0 75.5 -28.5t25.5 -74.5q0 -40 -22 -113.5t-22 -111.5zM202 -188q0 -36 27 -58.5t62 -22.5q59 0 89 52.5t44 136.5q-125 -18 -162 -33
q-60 -25 -60 -75z" />
    <glyph glyph-name="Qf" unicode="Qf" horiz-adv-x="1197" 
d="M824 -86q-43 -9 -67.5 -16t-52.5 -20t-41 -31.5t-13 -44.5q0 -31 21 -52t49 -21q23 0 41.5 13.5t28.5 30t17.5 46t10 44.5t5.5 43q1 5 1 8zM827 -59l68 537q16 135 68 201.5t154 66.5q75 0 112.5 -29.5t37.5 -76.5q0 -56 -49.5 -92t-107.5 -36q-13 0 -25 3v20q36 6 62 44
t26 80q0 29 -12.5 48.5t-38.5 19.5q-39 0 -66 -47.5t-48 -185.5l-19 -148q67 9 118.5 48.5t56.5 74.5l12 -3q10 -16 10 -40q0 -99 -180 -99h-19l-45 -356q74 25 112 67l10 -12q-35 -52 -125 -82q-7 -56 -18.5 -98t-34 -80t-61.5 -59t-93 -22q-51 0 -82.5 31.5t-31.5 77.5
q0 29 12.5 52t28.5 36.5t49 26t54.5 17.5zM774 -356l19 3q0 -60 -38.5 -97.5t-102.5 -37.5q-54 0 -99 35.5t-77 95t-55 118.5t-47 127t-39 98q-67 -19 -114 -19q-44 0 -78 17t-34 50q0 34 33.5 49.5t80.5 15.5q87 0 158 -57q91 61 148.5 180t57.5 260q0 100 -41.5 170.5
t-128.5 70.5q-83 0 -143.5 -48.5t-90 -127t-29.5 -176.5q0 -74 26 -124.5t81 -50.5t84.5 47t29.5 105q0 49 -17.5 88.5t-53.5 39.5q-8 0 -12 -1l-3 16q24 10 53 10q51 0 86.5 -35t35.5 -98q0 -89 -63.5 -142.5t-156.5 -53.5q-107 0 -160.5 65t-53.5 153q0 148 104.5 251
t267.5 103q80 0 141.5 -25.5t97 -69t53.5 -94.5t18 -108q0 -144 -88 -259t-214 -174q27 -31 58 -88.5t56.5 -113t53.5 -108.5t60.5 -85.5t66.5 -32.5q25 0 45 15t24 43zM320 10q-38 66 -111 66q-21 0 -36 -10.5t-15 -29.5q0 -41 69 -41t93 15z" />
    <glyph glyph-name="Qj" unicode="Qj" horiz-adv-x="1099" 
d="M774 -356l19 3q0 -60 -38.5 -97.5t-102.5 -37.5q-54 0 -99 35.5t-77 95t-55 118.5t-47 127t-39 98q-67 -19 -114 -19q-44 0 -78 17t-34 50q0 34 33.5 49.5t80.5 15.5q87 0 158 -57q91 61 148.5 180t57.5 260q0 100 -41.5 170.5t-128.5 70.5q-83 0 -143.5 -48.5t-90 -127
t-29.5 -176.5q0 -74 26 -124.5t81 -50.5t84.5 47t29.5 105q0 49 -17.5 88.5t-53.5 39.5q-8 0 -12 -1l-3 16q24 10 53 10q51 0 86.5 -35t35.5 -98q0 -89 -63.5 -142.5t-156.5 -53.5q-107 0 -160.5 65t-53.5 153q0 148 104.5 251t267.5 103q80 0 141.5 -25.5t97 -69
t53.5 -94.5t18 -108q0 -144 -88 -259t-214 -174q27 -31 58 -88.5t56.5 -113t53.5 -108.5t60.5 -85.5t66.5 -32.5q25 0 45 15t24 43zM320 10q-38 66 -111 66q-21 0 -36 -10.5t-15 -29.5q0 -41 69 -41t93 15zM723 -271q27 1 45.5 16.5t29 47t15 55t10.5 66.5
q-34 -7 -54.5 -12.5t-46 -15t-39.5 -20t-24 -27t-10 -37.5q0 -31 20.5 -52t53.5 -21zM1020 549q0 10 -11.5 18t-25 12.5t-25 15.5t-11.5 28q0 20 21 35.5t45 15.5q25 0 43 -18t18 -52q0 -36 -21.5 -62t-51 -46.5t-37.5 -33.5q33 -4 33 -31l-55 -460q74 26 110 67l10 -12
q-35 -53 -124 -82q-26 -255 -207 -259q-51 0 -82.5 31.5t-31.5 77.5q0 29 12.5 52t28.5 36.5t49 26t54.5 17.5l64.5 15l56 458q7 59 60 64q11 18 44.5 43.5t33.5 42.5z" />
    <glyph glyph-name="Qp" unicode="Qp" horiz-adv-x="1447" 
d="M854 -111q-27 4 -59 4q-61 0 -102.5 -21t-41.5 -66q0 -35 24.5 -55t55.5 -20q97 0 123 158zM764 -315q-66 0 -104.5 32t-38.5 82q0 45 26 73t60.5 37t77.5 9q25 0 73 -4l53 420l2 32t-7 27.5t-25 11.5q-30 0 -61.5 -29.5t-48.5 -63.5l-12 10q30 69 75.5 104.5t92.5 35.5
q55 0 77.5 -44.5t15.5 -99.5q34 71 84.5 115.5t113.5 44.5q75 0 122 -52t47 -135q0 -138 -74 -218.5t-194 -80.5q-80 0 -135 45l-17 -132q70 2 105 25l11 -10q-34 -39 -119 -41q-13 -80 -63.5 -137t-136.5 -57zM1103 27q42 0 74 26t49 67t25 82.5t8 79.5q0 55 -18.5 97
t-64.5 42q-52 0 -94.5 -52t-70.5 -119l-23 -187q58 -36 115 -36zM774 -356l19 3q0 -60 -38.5 -97.5t-102.5 -37.5q-54 0 -99 35.5t-77 95t-55 118.5t-47 127t-39 98q-67 -19 -114 -19q-44 0 -78 17t-34 50q0 34 33.5 49.5t80.5 15.5q87 0 158 -57q91 61 148.5 180t57.5 260
q0 100 -41.5 170.5t-128.5 70.5q-83 0 -143.5 -48.5t-90 -127t-29.5 -176.5q0 -74 26 -124.5t81 -50.5t84.5 47t29.5 105q0 49 -17.5 88.5t-53.5 39.5q-8 0 -12 -1l-3 16q24 10 53 10q51 0 86.5 -35t35.5 -98q0 -89 -63.5 -142.5t-156.5 -53.5q-107 0 -160.5 65t-53.5 153
q0 148 104.5 251t267.5 103q80 0 141.5 -25.5t97 -69t53.5 -94.5t18 -108q0 -144 -88 -259t-214 -174q27 -31 58 -88.5t56.5 -113t53.5 -108.5t60.5 -85.5t66.5 -32.5q25 0 45 15t24 43zM320 10q-38 66 -111 66q-21 0 -36 -10.5t-15 -29.5q0 -41 69 -41t93 15z" />
    <glyph glyph-name="Qz" unicode="Q&#x7a;" horiz-adv-x="1181" 
d="M989 -48q2 22 2 40q0 54 -15 95q-42 -14 -87 -14q-47 0 -72 16.5t-25 39.5q0 26 26 40t57 14q68 0 122 -30q55 54 55 175q0 126 -100 126q-42 0 -72 -31t-30 -78q0 -31 14.5 -53t42.5 -23l1 -15q-26 -9 -48 -9q-42 0 -71 26t-29 68q0 66 55.5 102.5t144.5 36.5
q91 0 144 -50.5t53 -124.5q0 -55 -31 -103.5t-83 -81.5q58 -56 66 -138q79 29 104 81l11 -10q-21 -65 -114 -97q0 -115 -74 -192t-183 -77q-64 0 -107 30t-43 89q0 31 16.5 55t38 38t59 25t61 14.5t63.5 9t48 6.5zM873 162q-54 0 -54 -30q0 -16 16 -25.5t41 -9.5q45 0 83 22
q-31 43 -86 43zM985 -73q-12 -2 -41 -6.5t-42 -6.5t-37.5 -6.5t-37 -8.5t-31 -10.5t-27.5 -13.5t-19 -16.5t-14 -21t-4 -25.5q0 -39 26.5 -59t59.5 -20q72 0 113.5 57t53.5 137zM774 -356l19 3q0 -60 -38.5 -97.5t-102.5 -37.5q-54 0 -99 35.5t-77 95t-55 118.5t-47 127
t-39 98q-67 -19 -114 -19q-44 0 -78 17t-34 50q0 34 33.5 49.5t80.5 15.5q87 0 158 -57q91 61 148.5 180t57.5 260q0 100 -41.5 170.5t-128.5 70.5q-83 0 -143.5 -48.5t-90 -127t-29.5 -176.5q0 -74 26 -124.5t81 -50.5t84.5 47t29.5 105q0 49 -17.5 88.5t-53.5 39.5
q-8 0 -12 -1l-3 16q24 10 53 10q51 0 86.5 -35t35.5 -98q0 -89 -63.5 -142.5t-156.5 -53.5q-107 0 -160.5 65t-53.5 153q0 148 104.5 251t267.5 103q80 0 141.5 -25.5t97 -69t53.5 -94.5t18 -108q0 -144 -88 -259t-214 -174q27 -31 58 -88.5t56.5 -113t53.5 -108.5
t60.5 -85.5t66.5 -32.5q25 0 45 15t24 43zM320 10q-38 66 -111 66q-21 0 -36 -10.5t-15 -29.5q0 -41 69 -41t93 15z" />
    <glyph glyph-name="qf" unicode="qf" horiz-adv-x="1092" 
d="M719 -86q-82 -18 -122.5 -42t-40.5 -73q0 -32 16 -51t43 -19q23 0 41.5 13.5t28.5 30t17.5 46t10 44.5t5.5 43q1 5 1 8zM570 431l-85 -682q-11 -64 -71 -64q-45 0 -45 31l58 458q-34 -78 -94 -130t-126 -52q-78 0 -117.5 49t-39.5 124q0 130 79.5 221.5t186.5 91.5
q80 0 143 -58q15 43 67 43q44 0 44 -32zM356 435q-76 0 -127 -76.5t-51 -185.5q0 -52 19 -87.5t59 -35.5q59 0 112 75.5t72 152.5l14 115q-43 42 -98 42zM722 -59l68 537q16 135 68 201.5t154 66.5q75 0 112.5 -29.5t37.5 -76.5q0 -56 -49.5 -92t-107.5 -36q-13 0 -25 3v20
q36 6 62 44t26 80q0 29 -12.5 48.5t-38.5 19.5q-39 0 -66 -47.5t-48 -185.5l-19 -148q67 9 118.5 48.5t56.5 74.5l12 -3q10 -16 10 -40q0 -99 -180 -99h-19l-45 -356q74 25 112 67l10 -12q-35 -52 -125 -82q-7 -56 -18.5 -98t-34 -80t-61.5 -59t-93 -22q-50 0 -76.5 29.5
t-26.5 76.5q0 29 11 52t26.5 37.5t44.5 26.5t53 18.5t63 15.5z" />
    <glyph glyph-name="qj" unicode="qj" horiz-adv-x="999" 
d="M570 431l-85 -682q-11 -64 -71 -64q-45 0 -45 31l58 458q-34 -78 -94 -130t-126 -52q-78 0 -117.5 49t-39.5 124q0 130 79.5 221.5t186.5 91.5q80 0 143 -58q15 43 67 43q44 0 44 -32zM356 435q-76 0 -127 -76.5t-51 -185.5q0 -52 19 -87.5t59 -35.5q59 0 112 75.5
t72 152.5l14 115q-43 42 -98 42zM623 -271q27 1 45.5 16.5t29 47t15 55t10.5 66.5q-34 -7 -54.5 -12.5t-46 -15t-39.5 -20t-24 -27t-10 -37.5q0 -31 20.5 -52t53.5 -21zM920 549q0 10 -11.5 18t-25 12.5t-25 15.5t-11.5 28q0 20 21 35.5t45 15.5q25 0 43 -18t18 -52
q0 -36 -21.5 -62t-51 -46.5t-37.5 -33.5q33 -4 33 -31l-55 -460q74 26 110 67l10 -12q-35 -53 -124 -82q-26 -255 -207 -259q-51 0 -82.5 31.5t-31.5 77.5q0 29 12.5 52t28.5 36.5t49 26t54.5 17.5l64.5 15l56 458q7 59 60 64q11 18 44.5 43.5t33.5 42.5z" />
    <glyph glyph-name="qp" unicode="qp" horiz-adv-x="1319" 
d="M736 -111q-27 4 -59 4q-60 0 -99 -21t-39 -67q0 -30 20 -52t54 -22q97 0 123 158zM570 431l-85 -682q-11 -64 -71 -64q-45 0 -45 31l58 458q-34 -78 -94 -130t-126 -52q-78 0 -117.5 49t-39.5 124q0 130 79.5 221.5t186.5 91.5q80 0 143 -58q15 43 67 43q44 0 44 -32z
M356 435q-76 0 -127 -76.5t-51 -185.5q0 -52 19 -87.5t59 -35.5q59 0 112 75.5t72 152.5l14 115q-43 42 -98 42zM985 27q42 0 74 26t49 67t25 82.5t8 79.5q0 55 -18.5 97t-64.5 42q-52 0 -94.5 -52t-70.5 -119l-23 -187q58 -36 115 -36zM902 318q34 71 84.5 115.5
t113.5 44.5q75 0 122 -52t47 -135q0 -138 -74 -218.5t-194 -80.5q-80 0 -135 45l-17 -132q70 2 105 25l11 -10q-34 -39 -119 -41q-13 -80 -63.5 -137t-136.5 -57q-65 0 -100.5 32t-35.5 84q0 57 44 87t113 30q25 0 73 -4l53 420l2 32t-7 27.5t-25 11.5q-30 0 -61.5 -29.5
t-48.5 -63.5l-12 10q30 69 75.5 104.5t92.5 35.5q55 0 77.5 -44.5t15.5 -99.5z" />
    <glyph glyph-name="c_p_cyr" unicode="&#x446;&#x440;" horiz-adv-x="1391" 
d="M640 28q-35 -29 -80 -29q-60 1 -82.5 46.5t-14.5 104.5l8 58q-22 -13 -51 -49.5t-52.5 -70.5t-62 -61.5t-80.5 -27.5q-45 0 -74 34t-29 88q0 47 24 123t24 107q0 57 -41 57q-52 0 -107 -103l-12 10q28 73 72 110t95 37q50 0 75.5 -28.5t25.5 -74.5q0 -40 -22 -113.5
t-22 -111.5q0 -60 43 -60q25 0 51 20.5t45.5 47t47 54t53.5 37.5l23 166q9 64 71 64q46 0 46 -32l-40 -280q-10 -109 39 -109q44 0 79 67l14 -7q-19 -65 -75 -109.5t-129 -63.5q40 -11 84.5 -48.5t71.5 -71t64.5 -86t43.5 -60.5q1 -2 6.5 -8.5t7 -8.5t6 -7.5t6.5 -7.5
l6.5 -6.5t7 -6t7 -4t7.5 -3.5t7.5 -2t8.5 -1q39 0 61 34l12 -7q-35 -113 -118 -113q-44 0 -87 40.5t-76.5 99t-64 116.5t-61.5 98.5t-58 40.5q-22 0 -43.5 -23.5t-44.5 -47t-46 -23.5q-17 0 -29 13t-12 32q0 21 12 35t35.5 20.5t43 9t48.5 3.5t39 2q116 13 193 90zM805 -142
l60 476l2 32t-7 27.5t-25 11.5q-30 0 -61.5 -29.5t-48.5 -63.5l-12 10q30 69 75.5 104.5t92.5 35.5q55 0 77.5 -44.5t15.5 -99.5q34 71 84.5 115.5t113.5 44.5q75 0 122 -52t47 -135q0 -138 -74 -218.5t-194 -80.5q-80 0 -135 45l-21 -173q-12 -108 36 -115q22 -3 47 19
t44 61l14 -6q-21 -61 -62 -99.5t-101 -38.5q-40 0 -62.5 29t-27.5 65.5t0 78.5zM1057 27q42 0 74 26t49 67t25 82.5t8 79.5q0 55 -18.5 97t-64.5 42q-52 0 -94.5 -52t-70.5 -119l-23 -187q58 -36 115 -36z" />
    <glyph glyph-name="c_z_cyr" unicode="&#x446;&#x437;" horiz-adv-x="1186" 
d="M994 -48q2 22 2 40q0 54 -15 95q-42 -14 -87 -14q-47 0 -72 16.5t-25 39.5q0 26 26 40t57 14q68 0 122 -30q55 54 55 175q0 126 -100 126q-42 0 -72 -31t-30 -78q0 -31 14.5 -53t42.5 -23l1 -15q-26 -9 -48 -9q-42 0 -71 26t-29 68q0 66 55.5 102.5t144.5 36.5
q91 0 144 -50.5t53 -124.5q0 -55 -31 -103.5t-83 -81.5q58 -56 66 -138q79 29 104 81l11 -10q-21 -65 -114 -97q0 -115 -74 -192t-183 -77q-64 0 -107 30t-43 89q0 31 16.5 55t38 38t59 25t61 14.5t63.5 9t48 6.5zM878 162q-54 0 -54 -30q0 -16 16 -25.5t41 -9.5q45 0 83 22
q-31 43 -86 43zM990 -73q-12 -2 -41 -6.5t-42 -6.5t-37.5 -6.5t-37 -8.5t-31 -10.5t-27.5 -13.5t-19 -16.5t-14 -21t-4 -25.5q0 -39 26.5 -59t59.5 -20q72 0 113.5 57t53.5 137zM640 28q-35 -29 -80 -29q-60 1 -82.5 46.5t-14.5 104.5l8 58q-22 -13 -51 -49.5t-52.5 -70.5
t-62 -61.5t-80.5 -27.5q-45 0 -74 34t-29 88q0 47 24 123t24 107q0 57 -41 57q-52 0 -107 -103l-12 10q28 73 72 110t95 37q50 0 75.5 -28.5t25.5 -74.5q0 -40 -22 -113.5t-22 -111.5q0 -60 43 -60q25 0 51 20.5t45.5 47t47 54t53.5 37.5l23 166q9 64 71 64q46 0 46 -32
l-40 -280q-10 -109 39 -109q44 0 79 67l14 -7q-19 -65 -75 -109.5t-129 -63.5q40 -11 84.5 -48.5t71.5 -71t64.5 -86t43.5 -60.5q1 -2 6.5 -8.5t7 -8.5t6 -7.5t6.5 -7.5l6.5 -6.5t7 -6t7 -4t7.5 -3.5t7.5 -2t8.5 -1q39 0 61 34l12 -7q-35 -113 -118 -113q-44 0 -87 40.5
t-76.5 99t-64 116.5t-61.5 98.5t-58 40.5q-22 0 -43.5 -23.5t-44.5 -47t-46 -23.5q-17 0 -29 13t-12 32q0 21 12 35t35.5 20.5t43 9t48.5 3.5t39 2q116 13 193 90z" />
    <glyph glyph-name="sh_z_cyr" unicode="&#x449;&#x437;" horiz-adv-x="1496" 
d="M1000 109l14 -7q-20 -63 -73 -109t-132 -63q1 0 3 -1t3 -1q39 -12 82.5 -49.5t70.5 -71.5t62.5 -84t43.5 -60q1 -2 6.5 -8.5t7 -8.5t6 -7.5t6.5 -7.5l6.5 -6.5t7 -6t7 -4t7.5 -3.5t7.5 -2t8.5 -1q39 0 61 34l12 -7q-35 -113 -118 -113q-39 0 -77 31.5t-69 80.5t-58.5 100
t-56 98.5t-50.5 67.5q-20 18 -47 18q-21 0 -40 -15t-31 -32.5t-30.5 -32.5t-38.5 -15q-17 0 -29 13t-12 32q0 23 13 37.5t37 20t47 7.5t54 3t48 4q131 18 198 95q-43 -36 -89 -36q-58 0 -81 47t-16 104l5 41q-15 -16 -41 -55t-46 -67t-57 -50t-80 -20q-61 3 -85.5 55
t-9.5 139l1 6q-19 -16 -47 -53t-50.5 -67.5t-59 -55t-76.5 -24.5q-45 0 -74 33.5t-29 86.5q0 48 24 124.5t24 107.5q0 57 -41 57q-52 0 -107 -103l-12 10q28 73 72 110t95 37q50 0 75.5 -28.5t25.5 -72.5q0 -41 -22 -115t-22 -113q0 -59 43 -59q30 0 60 29.5t63.5 69.5
t61.5 55l23 171q9 64 71 64q46 0 46 -32l-35 -253q-1 -22 -2.5 -44.5t8.5 -40t33 -18.5q34 -2 63 24.5t58.5 66.5t53.5 56l24 177q9 64 71 64q46 0 46 -32l-40 -280q-10 -109 39 -109q44 0 79 67zM1304 -48q2 22 2 40q0 54 -15 95q-42 -14 -87 -14q-47 0 -72 16.5t-25 39.5
q0 26 26 40t57 14q68 0 122 -30q55 54 55 175q0 126 -100 126q-42 0 -72 -31t-30 -78q0 -31 14.5 -53t42.5 -23l1 -15q-25 -9 -48 -9q-42 0 -71 26t-29 68q0 66 55.5 102.5t144.5 36.5q91 0 144 -50.5t53 -124.5q0 -55 -31 -103.5t-83 -81.5q58 -56 66 -138q79 29 104 81
l11 -10q-21 -65 -114 -97q0 -115 -74 -192t-183 -77q-64 0 -107 30t-43 89q0 31 16.5 55t38 38t59 25t61 14.5t63.5 9t48 6.5zM1188 162q-54 0 -54 -30q0 -16 16 -25.5t41 -9.5q45 0 83 22q-31 43 -86 43zM1300 -73q-12 -2 -41 -6.5t-42 -6.5t-37.5 -6.5t-37 -8.5t-31 -10.5
t-27.5 -13.5t-19 -16.5t-14 -21t-4 -25.5q0 -39 26.5 -59t59.5 -20q72 0 113.5 57t53.5 137z" />
    <glyph glyph-name="sh_p_cyr" unicode="&#x449;&#x440;" horiz-adv-x="1699" 
d="M1000 109l14 -7q-20 -63 -73 -109t-132 -63q1 0 3 -1t3 -1q39 -12 82.5 -49.5t70.5 -71.5t62.5 -84t43.5 -60q1 -2 6.5 -8.5t7 -8.5t6 -7.5t6.5 -7.5l6.5 -6.5t7 -6t7 -4t7.5 -3.5t7.5 -2t8.5 -1q39 0 61 34l12 -7q-35 -113 -118 -113q-39 0 -77 31.5t-69 80.5t-58.5 100
t-56 98.5t-50.5 67.5q-20 18 -47 18q-21 0 -40 -15t-31 -32.5t-30.5 -32.5t-38.5 -15q-17 0 -29 13t-12 32q0 23 13 37.5t37 20t47 7.5t54 3t48 4q131 18 198 95q-43 -36 -89 -36q-58 0 -81 47t-16 104l5 41q-15 -16 -41 -55t-46 -67t-57 -50t-80 -20q-61 3 -85.5 55
t-9.5 139l1 6q-19 -16 -47 -53t-50.5 -67.5t-59 -55t-76.5 -24.5q-45 0 -74 33.5t-29 86.5q0 48 24 124.5t24 107.5q0 57 -41 57q-52 0 -107 -103l-12 10q28 73 72 110t95 37q50 0 75.5 -28.5t25.5 -72.5q0 -41 -22 -115t-22 -113q0 -59 43 -59q30 0 60 29.5t63.5 69.5
t61.5 55l23 171q9 64 71 64q46 0 46 -32l-35 -253q-1 -22 -2.5 -44.5t8.5 -40t33 -18.5q34 -2 63 24.5t58.5 66.5t53.5 56l24 177q9 64 71 64q46 0 46 -32l-40 -280q-10 -109 39 -109q44 0 79 67zM1113 -142l60 476l2 32t-7 27.5t-25 11.5q-30 0 -61.5 -29.5t-48.5 -63.5
l-12 10q30 69 75.5 104.5t92.5 35.5q55 0 77.5 -44.5t15.5 -99.5q34 71 84.5 115.5t113.5 44.5q75 0 122 -52t47 -135q0 -138 -74 -218.5t-194 -80.5q-80 0 -135 45l-21 -173q-12 -108 36 -115q22 -3 47 19t44 61l14 -6q-21 -61 -62 -99.5t-101 -38.5q-40 0 -62.5 29
t-27.5 65.5t0 78.5zM1365 27q42 0 74 26t49 67t25 82.5t8 79.5q0 55 -18.5 97t-64.5 42q-52 0 -94.5 -52t-70.5 -119l-23 -187q58 -36 115 -36z" />
    <glyph glyph-name="o_j_cyr" unicode="&#x43e;&#x439;" horiz-adv-x="1274" 
d="M475 274q0 12 -2 34q-32 6 -54.5 25.5t-22.5 47.5q0 26 18 41q-31 21 -67 21q-77 0 -123 -70t-46 -169q0 -78 34.5 -118.5t85.5 -40.5q81 0 129 73t48 156zM1008 150l8 58q-22 -13 -51 -49.5t-52.5 -70.5t-62 -61.5t-80.5 -27.5q-45 0 -74 33.5t-29 86.5q0 50 23.5 127
t23.5 108q0 53 -36 53q-18 0 -39.5 -15.5t-39 -34t-44.5 -34.5t-55 -17q2 -24 2 -37q0 -111 -67.5 -194.5t-175.5 -83.5q-104 0 -156.5 62t-52.5 147q0 116 75.5 197.5t188.5 81.5q83 0 131 -46q21 -1 34 -15.5t18 -32t14.5 -32t23.5 -14.5q16 0 45.5 30.5t68.5 61.5t80 31
q47 0 70 -30.5t23 -76.5q0 -41 -21.5 -112t-21.5 -110q0 -59 43 -59q25 0 51 20.5t45.5 47t47 54t53.5 37.5l23 166q2 12 4 18q-30 -8 -60 -8q-81 0 -139.5 46.5t-58.5 114.5q0 42 27.5 73t73.5 31q34 0 63 -20.5t40 -58.5l-12 -8q-25 24 -55 24q-33 0 -50.5 -22.5
t-17.5 -54.5q0 -52 39.5 -78t102.5 -26q31 0 57 8q19 25 57 25q46 0 46 -32l-40 -280q-10 -88 43 -88q46 0 93 92l14 -6q-49 -150 -160 -150q-57 0 -83.5 43.5t-17.5 107.5z" />
    <glyph glyph-name="ol" unicode="ol" horiz-adv-x="952" 
d="M804 434l-35 -297q-9 -73 44 -73q49 0 97 96l13 -6q-24 -71 -62.5 -113t-101.5 -42q-57 0 -83.5 42t-19.5 101l28 220q-99 -45 -185 -49q3 -21 3 -44q0 -111 -67.5 -194.5t-175.5 -83.5q-104 0 -156.5 62t-52.5 147q0 116 75.5 197.5t188.5 81.5q79 0 127 -43
q17 -3 29 -18t18 -31.5t17.5 -30t28.5 -13.5q63 0 153 46l20 154q13 101 57.5 152t111.5 51q42 -2 62 -26.5t20 -60.5q0 -55 -42 -114t-112 -111zM380 381q0 28 25 46q-27 16 -58 16q-77 0 -123 -70t-46 -169q0 -78 34.5 -118.5t85.5 -40.5q81 0 129 73t48 156q0 20 -3 39
q-38 3 -65 21t-27 47zM931 660q0 46 -37 46q-33 0 -49 -37.5t-27 -121.5l-10 -79q123 100 123 192z" />
    <glyph glyph-name=".notdef" horiz-adv-x="1779" 
d="M897 423q0 -41 24 -67.5t72 -27.5l-4 -16q-30 -10 -54 -10q-53 0 -89.5 32.5t-36.5 88.5q0 41 16.5 71t45 45.5t58.5 22t64 6.5q47 0 115 -15q51 94 159 94q36 0 62 -16t26 -44q0 -34 -37.5 -52.5t-82.5 -18.5q-27 0 -43 2q-8 -35 -20.5 -137t-34 -179.5t-63.5 -127.5
q66 -33 138.5 -90.5t124 -92.5t97.5 -35q25 0 44.5 17.5t19.5 51.5l20 4q1 -7 1 -20q0 -52 -34.5 -86t-96.5 -34q-26 0 -51 4.5t-45 9.5t-43 18t-37.5 21t-35.5 27.5t-31 28.5t-31 33.5t-28 33t-28.5 36t-26.5 33.5q-33 -23 -60.5 -32.5t-68.5 -9.5q-39 0 -63.5 14.5
t-24.5 40.5q0 31 30.5 47.5t79.5 16.5q47 0 87 -12q20 53 38 209.5t48 225.5q-35 6 -72 6q-128 0 -128 -117zM1599 427l4 14q77 0 77 82q0 40 -25.5 63t-75.5 23q-70 0 -103 -30.5t-33 -73.5q0 -37 30.5 -66t74.5 -51t87.5 -45.5t74 -61t30.5 -86.5q0 -85 -75.5 -143.5
t-187.5 -58.5q-86 1 -136 45.5t-50 109.5q0 63 40 100t96 37q39 0 68.5 -21.5t34.5 -63.5l-18 -8q-27 32 -65 32q-40 0 -61.5 -26t-21.5 -63q0 -53 35 -85.5t85 -32.5q69 0 111 40.5t42 96.5q0 43 -29.5 75t-71.5 54t-84.5 44t-72 56t-29.5 79q0 74 66.5 122.5t165.5 48.5
q75 0 126 -36t51 -92q0 -36 -29.5 -64t-77.5 -28q-34 0 -53 14zM782 317l-5 -22q-23 9 -51 9q-30 0 -65 -11q-14 -84 -14 -157q0 -99 62 -99q57 0 78 80l20 -5q-19 -120 -136 -120q-63 0 -97.5 38t-34.5 114q0 35 9 111q-123 -45 -193 -50q-19 -52 -34.5 -83.5t-39 -65
t-56 -49t-74.5 -15.5q-57 0 -89 30.5t-32 70.5t32 71t81 32l8 -12q-36 -27 -36 -74q0 -33 18 -55.5t48 -22.5q45 0 76 45t60 127q-79 1 -132 31t-53 85q0 46 41 68t98 22q62 0 112 -15q42 111 100.5 173.5t155.5 62.5q66 0 66 -60l-42 -253q30 8 62 8q23 0 57 -9zM326 230
l48 144q-32 9 -70 11q-39 0 -61 -20.5t-22 -51.5q0 -39 29.5 -59.5t75.5 -23.5zM409 364l-46 -133q75 4 188 48q1 2 1 5q-60 50 -143 80zM555 309q36 199 56 289q-119 -12 -195 -213q77 -28 139 -76zM918 89q-21 0 -39 -10t-18 -31q0 -13 12 -22t34 -9q54 0 88 50
q-33 22 -77 22zM1278 626q-57 0 -81 -87q8 -1 25 -1q34 0 61 13t27 42q0 14 -8.5 23.5t-23.5 9.5z" />
    <glyph glyph-name=".null" horiz-adv-x="0" 
 />
    <glyph glyph-name="nonmarkingreturn" horiz-adv-x="333" 
 />
    <glyph glyph-name="space" unicode=" " horiz-adv-x="280" 
 />
    <glyph glyph-name="exclam" unicode="!" horiz-adv-x="249" 
d="M123 205h-31q11 129 11 151q0 40 -10 123t-10 127q0 67 20 103.5t54 36.5q55 0 55 -90q0 -75 -35.5 -182t-41.5 -160q-10 -82 -12 -109zM164 53q0 -26 -17 -43.5t-51 -17.5q-27 1 -42.5 16.5t-15.5 35.5q0 26 21 41.5t48 15.5q24 0 40.5 -12.5t16.5 -35.5z" />
    <glyph glyph-name="quotedbl" unicode="&#x22;" horiz-adv-x="310" 
d="M50 468h-20l23 189q2 19 16 29.5t33 10.5q47 0 47 -37q0 -7 -5 -19zM181 468h-20l23 189q2 19 16 29.5t33 10.5q47 0 47 -37q0 -7 -5 -19z" />
    <glyph glyph-name="numbersign" unicode="#" horiz-adv-x="609" 
d="M550 189h-146l-31 -141h-41l31 141h-151l-31 -141h-41l31 141h-146l9 35h145l37 165h-146l9 35h145l30 135h40l-30 -135h152l30 135h40l-30 -135h148l-9 -35h-147l-36 -165h147zM256 389l-36 -165h151l37 165h-152z" />
    <glyph glyph-name="dollar" unicode="$" horiz-adv-x="552" 
d="M275 623l11 87l34 -4l-10 -78q10 1 30 1l11 81l34 -4l-10 -80q60 -8 98.5 -41t38.5 -79q0 -42 -32.5 -70t-75.5 -28q-27 0 -47 14l5 15q35 0 54 23t19 54q0 42 -30 66.5t-77 24.5q-65 0 -99 -32t-34 -69t29.5 -68t71.5 -54t84.5 -47.5t72 -62.5t29.5 -85
q0 -66 -52.5 -121t-132.5 -72l-13 -105l-34 4l12 96q-20 -2 -31 -2l-12 -98l-34 4l12 96q-75 8 -116 47t-41 90q0 48 36.5 77.5t82.5 29.5q25 0 47 -9l-1 -15q-41 -5 -61 -31.5t-20 -59.5q0 -47 31.5 -76t81.5 -29q57 0 98.5 41t41.5 96q0 40 -28.5 71.5t-69 54.5t-81.5 47
t-69.5 59t-28.5 79q0 60 48.5 104t126.5 58z" />
    <glyph glyph-name="percent" unicode="%" horiz-adv-x="808" 
d="M327 526q0 -84 -49.5 -134t-114.5 -50q-62 0 -95 40t-33 97q0 71 47.5 123.5t112.5 52.5q37 0 103 -31.5t110 -31.5q83 0 162 83h67l-393 -675h-85l344 595q-47 -23 -95 -23q-47 0 -97 22q16 -37 16 -68zM773 245q0 -84 -49.5 -134t-114.5 -50q-62 0 -95 40t-33 97
q0 77 52 127t125 50q56 0 85.5 -38t29.5 -92zM671 344q-49 0 -80.5 -46t-31.5 -102q0 -43 19 -72t56 -29q50 0 82 45.5t32 102.5q0 43 -19.5 72t-57.5 29zM225 625q-49 0 -80.5 -46t-31.5 -102q0 -43 19 -72t56 -29q50 0 82 45.5t32 102.5q0 43 -19.5 72t-57.5 29z" />
    <glyph glyph-name="ampersand" unicode="&#x26;" horiz-adv-x="1155" 
d="M535 428q9 -18 29.5 -29.5t44.5 -11.5q18 0 28.5 7.5t10.5 18.5q0 27 -47 27q-35 0 -66 -12zM1010 456l-3 -14q-5 -1 -15 -1q-36 0 -60 21.5t-24 49.5q0 39 32 62t80 23q61 0 95.5 -36t34.5 -92q0 -70 -44.5 -110.5t-115.5 -40.5q-29 0 -61 5q-1 -103 -48.5 -180
t-120.5 -114t-161 -37q-121 0 -202 67t-81 167q0 73 44 129.5t120 73.5q-22 16 -35.5 45.5t-13.5 59.5q0 14 3 26q-109 25 -145 25q-72 0 -116 -41.5t-44 -110.5q0 -51 28.5 -84t87.5 -34l-3 -16q-33 -11 -62 -11q-62 0 -106 39.5t-44 106.5q0 49 21.5 85.5t56.5 56.5
t73 29.5t78 9.5q62 0 182 -33q20 49 75.5 78.5t123.5 29.5q46 0 78.5 -19t32.5 -51q0 -43 -48 -64t-105 -21q-40 0 -76 7q-2 -12 -2 -36q0 -29 8 -56q38 10 72 10q35 0 65 -13t30 -37q0 -23 -25 -34.5t-55 -11.5q-62 0 -121 44q-72 -52 -72 -146q0 -90 56 -136.5t140 -46.5
q106 0 193.5 68.5t91.5 179.5q-62 11 -83 11q-46 0 -70.5 -18.5t-24.5 -47.5q0 -24 15.5 -44.5t43.5 -23.5l-3 -16q-48 0 -72.5 30.5t-24.5 72.5q0 56 38 92.5t115 36.5q25 0 71.5 -6.5t72.5 -6.5q52 0 85.5 27t33.5 73q0 28 -17.5 48.5t-49.5 20.5t-49.5 -19t-17.5 -47
q0 -48 44 -54zM578 559q49 0 86 14t37 48q0 20 -14.5 32.5t-40.5 12.5q-49 0 -79 -28.5t-41 -74.5q24 -4 52 -4z" />
    <glyph glyph-name="quotesingle" unicode="'" horiz-adv-x="159" 
d="M51 468h-20l23 189q2 19 16 29.5t33 10.5q47 0 47 -37q0 -7 -5 -19z" />
    <glyph glyph-name="parenleft" unicode="(" horiz-adv-x="268" 
d="M326 741l9 -11q-105 -99 -156 -277t-51 -375q0 -248 78 -385l-11 -10q-78 74 -119 190t-41 242q0 178 81 356.5t210 269.5z" />
    <glyph glyph-name="parenright" unicode=")" horiz-adv-x="268" 
d="M-57 -317l-10 11q105 99 156 277t51 375q0 248 -78 385l12 10q77 -74 118 -190.5t41 -241.5q0 -178 -81 -356.5t-209 -269.5z" />
    <glyph glyph-name="asterisk" unicode="*" horiz-adv-x="367" 
d="M201 578q26 10 85.5 -7t59.5 -47q0 -15 -10 -23t-24 -8q-29 0 -66.5 31t-44.5 54zM201 595q7 23 44.5 54t66.5 31q14 0 24 -8t10 -23q0 -32 -56.5 -47.5t-88.5 -6.5zM166 595q-27 -10 -86 7t-59 47q0 15 10 23t24 8q29 0 66.5 -31t44.5 -54zM183 600q-13 12 -24 42.5
t-11 57.5q0 52 35 52q17 0 26.5 -13.5t9.5 -34.5q0 -29 -11.5 -60.5t-24.5 -43.5zM166 578q-7 -23 -44.5 -54t-66.5 -31q-14 0 -24 8t-10 23q0 31 57 46.5t88 7.5zM184 575q13 -12 24 -42.5t11 -57.5q0 -52 -35 -52q-36 0 -36 49q0 28 11.5 59.5t24.5 43.5z" />
    <glyph glyph-name="plus" unicode="+" horiz-adv-x="470" 
d="M210 329l14 191h43l-14 -191h207l-11 -42h-198l-14 -202h-43l14 202h-198l11 42h189z" />
    <glyph glyph-name="comma" unicode="," horiz-adv-x="200" 
d="M21 -119q35 14 62.5 40t27.5 49q0 9 -10 15.5t-22.5 11t-22.5 16.5t-10 31q0 23 18 40.5t46 17.5q32 0 48.5 -20t16.5 -51q0 -64 -43.5 -109t-99.5 -64z" />
    <glyph glyph-name="hyphen" unicode="-" horiz-adv-x="348" 
d="M22 246h316l-12 -47h-316z" />
    <glyph glyph-name="period" unicode="." horiz-adv-x="173" 
d="M153 56q0 -27 -18 -45.5t-54 -18.5q-25 1 -39.5 15.5t-14.5 34.5q0 26 22.5 42.5t50.5 16.5q22 0 37.5 -12t15.5 -33z" />
    <glyph glyph-name="slash" unicode="/" horiz-adv-x="315" 
d="M310 746l-234 -746h-51l234 746h51z" />
    <glyph glyph-name="zero" unicode="0" horiz-adv-x="544" 
d="M223 -13q-52 0 -91 21.5t-60.5 57.5t-31.5 77t-10 86q0 92 35.5 183.5t108 156.5t163.5 65q15 0 23 -1l-4 -21q-63 0 -109.5 -57.5t-67.5 -139t-21 -171.5q0 -39 5 -72t16.5 -64t34.5 -49t55 -18q85 0 148.5 107t63.5 242q0 52 -17.5 88.5t-56.5 36.5q-36 0 -56.5 -28
t-20.5 -67q0 -38 18.5 -66t54.5 -28l-1 -15q-27 -8 -52 -8q-43 0 -74.5 27.5t-31.5 79.5q0 57 43.5 97t106.5 40q59 0 89.5 -43t30.5 -119q0 -65 -19 -133.5t-54 -128.5t-92.5 -98t-125.5 -38z" />
    <glyph glyph-name="one" unicode="1" horiz-adv-x="402" 
d="M30 0l9 30h106l65 504q-74 -38 -143 -48l5 23q87 17 174 90q32 27 57 27q27 0 26 -38l-73 -558h116l-9 -30h-333z" />
    <glyph glyph-name="two" unicode="2" horiz-adv-x="510" 
d="M495 465q0 -60 -33 -103.5t-85.5 -70.5t-108 -51t-110 -60.5t-82.5 -83.5q65 67 133 67q46 0 119 -41.5t105 -41.5q35 0 35 45q0 17 -6 31l15 4q18 -29 18 -63q0 -45 -26.5 -78t-77.5 -33t-123 39.5t-119 39.5q-34 0 -62.5 -18.5t-38.5 -52.5h-17q0 3 -0.5 8.5t-0.5 7.5
q3 51 23.5 93t51.5 71t67 55t72 51.5t65.5 54t47.5 69t18 89.5q0 43 -19.5 74t-62.5 31t-71 -30t-28 -73q0 -38 18.5 -66t53.5 -28l-2 -15q-27 -8 -50 -8q-42 0 -73 27t-31 80q0 64 51.5 100.5t129.5 36.5q91 0 147.5 -40.5t56.5 -116.5z" />
    <glyph glyph-name="three" unicode="3" horiz-adv-x="516" 
d="M204 329q23 6 63 6q78 0 138.5 -43t60.5 -119q0 -85 -67.5 -135t-174.5 -50q-77 0 -130.5 37t-53.5 102q0 44 31 74t89 30q24 0 43 -10l-1 -15q-37 -3 -59 -32.5t-22 -67.5t26 -66t66 -28q61 0 96 41.5t35 118.5q0 63 -28.5 99.5t-88.5 36.5q-34 0 -64 -10l-7 25l297 232
q-37 0 -82.5 -23.5t-95.5 -47.5t-97 -24q-37 0 -63 25t-26 67t20 82l17 -2q-2 -4 -2 -15q0 -58 65 -58q37 0 105.5 19.5t97.5 19.5q53 0 91 -28l8 -23q-1 0 -144 -108.5t-143 -109.5z" />
    <glyph glyph-name="four" unicode="4" horiz-adv-x="551" 
d="M496 419l-39 -240h89l-9 -29h-84l-15 -94q-12 -64 -68 -64q-46 0 -46 31l20 127h-303q-16 0 -16 15q0 13 13 29q216 266 216 374q0 44 -46 44q-16 0 -31 -7l-5 19q23 15 52 15q46 0 77.5 -27t31.5 -69q0 -64 -54.5 -173t-115.5 -191h186l33 205q12 64 73 64q41 0 41 -29z
" />
    <glyph glyph-name="five" unicode="5" horiz-adv-x="536" 
d="M200 -8q-76 0 -125.5 34.5t-49.5 99.5q0 44 30.5 74t87.5 30q24 0 43 -10l-1 -15q-36 -3 -57 -32t-21 -67t22.5 -63.5t69.5 -27.5q63 0 98.5 48.5t35.5 127.5q0 68 -27.5 105.5t-80.5 37.5q-52 0 -114 -41q-21 11 -21 12q41 136 75 282l21 15q18 -15 70.5 -26.5
t104.5 -11.5q125 0 125 66q0 1 -0.5 4t-0.5 5l16 3q10 -24 10 -50q0 -64 -37 -94t-95 -30q-54 0 -106.5 26t-85.5 60l-61 -225q52 39 124 39q80 0 140.5 -49.5t60.5 -130.5q0 -90 -68.5 -143t-182.5 -53z" />
    <glyph glyph-name="six" unicode="6" horiz-adv-x="503" 
d="M237 9q56 3 84 58t28 121q0 53 -23 88t-68 35q-41 0 -80.5 -36.5t-39.5 -96.5q0 -71 23 -119t76 -50zM25 222q0 72 21 140t60 123t100.5 88.5t136.5 33.5q59 0 97 -30t38 -69q0 -42 -33.5 -74.5t-87.5 -32.5q-11 0 -17 1l3 15q23 9 38 37t15 59q0 29 -17 49.5t-46 20.5
q-47 0 -83.5 -30t-58 -80t-33.5 -103t-17 -112q21 45 61.5 67.5t88.5 22.5q81 0 124.5 -46.5t43.5 -111.5q0 -83 -59.5 -143t-162.5 -60q-106 0 -159 62t-53 173z" />
    <glyph glyph-name="seven" unicode="7" horiz-adv-x="429" 
d="M289 198q24 -36 24 -77q0 -52 -35 -90.5t-89 -38.5q-59 0 -87 35t-28 83q0 58 30.5 122t83.5 123.5t108.5 108.5t119.5 97q-35 0 -72 -18t-64.5 -39.5t-67.5 -39.5t-79 -18q-42 0 -75 27t-33 77q0 35 20 77l17 -2q-2 -4 -2 -14q0 -31 22 -45t53 -14q38 0 111 24t122 24
q43 0 78 -19l7 -23q-41 -32 -69 -55.5t-76 -69.5t-77.5 -84.5t-53 -88t-23.5 -92.5q0 -35 18.5 -54t43.5 -19q26 0 44.5 18t18.5 49q0 16 -4 28z" />
    <glyph glyph-name="eight" unicode="8" horiz-adv-x="480" 
d="M270 613q84 0 132 -36t48 -97q0 -44 -34 -76t-82 -32q-26 0 -49 10l2 15q36 2 57.5 31t21.5 68t-23 68t-68 29q-48 0 -73.5 -23t-25.5 -57q0 -38 27 -76.5t65 -71.5t76 -66.5t65 -74.5t27 -84q0 -62 -57 -106t-161 -44q-83 0 -135.5 38.5t-52.5 100.5q0 57 43 100.5
t123 55.5q-57 52 -85.5 94.5t-28.5 91.5q0 57 51 99t137 43zM220 12q48 0 79.5 24.5t31.5 65.5q0 30 -20 63t-38 50.5t-56 51.5q-46 -12 -72 -51t-26 -89q0 -47 26 -80.5t75 -34.5z" />
    <glyph glyph-name="nine" unicode="9" horiz-adv-x="494" 
d="M25 115q0 43 31.5 74.5t83.5 31.5q26 0 45 -10l-1 -15q-38 -4 -58.5 -31.5t-20.5 -64.5q0 -36 21 -60t58 -24q42 0 74.5 30.5t51.5 82t29 104.5t15 112q-41 -96 -157 -96q-76 0 -117.5 44t-41.5 113q0 94 62.5 149.5t171.5 55.5q54 0 94 -22t61.5 -60.5t31.5 -83
t10 -96.5q0 -146 -79.5 -251t-202.5 -105q-65 0 -113.5 31.5t-48.5 90.5zM357 402q0 92 -20.5 138.5t-70.5 46.5q-44 0 -72 -30t-37 -67t-9 -81q0 -53 21.5 -87.5t66.5 -34.5q39 0 74 30.5t47 84.5z" />
    <glyph glyph-name="colon" unicode=":" horiz-adv-x="250" 
d="M184 56q0 -27 -18 -45.5t-54 -18.5q-25 1 -39.5 15.5t-14.5 34.5q0 26 22.5 42.5t50.5 16.5q22 0 37.5 -12t15.5 -33zM208 398q0 -27 -18 -45.5t-54 -18.5q-25 1 -39.5 15.5t-14.5 34.5q0 26 22.5 42.5t50.5 16.5q22 0 37.5 -12t15.5 -33z" />
    <glyph glyph-name="semicolon" unicode=";" horiz-adv-x="203" 
d="M33 -123q35 14 62.5 40t27.5 49q0 9 -10 15.5t-22.5 11t-22.5 16.5t-10 31q0 23 18 40.5t46 17.5q32 0 48.5 -20t16.5 -51q0 -64 -43.5 -109t-99.5 -64zM208 398q0 -27 -18 -45.5t-54 -18.5q-25 1 -39.5 15.5t-14.5 34.5q0 26 22.5 42.5t50.5 16.5q22 0 37.5 -12
t15.5 -33z" />
    <glyph glyph-name="less" unicode="&#x3c;" horiz-adv-x="452" 
d="M432 469l-327 -126l327 -121v-80l-408 159v51l408 159v-42z" />
    <glyph glyph-name="equal" unicode="=" horiz-adv-x="480" 
d="M39 384h431l-11 -42h-431zM21 273h431l-11 -42h-431z" />
    <glyph glyph-name="greater" unicode="&#x3e;" horiz-adv-x="446" 
d="M24 184l327 126l-327 121v80l408 -159v-51l-408 -159v42z" />
    <glyph glyph-name="question" unicode="?" horiz-adv-x="445" 
d="M214 722q-53 -3 -77.5 -34t-24.5 -77q0 -35 17.5 -62t49.5 -31l-1 -15q-21 -7 -45 -7q-49 0 -81 30t-32 82q2 62 54.5 100t141.5 38q102 0 163 -40t61 -109q0 -57 -34.5 -98t-84 -65.5t-99.5 -46.5t-84.5 -53.5t-34.5 -73.5q0 -31 21.5 -48t50.5 -17t44 21t15 51
q0 39 -23 59l10 11q36 -3 57.5 -25.5t21.5 -51.5q0 -35 -32.5 -62t-90.5 -27q-56 0 -88 29t-32 72q2 45 29 80.5t64 60t74 51t63 66.5t26 92q0 44 -24 72t-75 28zM234 53q0 -26 -17 -43.5t-51 -17.5q-27 1 -42.5 16.5t-15.5 35.5q0 26 21 41.5t48 15.5q24 0 40.5 -12.5
t16.5 -35.5z" />
    <glyph glyph-name="at" unicode="@" horiz-adv-x="965" 
d="M555 634q182 0 282 -95.5t100 -231.5q0 -128 -77.5 -221t-193.5 -93q-102 0 -102 94q0 25 6 51q-34 -65 -89.5 -105.5t-111.5 -40.5q-64 0 -94 43t-30 106q0 107 82.5 195t188.5 88q53 0 118 -42q14 28 41 28q60 0 54 -26l-60 -265q-5 -33 6 -56t40 -23q56 0 99.5 46
t63 106.5t19.5 118.5q0 125 -91.5 207.5t-254.5 82.5q-205 0 -338.5 -120t-133.5 -316q0 -55 14.5 -106t42 -93.5t74 -68t105.5 -25.5q57 0 103 24t57 70l15 -2q4 -16 4 -33q0 -61 -50.5 -101.5t-114.5 -40.5q-70 0 -127.5 35.5t-92 92t-53 121t-18.5 127.5q0 141 71.5 249
t188 164t257.5 56zM354 131q0 -39 16 -58.5t43 -19.5q40 0 87 39t82 113l40 151q-49 35 -91 35q-52 0 -94.5 -46.5t-62.5 -105.5t-20 -108z" />
    <glyph glyph-name="A" unicode="A" horiz-adv-x="950" 
d="M435 439q-50 12 -85 12q-48 0 -74.5 -24t-26.5 -60q0 -47 36.5 -72t92.5 -27q6 18 17 52.5t21 64t19 54.5zM908 370l-6 -22q-28 9 -58 9q-32 0 -80 -12q-15 -108 -15 -187q0 -117 76 -117q81 0 97 126l23 -1q-3 -82 -45.5 -128.5t-119.5 -46.5q-153 0 -153 177
q0 53 11 133q-150 -54 -231 -60q-21 -57 -40.5 -97.5t-47 -77.5t-63.5 -56t-80 -19q-66 0 -106 35t-40 82q0 46 36 82t92 37l8 -13q-40 -28 -40 -86q0 -40 21.5 -66t57.5 -26q55 0 92 52.5t71 151.5q-92 1 -155 36t-63 98q0 53 48 79t112 26q65 0 133 -19q23 61 48 106.5
t60.5 87t83.5 63t106 21.5q35 0 58 -17.5t19 -52.5q-3 -19 -22.5 -129.5t-27.5 -168.5q42 10 75 10q28 0 65 -10zM711 703q-84 -8 -137 -74t-96 -180q94 -33 168 -91q21 137 65 345zM417 269q86 4 224 57q1 2 1 6q-69 61 -172 96q-8 -23 -25.5 -77t-27.5 -82z" />
    <glyph glyph-name="B" unicode="B" horiz-adv-x="831" 
d="M559 382l-1 -5q123 0 185.5 -46.5t62.5 -122.5q0 -94 -77 -155.5t-207 -61.5q-110 0 -230 63q-64 -62 -169 -62q-49 0 -77.5 19.5t-28.5 52.5q0 32 30 51.5t71 19.5q56 0 115 -22q12 39 19.5 102.5t10.5 120.5t14.5 119.5t30.5 107.5t60.5 75.5t102.5 33.5q18 0 27 -2
l-3 -16q-29 -8 -49 -31.5t-29.5 -59.5t-13 -62t-5.5 -63q-6 -85 -10.5 -131.5t-24 -116.5t-51.5 -113q106 -53 182 -53q85 0 131.5 53t46.5 137q0 69 -44 110.5t-132 41.5l4 22q84 3 128 50t44 109q0 83 -67.5 128t-165.5 45q-131 0 -228.5 -81t-97.5 -206q0 -97 72 -112
l-4 -16q-15 -3 -29 -3q-59 0 -98 45t-39 109q0 59 28 109t72 82t100.5 54.5t111.5 32.5t106 10q54 0 111.5 -10t114.5 -31t93.5 -61t36.5 -93q0 -77 -64 -120.5t-166 -46.5zM121 16q71 0 103 73q-53 23 -95 23q-28 0 -46.5 -14t-18.5 -34q0 -21 15.5 -34.5t41.5 -13.5z" />
    <glyph glyph-name="C" unicode="C" horiz-adv-x="657" 
d="M586 200l21 -9q-38 -97 -122 -148.5t-184 -51.5q-134 0 -202.5 84.5t-68.5 221.5q0 89 25.5 169t74.5 142.5t126.5 99t173.5 36.5q88 0 155 -47.5t67 -132.5q0 -80 -52 -132t-129 -52q-35 0 -65 19l5 16q2 0 5.5 -0.5t5.5 -0.5q63 0 98 54.5t35 120.5q0 56 -29 93.5
t-88 37.5q-84 0 -149.5 -60.5t-99 -152.5t-33.5 -195q0 -114 48.5 -188.5t147.5 -74.5q74 0 136.5 42t97.5 109z" />
    <glyph glyph-name="D" unicode="D" horiz-adv-x="881" 
d="M130 104q-31 0 -48 -12t-17 -33q0 -19 16 -31t40 -12q72 0 106 70q-51 18 -97 18zM404 438q-4 -66 -7 -97t-12 -88t-25.5 -98t-40.5 -74q123 -49 177 -49q60 0 106.5 32t73 85.5t39.5 114.5t13 127q0 153 -83.5 241t-217.5 88q-128 -4 -221 -84.5t-93 -202.5
q0 -97 72 -112l-4 -16q-15 -3 -29 -3q-59 0 -98 45t-39 109q0 62 29.5 112.5t75 82t104 53.5t113.5 31t107 9q106 0 197 -43.5t150.5 -134.5t59.5 -213q0 -70 -20.5 -133.5t-60 -115.5t-106.5 -82.5t-153 -30.5q-38 0 -81.5 12t-62 20.5t-69.5 32.5q-64 -64 -175 -64
q-46 0 -76.5 18.5t-30.5 50.5t30 49.5t75 17.5q54 0 115 -18q14 39 22 103t11 122t14.5 120.5t30 108t60 76t102.5 32.5q18 0 27 -2l-3 -16q-29 -8 -48.5 -31.5t-29 -59.5t-13 -62.5t-5.5 -62.5z" />
    <glyph glyph-name="E" unicode="E" horiz-adv-x="627" 
d="M164 209q0 -81 45 -137.5t126 -56.5t130 45.5t49 118.5q0 41 -18.5 70t-58.5 29l-3 16q21 10 47 10q61 0 96 -38t35 -87q0 -85 -87.5 -136.5t-208.5 -51.5q-135 0 -210.5 60.5t-75.5 161.5q0 136 147 202q-64 61 -64 144q0 85 71.5 135t192.5 50q104 0 168 -44.5
t64 -106.5q0 -51 -34.5 -78.5t-80.5 -27.5q-25 0 -46 9l4 16q33 1 50 27.5t17 61.5q0 56 -35 87.5t-94 31.5q-78 0 -117.5 -53t-39.5 -126q0 -58 22 -101q52 11 97 11q49 0 83.5 -16t34.5 -43q0 -22 -24 -35.5t-65 -13.5q-87 0 -152 35q-65 -50 -65 -169zM357 432
q-42 0 -82 -20q35 -47 103 -47q44 0 44 32q0 19 -20.5 27t-44.5 8z" />
    <glyph glyph-name="F" unicode="F" horiz-adv-x="790" 
d="M238 -8q-83 0 -126.5 35.5t-43.5 87.5q0 49 38 79.5t87 30.5l9 -13q-37 -16 -37 -78q0 -48 19.5 -81t57.5 -33q19 0 34.5 8t26 19.5t19 33.5t13 40.5t8 50t5.5 52t4 57.5q2 29 3 44q-38 -6 -76 -6q-121 0 -185 60t-64 148q0 95 72.5 153t176.5 58q74 0 216 -43.5
t223 -43.5q37 0 61.5 14.5t24.5 46.5q0 25 -15 39.5t-38 16.5l9 19q38 -3 59 -32t21 -64q0 -64 -47 -96t-130 -32q-57 0 -117 13q-37 -15 -50.5 -60t-18.5 -126q116 42 162 42q42 0 71 -22t29 -61q0 -35 -21 -59l-14 6q-3 75 -98 75q-51 0 -131 -20q-2 -40 -4.5 -68.5
t-9.5 -69t-17 -68.5t-27.5 -59t-41.5 -50t-59 -31.5t-78 -12.5zM224 644q-77 0 -117 -38.5t-40 -95.5q0 -75 62.5 -119.5t145.5 -44.5q40 0 82 8q4 39 7 61q10 74 45 115t98 55q-24 6 -69 19t-73 20t-67.5 13.5t-73.5 6.5z" />
    <glyph glyph-name="G" unicode="G" horiz-adv-x="681" 
d="M518 163l4 22q5 36 29.5 55t52.5 19q35 0 35 -34q-5 -92 -36 -262q96 19 117 70l19 -7q-20 -72 -145 -95q-74 -246 -266 -246q-67 0 -101 33t-34 80q0 24 5.5 43t20.5 33.5t27.5 25t39 18t41.5 12t50.5 9t50 6t53.5 4.5q12 55 30 165q-87 -123 -236 -123
q-108 0 -176.5 76.5t-68.5 216.5q0 90 27.5 172.5t79 147t132.5 102.5t180 38q87 0 151.5 -46t64.5 -130q0 -81 -53 -134.5t-131 -53.5q-35 0 -64 19l5 16q2 0 5.5 -0.5t5.5 -0.5q65 0 101 56.5t36 123.5q0 54 -29 90t-86 36q-86 0 -156 -63.5t-106.5 -160t-36.5 -201.5
q0 -47 8 -88t25.5 -79.5t52 -61t81.5 -22.5q114 0 195 119zM229 -194q0 -36 23.5 -54t57.5 -18q70 0 110.5 54.5t56.5 130.5q-28 -2 -48 -3.5t-48 -5t-47.5 -8.5t-40.5 -13.5t-34 -19.5t-21.5 -27t-8.5 -36z" />
    <glyph glyph-name="H" unicode="H" horiz-adv-x="1009" 
d="M159 225l7 -13q-39 -17 -39 -84q0 -46 18.5 -77t54.5 -31q20 0 37 10t28.5 24.5t21 40.5t15.5 49t11.5 59.5t8 62.5t6.5 67q-109 -4 -155 -42l-10 23q50 42 168 47q12 144 26 190q23 78 81 108q-31 0 -91.5 15.5t-89.5 15.5q-49 0 -80.5 -30.5t-31.5 -96.5
q0 -52 28.5 -85t87.5 -34l-3 -16q-33 -11 -62 -11q-62 0 -106 39.5t-44 106.5q0 77 54.5 119t123.5 42q39 0 110.5 -18.5t103.5 -18.5q58 0 114 43l16 -18q-29 -19 -49 -48t-31 -56.5t-17.5 -75.5t-8.5 -78.5t-4 -92.5q14 0 41 -0.5t40 -0.5q88 0 152 9q2 13 6 41.5t7 46
t8.5 46t10.5 47.5t13 44t17 41.5t21.5 34.5t27 28.5t33.5 17t41 6.5q51 0 74 -33t23 -83q0 -80 -45 -143t-118 -94q-23 -146 -23 -212q0 -117 79 -117q77 0 116 96l22 -7q-41 -137 -167 -137q-167 0 -167 183q0 51 16 163q-54 -7 -135 -7q-64 0 -95 1q-5 -54 -12.5 -95
t-25.5 -89.5t-45 -80.5t-72.5 -53.5t-105.5 -21.5q-82 0 -123.5 34.5t-41.5 85.5t39 82t90 31zM906 666q-41 0 -63 -96q-9 -39 -28 -166q129 68 129 206q0 56 -38 56z" />
    <glyph glyph-name="I" unicode="I" horiz-adv-x="667" 
d="M250 426l1 -16q-27 -9 -52 -9q-64 0 -108.5 42t-44.5 113q0 83 61.5 131t140.5 48q85 0 185 -60q62 52 172 52q41 0 70 -16t29 -46q0 -39 -34.5 -58t-79.5 -19q-58 0 -98 21q-11 -34 -17.5 -100.5t-9 -131t-17 -136t-38.5 -125t-76.5 -89t-128.5 -35.5q-81 2 -123 36
t-42 84q0 51 39 82t90 31l8 -13q-40 -17 -40 -83q0 -46 18.5 -77.5t54.5 -31.5q43 0 69 40.5t36 107t14.5 136.5t12 145t21.5 116q18 55 49 90q-77 45 -134 45q-66 0 -100 -40.5t-34 -99.5q0 -53 28.5 -93.5t77.5 -40.5zM596 704q-61 0 -94 -69q46 -22 88 -22q25 0 44.5 14
t19.5 36q0 41 -58 41z" />
    <glyph glyph-name="J" unicode="J" horiz-adv-x="664" 
d="M241 426l2 -16q-28 -9 -53 -9q-64 0 -108 42t-44 113q0 83 61.5 131t140.5 48q85 0 179 -57q58 52 167 52q46 0 77 -17t31 -48q0 -37 -35 -56.5t-81 -19.5q-48 0 -92 21q-18 -62 -27 -212.5t-27 -236.5q87 20 114 67l20 -7q-25 -64 -141 -92q-58 -246 -253 -246
q-65 0 -103.5 33t-38.5 86q0 24 8.5 43t21 32.5t36 24t42 16.5t52 11.5t54 7.5t58.5 6q10 46 16 162.5t23 210t59 142.5q-74 42 -130 42q-66 0 -100 -40.5t-34 -99.5q0 -53 28 -93.5t77 -40.5zM66 2q0 -36 25 -53.5t61 -17.5q39 0 66.5 16t43 46t23 56t13.5 64
q-40 -3 -66.5 -5.5t-61 -10t-55 -18.5t-35 -31t-14.5 -46zM593 707q-67 0 -98 -73q42 -20 82 -20q28 0 48 12.5t20 37.5q0 19 -15 31t-37 12z" />
    <glyph glyph-name="K" unicode="K" horiz-adv-x="954" 
d="M843 50q70 0 83 116h23q0 -79 -41.5 -126.5t-113.5 -47.5q-115 0 -149 99q-9 25 -13 60t-4.5 63.5t-5.5 58.5t-15 50.5t-34 33.5t-62 13h-53q-3 -41 -6 -71.5t-11 -72t-19.5 -72t-31.5 -63t-46 -53t-64 -33.5t-85 -13q-82 0 -123.5 34.5t-41.5 85.5t39 82t90 31l7 -13
q-39 -17 -39 -84q0 -46 18.5 -77t54.5 -31q42 0 68.5 37.5t38.5 101.5t18.5 130t14.5 142t19 119q21 78 81 109q-31 0 -91.5 15.5t-89.5 15.5q-49 0 -80.5 -30.5t-31.5 -96.5q0 -52 28.5 -85t87.5 -34l-3 -16q-33 -11 -62 -11q-62 0 -106 39.5t-44 106.5q0 77 54.5 119
t123.5 42q39 0 110.5 -18.5t103.5 -18.5q58 0 114 43l16 -18q-27 -18 -46.5 -43.5t-30 -50t-18 -66.5t-10 -71t-5.5 -87h41q38 1 67 26t44.5 61.5t34 79.5t37 79.5t53 60.5t80.5 24q55 0 89 -34.5t34 -77.5q0 -45 -30.5 -81.5t-75.5 -40.5l-10 11q32 26 32 85
q0 37 -16.5 62.5t-46.5 25.5q-35 0 -60.5 -25t-42 -63t-32 -78t-39.5 -74.5t-56 -47.5q59 -9 96 -27t57 -53t27 -61t17 -83q2 -11 3 -17q8 -46 25 -71t55 -25z" />
    <glyph glyph-name="L" unicode="L" horiz-adv-x="750" 
d="M129 491q0 -51 28.5 -84.5t87.5 -34.5l-3 -16q-33 -11 -62 -11q-62 0 -106 39.5t-44 106.5q0 37 13 66t33 47t48 29t55.5 15.5t57.5 4.5q52 0 134 -16q57 110 189 110q44 0 71.5 -21t27.5 -51q0 -39 -40.5 -59.5t-94.5 -20.5q-26 0 -50 3q-9 -45 -19.5 -152.5t-28 -191
t-51.5 -133.5q29 -12 92 -43.5t105 -46t83 -14.5q36 0 58 21.5t22 54.5q0 13 -5 31l18 8q15 -36 15 -70q0 -71 -45 -107.5t-104 -36.5q-37 0 -70.5 8.5t-65 28t-50.5 33.5t-52 43.5t-45 39.5q-70 -63 -156 -63q-49 0 -76.5 20.5t-27.5 50.5q0 40 38.5 60.5t91.5 20.5
q46 0 96 -13q12 50 17.5 141.5t14.5 180t33 146.5q-45 8 -86 8q-147 0 -147 -132zM282 106q-46 28 -94 28q-33 0 -51.5 -14.5t-18.5 -36.5t18.5 -35t45.5 -13q68 0 100 71zM479 619q11 -1 36 -1q96 0 96 62q0 19 -12.5 31t-34.5 12q-60 0 -85 -104z" />
    <glyph glyph-name="M" unicode="M" horiz-adv-x="1152" 
d="M885 638q6 37 29.5 57t51.5 20q34 0 34 -34l-57 -472q-21 -169 71 -169q76 0 111 95l22 -7q-41 -137 -168 -136q-91 1 -127 64.5t-24 148.5l40 310q-38 -93 -159 -205q4 -44 4 -81q0 -237 -146 -237q-44 0 -66 24t-22 61q0 33 19.5 67t36.5 51t53 48q7 6 10 9
q-37 248 -129 361q-11 -122 -25.5 -214t-37 -171t-52 -129.5t-71.5 -78.5t-95 -28q-72 0 -108 34t-36 85t39 82.5t90 31.5l8 -13q-40 -17 -40 -83q0 -44 19.5 -66.5t51.5 -22.5q96 0 152.5 158.5t75.5 445.5q-42 45 -105 45q-57 0 -90.5 -39t-33.5 -95q0 -49 27 -83t79 -34
l-3 -16q-26 -17 -63 -17q-63 0 -100.5 40t-37.5 101q0 79 64.5 125t143.5 46q83 0 151 -30.5t113.5 -84t75 -118.5t43.5 -142q37 36 57 58.5t49.5 61.5t47.5 82.5t27 93.5zM602 219q-33 -31 -47.5 -45.5t-29.5 -41t-15 -52.5q0 -24 12 -37.5t29 -13.5q55 0 55 118
q0 20 -4 72z" />
    <glyph glyph-name="N" unicode="N" horiz-adv-x="1014" 
d="M159 225l7 -13q-39 -17 -39 -84q0 -46 18.5 -77t54.5 -31q42 0 68.5 37.5t38.5 101.5t18.5 130t14.5 142t19 119q21 78 81 109q-31 0 -91.5 15.5t-89.5 15.5q-49 0 -80.5 -30.5t-31.5 -96.5q0 -52 28.5 -85t87.5 -34l-3 -16q-33 -11 -62 -11q-62 0 -106 39.5t-44 106.5
q0 77 54.5 119t123.5 42q39 0 110.5 -18.5t103.5 -18.5q58 0 114 43l16 -18q-66 -43 -87.5 -120t-30.5 -232q97 345 296 345q134 0 134 -163q0 -70 -41 -182.5t-41 -202.5q0 -118 77 -118q66 0 110 97l22 -7q-46 -137 -172 -137q-60 0 -97 27t-49 62.5t-12 80.5
q0 76 41.5 203.5t41.5 189.5q0 89 -67 89q-62 0 -135.5 -104t-110.5 -250q-34 -298 -254 -298q-82 0 -123.5 34.5t-41.5 85.5t39 82t90 31z" />
    <glyph glyph-name="O" unicode="O" horiz-adv-x="769" 
d="M161 914q15 0 28 -3l7 -13q-33 -7 -53 -36t-20 -63q0 -37 26.5 -55.5t71.5 -18.5t120 13.5t113 13.5q137 0 192 -134l-23 -10q-45 62 -146 62q-89 0 -156 -57.5t-98.5 -143.5t-31.5 -185q0 -112 49.5 -190.5t142.5 -78.5q50 0 90.5 24t66 61.5t42.5 86t24 94t7 88.5
q0 78 -26.5 125.5t-75.5 47.5q-52 0 -85 -43t-33 -103q0 -52 22.5 -90.5t61.5 -39.5l4 -18q-29 -10 -55 -10q-53 0 -87 37t-34 96q0 85 61.5 140t149.5 55q110 0 166.5 -66.5t56.5 -158.5q0 -151 -105.5 -250.5t-262.5 -99.5q-147 0 -226.5 86t-79.5 214q0 173 106.5 286.5
t281.5 120.5q94 0 153 -49q-54 79 -157 79q-40 0 -133 -19.5t-137 -19.5q-71 0 -110 29.5t-39 79.5q0 51 40.5 83.5t90.5 32.5z" />
    <glyph glyph-name="P" unicode="P" horiz-adv-x="904" 
d="M192 -8q-80 0 -121 34.5t-41 85.5t39 82t90 31l8 -13q-40 -17 -40 -83q0 -48 19.5 -78.5t57.5 -30.5q43 0 66 35.5t30 93t9.5 126.5t10.5 138.5t27 127.5t65.5 95t118.5 38q3 0 8.5 -0.5t8.5 -0.5l-2 -16q-40 -12 -62.5 -56t-30 -103t-12 -128.5t-15.5 -135.5
t-33.5 -120.5t-73 -88t-127.5 -33.5zM776 459q0 135 -82.5 198.5t-225.5 63.5q-81 -2 -148.5 -32.5t-111 -94t-43.5 -149.5q0 -44 17.5 -75.5t53.5 -36.5l-4 -16q-16 -2 -24 -2q-61 0 -101 43t-40 112q0 61 28.5 110t72.5 78.5t102 49.5t111.5 28t106.5 9q105 0 195 -29.5
t150.5 -94t60.5 -151.5q0 -96 -65 -164t-173 -68q-69 0 -114 34t-45 86q0 51 37.5 82t87.5 31l8 -13q-21 -8 -31.5 -32.5t-10.5 -54.5q0 -45 19.5 -75t57.5 -30q32 0 55 20t34.5 51.5t16.5 62t5 59.5z" />
    <glyph glyph-name="Q" unicode="Q" horiz-adv-x="714" 
d="M754 -234q0 -59 -41 -97t-103 -38q-54 0 -94.5 23t-66.5 65.5t-43 83.5t-36.5 97t-34.5 86q-67 -19 -114 -19q-44 0 -78 17t-34 50q0 34 33.5 49.5t81.5 15.5q90 0 157 -57q91 61 148.5 180t57.5 260q0 100 -41.5 170.5t-128.5 70.5q-83 0 -143.5 -48.5t-90 -127
t-29.5 -176.5q0 -74 26 -124.5t81 -50.5t84.5 47t29.5 105q0 49 -17.5 88.5t-53.5 39.5q-8 0 -12 -1l-3 16q24 10 53 10q51 0 86.5 -35t35.5 -98q0 -89 -63.5 -142.5t-156.5 -53.5q-107 0 -160.5 65t-53.5 153q0 148 104.5 251t267.5 103q80 0 141.5 -25.5t97 -69
t53.5 -94.5t18 -108q0 -144 -88 -259t-214 -174q32 -36 65.5 -96t55 -103.5t56 -76.5t76.5 -33q29 0 49 22t20 61l19 5q3 -13 3 -27zM320 10q-43 65 -110 65q-26 0 -39 -11t-13 -28q0 -41 69 -41t93 15z" />
    <glyph glyph-name="R" unicode="R" horiz-adv-x="994" 
d="M524 745q160 -2 254 -60t94 -157q0 -118 -126 -188q30 -37 43 -108q2 -12 5 -43t7 -50.5t12 -42.5t23.5 -34.5t38.5 -11.5q31 0 52.5 26t28 50.5t7.5 43.5l21 -2q0 -85 -42.5 -130.5t-119.5 -45.5q-45 1 -76 18t-45.5 41t-22.5 59t-9 65.5t-3.5 69t-6.5 61.5
q-40 -10 -80 -10q-38 0 -64.5 14.5t-26.5 38.5q0 53 98 53q65 0 119 -28q25 25 39 67.5t14 86.5q0 97 -71 145t-185 48q-131 -3 -227 -81.5t-96 -208.5q0 -93 65 -102l-6 -16q-16 -2 -24 -2q-58 0 -94.5 39.5t-36.5 104.5q0 79 44.5 138t115 90t141 46t140.5 16zM530 351
q0 -34 49 -34t73 15q-10 25 -31.5 38t-45.5 13q-20 0 -32.5 -8.5t-12.5 -23.5zM192 -8q-80 0 -121 34.5t-41 85.5t39 82t90 31l8 -13q-40 -17 -40 -83q0 -48 19.5 -78.5t57.5 -30.5q43 0 66 35.5t30.5 93t10.5 126.5t11.5 138.5t28 127.5t66 95t118.5 38q3 0 8.5 -0.5
t8.5 -0.5l-2 -16q-40 -12 -62.5 -56t-30.5 -103t-13 -128.5t-16.5 -135.5t-34.5 -120.5t-73.5 -88t-127.5 -33.5z" />
    <glyph glyph-name="S" unicode="S" horiz-adv-x="585" 
d="M381 499l5 16q10 -2 15 -2q34 0 54.5 31.5t20.5 67.5q0 47 -30.5 75t-89.5 28q-82 0 -122 -36.5t-40 -87.5q0 -32 19 -58.5t49.5 -46t68 -38.5t74.5 -39.5t67.5 -44.5t49.5 -59t19 -78q0 -98 -87.5 -166.5t-216.5 -68.5q-102 1 -159.5 52.5t-57.5 127.5q0 73 46.5 116.5
t111.5 43.5q44 0 78 -24.5t40 -71.5l-17 -10q-31 37 -78 37q-48 0 -73.5 -31.5t-25.5 -74.5q0 -63 41.5 -101t100.5 -38q82 0 132 47t50 114q0 44 -25 78.5t-62.5 55.5t-81 44.5t-81 44.5t-62.5 57t-25 81q0 86 77.5 143t192.5 57q87 0 146.5 -42.5t59.5 -106.5
q0 -42 -34 -74.5t-90 -32.5q-37 0 -60 15z" />
    <glyph glyph-name="T" unicode="T" horiz-adv-x="777" 
d="M672 536q-51 0 -105 18q-36 -25 -50.5 -103t-22 -178t-21.5 -143q29 -6 57 -6q113 0 151 88l20 -7q-16 -59 -63 -84.5t-107 -25.5q-31 0 -69 7q-53 -110 -189 -110q-65 0 -106.5 29t-41.5 80q0 39 31 64.5t82 25.5q47 0 128 -27q4 28 7.5 76t6 83.5t11.5 79t23.5 74
t43 56t69.5 36.5q-22 9 -69 31.5t-75.5 34.5t-73.5 23t-88 11q-75 0 -119.5 -39t-44.5 -99q0 -53 33.5 -81.5t77.5 -28.5q36 0 66.5 19.5t40.5 51.5l15 -6q0 -74 -33.5 -110t-81.5 -36q-72 0 -108.5 53.5t-36.5 126.5q0 105 71.5 170t188.5 65q66 0 129 -21t104.5 -46
t93.5 -46t98 -21q38 0 60.5 15t22.5 41q0 21 -14.5 35t-37.5 16l10 19q39 -5 57.5 -31.5t18.5 -59.5q0 -57 -49.5 -88.5t-110.5 -31.5zM250 32q48 0 73.5 26.5t36.5 76.5q-75 28 -120 28q-35 0 -57 -16.5t-22 -42.5q0 -33 25.5 -52.5t63.5 -19.5z" />
    <glyph glyph-name="U" unicode="U" horiz-adv-x="921" 
d="M824 722q39 0 57.5 -27t18.5 -71q0 -163 -190 -391q-4 -38 -4 -73q0 -121 68 -121q35 0 68 29.5t52 76.5l22 -7q-22 -65 -73.5 -105.5t-113.5 -40.5q-105 0 -128 119q-119 -119 -232 -119q-88 0 -131.5 55t-43.5 134q0 53 17.5 111.5t39 102.5t39 103.5t17.5 115.5
q0 45 -19.5 75t-58.5 30q-55 0 -85 -43.5t-30 -113.5q0 -105 73 -116l-5 -16q-10 -2 -29 -2q-65 0 -101.5 39t-36.5 96q0 84 60.5 132t165.5 48q92 -4 136.5 -50.5t44.5 -115.5q0 -71 -50.5 -205.5t-50.5 -209.5q0 -119 91 -119q80 0 184 104q-1 13 -1 41q0 86 13.5 175.5
t39.5 172t72 134.5t104 52zM842 678q-32 0 -59.5 -70.5t-42 -150.5t-24.5 -173q154 203 154 343q0 51 -28 51z" />
    <glyph glyph-name="V" unicode="V" horiz-adv-x="801" 
d="M427 540q0 -57 -36 -171.5t-36 -176.5q0 -58 25.5 -99.5t83.5 -41.5q70 0 136.5 64.5t106.5 163.5t40 198q0 75 -29 125.5t-93 50.5q-40 0 -66.5 -24t-26.5 -63q0 -8 2 -24l-14 -8q-34 36 -34 88q0 51 36 89.5t101 38.5q83 0 125.5 -60.5t42.5 -159.5q0 -88 -27.5 -182.5
t-75.5 -174t-120.5 -130.5t-154.5 -51q-79 0 -130.5 59.5t-51.5 143.5q0 61 41 185t41 203q0 114 -80 114q-53 0 -87.5 -52.5t-34.5 -128.5q0 -87 56 -104l-5 -16q-6 -1 -17 -1q-61 0 -95.5 39.5t-34.5 96.5q0 80 60.5 135t157.5 55q98 0 146 -50t48 -131z" />
    <glyph glyph-name="W" unicode="W" horiz-adv-x="1076" 
d="M426 56q62 0 137 49q-20 51 -20 125q0 115 44 189t120 74q80 0 80 -87q0 -55 -31 -121.5t-84 -126.5q13 -47 39.5 -74.5t64.5 -27.5q90 0 170 115.5t80 272.5q0 52 -12.5 97.5t-43 78t-75.5 32.5q-38 0 -64.5 -22.5t-26.5 -64.5q0 -13 3 -25l-14 -8q-33 40 -33 89
q0 53 37.5 91t96.5 38q84 0 128 -79t44 -188q0 -86 -24.5 -173t-67.5 -158t-108 -115.5t-139 -44.5q-100 0 -148 81q-109 -81 -214 -81q-70 0 -115.5 50.5t-45.5 138.5q0 49 18 106t39.5 100t39.5 99t18 104q0 108 -76 108q-59 0 -96 -50t-37 -131q0 -88 57 -105l-5 -16
q-6 -1 -17 -1q-61 0 -95.5 40t-34.5 97q0 82 63 135.5t166 53.5q88 0 136.5 -49t48.5 -126q0 -65 -50.5 -186t-50.5 -187q0 -50 24.5 -83.5t73.5 -33.5zM730 449q-31 0 -50.5 -61.5t-19.5 -132.5q0 -35 4 -62q95 109 95 212q0 44 -29 44z" />
    <glyph glyph-name="X" unicode="X" horiz-adv-x="875" 
d="M124 545l-17 5q21 93 69.5 135.5t110.5 42.5q47 0 82.5 -20.5t59 -59.5t37.5 -81.5t26 -100.5q19 50 32 81.5t35 71t44 62t53.5 38.5t67.5 16q57 0 99 -40t42 -100q0 -62 -42 -107.5t-114 -45.5q-28 0 -55 11l8 17q51 4 81 47.5t30 96.5q0 38 -19.5 58.5t-46.5 20.5
q-24 0 -44.5 -9t-38.5 -28t-31.5 -39t-28.5 -53t-25.5 -58t-25.5 -65q-7 -19 -11 -29q3 -19 9 -55t9.5 -55t9.5 -50.5t11.5 -48.5t14 -40.5t17.5 -36.5t21.5 -26t27.5 -18.5t33 -5.5q39 0 70.5 27.5t48.5 78.5l16 -5q-14 -88 -62 -134.5t-111 -46.5q-47 0 -83 20.5t-59.5 60
t-38 82t-26.5 101.5q-43 -133 -98.5 -200.5t-146.5 -67.5q-71 1 -113 44.5t-42 101.5q0 66 43.5 107.5t107.5 41.5q31 0 55 -14l-5 -17q-49 0 -77 -36t-28 -82q0 -41 23.5 -71t66.5 -30q29 0 55 16t46 41.5t39.5 64t33.5 76.5t29 86q-29 166 -41 206q-44 118 -112 125
q-88 0 -122 -107z" />
    <glyph glyph-name="Y" unicode="Y" horiz-adv-x="786" 
d="M537 92q-143 -25 -184 -40q-82 -29 -82 -87q0 -41 24 -60.5t61 -19.5q137 0 181 207zM543 123l50 252q-97 -176 -244 -178q-66 1 -104 44.5t-38 102.5q0 51 33 143.5t33 141.5q0 38 -17 64t-54 26q-60 0 -89 -40t-29 -108q0 -114 77 -125l-4 -16q-10 -2 -29 -2
q-66 0 -104.5 40.5t-38.5 99.5q0 82 58.5 128.5t161.5 46.5q96 -3 138 -43t42 -101q0 -47 -29 -138t-29 -121q0 -38 19 -63t60 -25q47 0 103.5 54.5t99.5 148.5l38 188q7 33 29.5 49.5t55.5 16.5q36 0 36 -35l-99 -521q103 35 116 109l21 -2q-5 -98 -143 -140l-2 -10
q-22 -137 -97.5 -207t-183.5 -70q-59 0 -104 32t-45 93q0 24 10 45t26 35.5t40 26.5t46.5 19.5t52.5 14.5t50.5 10.5t48 7.5t38.5 6z" />
    <glyph glyph-name="Z" unicode="Z" horiz-adv-x="562" 
d="M50 -37q0 -41 28 -61.5t69 -20.5q75 0 119 58t59 156q-145 -21 -190 -37q-85 -30 -85 -95zM10 -43q0 30 9.5 53t34.5 39.5t43 26.5t62.5 20t63.5 13t72 11q22 3 33 5q2 32 2 50q0 64 -22 112q-56 -17 -113 -17q-53 0 -81 15t-28 40q0 30 32 44t74 14q71 0 128 -27
q68 81 68 209q0 68 -28.5 111t-89.5 43q-64 0 -103.5 -42.5t-39.5 -110.5q0 -88 57 -100l-4 -16q-16 -5 -37 -5q-49 0 -79.5 33t-30.5 83q0 85 73.5 133.5t166.5 48.5q117 0 177 -61t60 -154q-3 -137 -132 -211q69 -61 84 -165q105 32 119 105l21 -2q-6 -94 -137 -132v-13
q0 -115 -82 -199t-213 -84q-65 0 -112.5 35t-47.5 95zM188 292q53 0 96 32q-35 40 -95 40q-27 0 -40 -10.5t-13 -26.5q0 -19 16 -27t36 -8z" />
    <glyph glyph-name="bracketleft" unicode="[" horiz-adv-x="389" 
d="M424 734l-5 -29h-124l-98 -826h140l-6 -29h-231l108 884h216z" />
    <glyph glyph-name="backslash" unicode="\" horiz-adv-x="315" 
d="M239 0l-234 746h51l234 -746h-51z" />
    <glyph glyph-name="bracketright" unicode="]" horiz-adv-x="389" 
d="M-35 -150l5 29h124l98 826h-140l6 29h231l-108 -884h-216z" />
    <glyph glyph-name="asciicircum" unicode="^" horiz-adv-x="429" 
d="M189 657l-134 -292h-38l172 376h56l172 -376h-87l-133 292h-8z" />
    <glyph glyph-name="underscore" unicode="_" horiz-adv-x="560" 
d="M17 -245h538l-12 -45h-538z" />
    <glyph glyph-name="grave" unicode="`" horiz-adv-x="228" 
d="M208 493l-11 -15l-154 144q-14 14 -14 29t15 28.5t34 13.5q21 0 37 -28z" />
    <glyph glyph-name="a" unicode="a" horiz-adv-x="650" 
d="M637 113l13 -9q-25 -51 -65.5 -77.5t-85.5 -26.5q-94 0 -94 124q0 20 3 41q-33 -75 -90 -124t-122 -49q-78 0 -117 50t-39 126q0 129 79 219.5t186 90.5q76 0 140 -56q17 41 66 41q46 0 46 -32l-39 -276q-12 -100 41 -100q38 0 78 58zM423 275l17 123q-44 39 -95 39
q-76 0 -127 -76.5t-51 -185.5q0 -52 19 -88.5t59 -36.5q60 0 112 75t66 150z" />
    <glyph glyph-name="b" unicode="b" horiz-adv-x="682" 
d="M220 242l-22 -178q-11 -64 -69 -64q-47 0 -47 32l74 588q8 69 -29 69q-30 0 -57 -33t-43 -78l-12 10q20 77 65 117.5t93 40.5q57 0 78.5 -43t14.5 -99l-37 -292q37 76 89.5 121t113.5 45q48 0 82.5 -18t53 -48.5t26.5 -63.5t8 -71q0 -41 -11 -82q59 10 90 36l11 -12
q-25 -37 -108 -47q-28 -80 -91 -130t-145 -50q-55 0 -84.5 25t-29.5 65q0 23 8 40.5t27 28.5t36 17.5t49.5 10t52 5t58.5 2.5q9 43 9 94q0 67 -22.5 104t-58.5 37q-53 0 -97 -51.5t-76 -127.5zM265 88q0 -28 20.5 -41.5t48.5 -13.5q46 0 78 35t48 95q-46 -2 -74.5 -4.5
t-59.5 -10t-46 -22.5t-15 -38z" />
    <glyph glyph-name="c" unicode="c" horiz-adv-x="523" 
d="M485 126l11 -9q-87 -125 -241 -125q-93 0 -151 55.5t-53 158.5q9 124 95 198t212 74q77 0 116.5 -31t37.5 -79q-2 -42 -41 -70t-83 -28q-26 0 -43 10l2 15q34 3 52.5 29t20.5 59q2 29 -16 50t-53 21q-74 0 -120 -66t-51 -155q-5 -97 32 -141t98 -44q45 0 93.5 22.5
t81.5 55.5z" />
    <glyph glyph-name="d" unicode="d" horiz-adv-x="662" 
d="M600 714l-71 -563q-1 -18 -1 -39t11 -39t32 -18q38 0 78 58l13 -9q-25 -51 -65.5 -77.5t-85.5 -26.5q-54 0 -77.5 45t-15.5 104l3 26q-34 -78 -96 -130.5t-128 -52.5q-78 0 -117.5 49t-39.5 124q0 130 79.5 221.5t186.5 91.5q81 0 146 -60l33 264q8 64 69 64q46 0 46 -32
zM346 435q-76 0 -127 -76.5t-51 -185.5q0 -52 19 -87.5t59 -35.5q59 0 113.5 75t74.5 150l14 114q-44 46 -102 46z" />
    <glyph glyph-name="e" unicode="e" horiz-adv-x="517" 
d="M178 210q22 29 53.5 48t59 28.5t52.5 20.5t40 31t15 52q0 31 -19.5 47.5t-47.5 16.5q-70 0 -112 -76t-42 -162q0 -1 0.5 -3t0.5 -3zM465 119l11 -9q-34 -58 -94 -88t-127 -30q-94 0 -149.5 54.5t-55.5 156.5q0 64 27 117.5t71 87t96 52t105 18.5q79 0 118.5 -32.5
t39.5 -80.5q0 -42 -28.5 -65.5t-71.5 -32t-88 -15t-85.5 -23.5t-55.5 -49q8 -63 47 -97.5t92 -34.5q92 0 148 71z" />
    <glyph glyph-name="f" unicode="f" horiz-adv-x="443" 
d="M70 -86q-43 -9 -67.5 -16t-52.5 -20t-41 -31.5t-13 -44.5q0 -31 21 -52t49 -21q23 0 41.5 13.5t28.5 30t17.5 46t10 44.5t5.5 43q1 5 1 8zM73 -59l68 537q16 135 68 201.5t154 66.5q75 0 112.5 -29.5t37.5 -76.5q0 -56 -49.5 -92t-107.5 -36q-13 0 -25 3v20q36 6 62 44
t26 80q0 29 -12.5 48.5t-38.5 19.5q-39 0 -66 -47.5t-48 -185.5l-19 -148q67 9 118.5 48.5t56.5 74.5l12 -3q10 -16 10 -40q0 -99 -180 -99h-19l-45 -356q74 25 112 67l10 -12q-35 -52 -125 -82q-7 -56 -18.5 -98t-34 -80t-61.5 -59t-93 -22q-51 0 -82.5 31.5t-31.5 77.5
q0 29 12.5 52t28.5 36.5t49 26t54.5 17.5z" />
    <glyph glyph-name="g" unicode="g" horiz-adv-x="595" 
d="M627 52l11 -10q-27 -64 -120 -97l-1 -8q-18 -131 -72 -191.5t-143 -60.5q-53 0 -91 28.5t-38 77.5q0 37 15 62.5t53 42t62 23t83 18.5q16 3 24 5l21 155q-33 -49 -84.5 -77t-108.5 -28q-76 0 -132 53t-56 153q2 125 88 202.5t214 77.5q77 0 117.5 -31t40.5 -79
q0 -42 -38.5 -70t-81.5 -28q-25 0 -44 10l2 15q34 3 52 30t18 60q0 28 -18.5 48.5t-53.5 20.5q-75 0 -121.5 -70t-46.5 -174q0 -71 27 -122t89 -51q40 0 80.5 28t62.5 71l1 7q7 56 66 56q16 0 29.5 -8t13.5 -22l-26 -198q76 29 106 81zM206 -199q0 -34 23 -53t55 -19
q55 0 82.5 49t39.5 136v3q-113 -23 -146 -39q-54 -27 -54 -77z" />
    <glyph glyph-name="h" unicode="h" horiz-adv-x="699" 
d="M585 63q30 0 52 24t43 68l14 -6q-25 -71 -61 -110.5t-99 -39.5q-56 0 -81 34.5t-25 87.5q0 43 19 113.5t19 99.5q0 58 -42 58q-22 0 -47.5 -22.5t-45.5 -51t-51 -56.5t-62 -36l-20 -162q-11 -64 -69 -64q-47 0 -47 32l74 588q8 69 -29 69q-30 0 -57 -33t-43 -78l-12 10
q20 77 65 117.5t93 40.5q57 0 78.5 -43t14.5 -99l-45 -354q29 13 53.5 41t41.5 57t37 57t50 45.5t69 17.5q47 0 76.5 -25.5t29.5 -79.5q0 -32 -20 -108.5t-20 -121.5q0 -70 47 -70z" />
    <glyph glyph-name="i" unicode="i" horiz-adv-x="324" 
d="M209 431l-40 -280q-10 -88 43 -88q46 0 93 92l14 -6q-49 -150 -160 -150q-57 0 -83.5 43.5t-17.5 107.5l35 249q8 59 62 64q11 19 44.5 44.5t33.5 41.5q0 11 -11.5 18.5t-25 12t-25 15.5t-11.5 27q0 20 21 36t45 16q26 0 43.5 -18t17.5 -52q0 -36 -21.5 -62t-51 -46.5
t-37.5 -33.5q32 -4 32 -31z" />
    <glyph glyph-name="j" unicode="j" horiz-adv-x="357" 
d="M-19 -271q27 1 45.5 16.5t29 47t15 55t10.5 66.5q-34 -7 -54.5 -12.5t-46 -15t-39.5 -20t-24 -27t-10 -37.5q0 -31 20.5 -52t53.5 -21zM278 549q0 10 -11.5 18t-25 12.5t-25 15.5t-11.5 28q0 20 21 35.5t45 15.5q25 0 43 -18t18 -52q0 -36 -21.5 -62t-51 -46.5
t-37.5 -33.5q33 -4 33 -31l-55 -460q74 26 110 67l10 -12q-35 -53 -124 -82q-26 -255 -207 -259q-51 0 -82.5 31.5t-31.5 77.5q0 29 12.5 52t28.5 36.5t49 26t54.5 17.5l64.5 15l56 458q7 59 60 64q11 18 44.5 43.5t33.5 42.5z" />
    <glyph glyph-name="k" unicode="k" horiz-adv-x="606" 
d="M219 232l-21 -168q-11 -64 -69 -64q-47 0 -47 32l74 588q8 69 -29 69q-30 0 -57 -33t-43 -78l-12 10q20 77 65 117.5t93 40.5q57 0 78.5 -43t14.5 -99l-44 -345q24 13 46.5 40.5t40.5 57t38 57.5t48.5 46t62.5 18q50 0 79.5 -29t29.5 -68q0 -60 -60.5 -98t-151.5 -48
q7 -50 48.5 -101.5t94.5 -51.5q60 0 89 73l14 -6q-45 -150 -148 -150q-74 0 -129 62t-55 172q202 54 202 141q0 18 -10.5 31t-31.5 13q-29 0 -56 -24.5t-46 -55.5t-48.5 -63t-59.5 -43z" />
    <glyph glyph-name="l" unicode="l" horiz-adv-x="397" 
d="M336 706q-33 0 -49 -37.5t-27 -121.5l-6 -45q57 36 88.5 71t31.5 80q0 53 -38 53zM251 470l-40 -333q-9 -73 44 -73q49 0 97 96l13 -6q-24 -71 -62.5 -113t-101.5 -42q-57 0 -83.5 42t-19.5 101l32 250q-71 -53 -90 -109l-15 5q17 71 109 136l15 119q13 101 57.5 152
t111.5 51q42 0 63.5 -28t21.5 -64q0 -55 -39.5 -96.5t-112.5 -87.5z" />
    <glyph glyph-name="m" unicode="m" horiz-adv-x="1062" 
d="M948 63q30 0 52 24t43 68l14 -6q-25 -71 -61 -110.5t-99 -39.5q-56 0 -81 34.5t-25 87.5q0 43 19 113.5t19 99.5q0 58 -42 58q-26 0 -55 -31t-63.5 -72t-67.5 -56l-25 -169q-10 -64 -69 -64q-47 0 -47 32l42 281q6 38 -1.5 58.5t-36.5 20.5q-21 0 -43 -19t-39.5 -43.5
t-45.5 -52.5t-57 -41l-25 -172q-11 -64 -71 -64q-47 0 -47 32l40 276q18 101 -34 101q-22 0 -50.5 -27.5t-54.5 -76.5l-12 10q28 73 72 110t95 37q119 0 95 -169l-5 -31q29 18 55.5 55.5t43.5 69.5t50 56.5t78 24.5q56 0 81 -35.5t25 -90.5q0 -23 -9 -80q27 19 53.5 56.5
t44.5 69t52 56t79 24.5q47 0 76.5 -25.5t29.5 -79.5q0 -32 -20 -108.5t-20 -121.5q0 -70 47 -70z" />
    <glyph glyph-name="n" unicode="n" horiz-adv-x="756" 
d="M642 63q30 0 52 24t43 68l14 -6q-25 -71 -61 -110.5t-99 -39.5q-56 0 -81 34.5t-25 87.5q0 43 19 113.5t19 99.5q0 58 -42 58q-22 0 -47 -22.5t-45 -50.5t-50.5 -56t-61.5 -37l-23 -162q-11 -64 -71 -64q-47 0 -47 32l40 276q18 101 -34 101q-22 0 -50.5 -27.5
t-54.5 -76.5l-12 10q28 73 72 110t95 37q119 0 95 -169l-6 -42q28 13 52 41t41 57t36.5 56.5t49.5 45t69 17.5q47 0 76.5 -25.5t29.5 -79.5q0 -32 -20 -108.5t-20 -121.5q0 -70 47 -70z" />
    <glyph glyph-name="o" unicode="o" horiz-adv-x="563" 
d="M259 -9q-104 0 -156.5 62t-52.5 147q0 116 75.5 197.5t188.5 81.5q80 0 128 -43q15 -2 26.5 -15.5t17.5 -28t14.5 -26.5t19.5 -12q23 0 39 28.5t19 56.5l15 -6q-5 -51 -30.5 -81t-63.5 -36q3 -22 3 -47q0 -111 -67.5 -194.5t-175.5 -83.5zM475 274q0 20 -3 40
q-36 2 -64 20.5t-28 46.5q0 27 26 46q-27 16 -59 16q-77 0 -123 -70t-46 -169q0 -78 34.5 -118.5t85.5 -40.5q81 0 129 73t48 156z" />
    <glyph glyph-name="p" unicode="p" horiz-adv-x="712" 
d="M129 -111q-27 4 -59 4q-61 0 -102.5 -21t-41.5 -66q0 -35 24.5 -55t55.5 -20q97 0 123 158zM39 -315q-66 0 -104.5 32t-38.5 82q0 45 26 73t60.5 37t77.5 9q25 0 73 -4l53 420l2 32t-7 27.5t-25 11.5q-30 0 -61.5 -29.5t-48.5 -63.5l-12 10q30 69 75.5 104.5t92.5 35.5
q55 0 77.5 -44.5t15.5 -99.5q34 71 84.5 115.5t113.5 44.5q75 0 122 -52t47 -135q0 -138 -74 -218.5t-194 -80.5q-80 0 -135 45l-17 -132q70 2 105 25l11 -10q-34 -39 -119 -41q-13 -80 -63.5 -137t-136.5 -57zM378 27q42 0 74 26t49 67t25 82.5t8 79.5q0 55 -18.5 97
t-64.5 42q-52 0 -94.5 -52t-70.5 -119l-23 -187q58 -36 115 -36z" />
    <glyph glyph-name="q" unicode="q" horiz-adv-x="646" 
d="M627 -154l14 -6q-52 -154 -166 -154q-33 0 -54.5 17.5t-28.5 43t-9 55.5t4 56l40 316q-34 -78 -94 -130t-126 -52q-78 0 -117.5 49t-39.5 124q0 130 79.5 221.5t186.5 91.5q80 0 143 -58q15 43 67 43q44 0 44 -32l-71 -567q-14 -114 36 -114q29 0 56.5 36.5t35.5 59.5z
M356 435q-76 0 -127 -76.5t-51 -185.5q0 -52 19 -87.5t59 -35.5q59 0 112 75.5t72 152.5l14 115q-43 42 -98 42z" />
    <glyph glyph-name="r" unicode="r" horiz-adv-x="540" 
d="M142 409q-22 0 -50.5 -27.5t-54.5 -76.5l-12 10q28 73 72 110t95 37q119 0 95 -169l-4 -26q33 84 86.5 147t115.5 63q33 0 49 -22t16 -51q0 -38 -19 -66t-50 -40l-15 6q4 12 4 26q0 25 -13 37t-33 12q-38 0 -79 -46t-69 -113l-22 -156q-11 -64 -71 -64q-47 0 -47 32
l40 276q18 101 -34 101z" />
    <glyph glyph-name="s" unicode="s" horiz-adv-x="518" 
d="M308 478q82 0 128.5 -30t46.5 -74q0 -32 -30 -56t-74 -24q-19 0 -30 4l-1 16q24 6 37 25t13 43q0 33 -24.5 52.5t-66.5 19.5q-58 0 -84.5 -21.5t-26.5 -53.5q0 -30 27 -54.5t65 -42t76.5 -35.5t65.5 -46.5t27 -65.5q0 -60 -62.5 -101.5t-166.5 -41.5q-90 0 -141.5 31.5
t-51.5 80.5q0 43 35.5 68.5t78.5 25.5q17 0 29 -4l-2 -15q-25 -5 -38 -24.5t-13 -45.5q0 -44 30 -68t79 -24q47 0 79.5 22t32.5 57q0 29 -26.5 52t-64 39.5t-74.5 34.5t-63.5 47t-26.5 67q0 48 36.5 81.5t84 47t96.5 13.5z" />
    <glyph glyph-name="t" unicode="t" horiz-adv-x="380" 
d="M268 599l-16 -147q77 7 110 44l10 -4q2 -10 2 -14q0 -50 -61 -50l-64 4l-39 -317q-3 -27 7.5 -40t29.5 -13q15 0 35.5 11.5t33.5 30.5l16 -9q-53 -103 -145 -103q-46 0 -70.5 30t-20.5 79l42 335h-89l4 25q57 6 88.5 39t52.5 92q8 24 41 24t33 -17z" />
    <glyph glyph-name="u" unicode="u" 
d="M614 431l-40 -280q-10 -88 43 -88q46 0 93 92l14 -6q-49 -150 -160 -150q-57 0 -83.5 43.5t-17.5 107.5l8 58q-22 -13 -51 -49.5t-52.5 -70.5t-62 -61.5t-80.5 -27.5q-45 0 -74 34t-29 88q0 47 24 123t24 107q0 57 -41 57q-52 0 -107 -103l-12 10q28 73 72 110t95 37
q50 0 75.5 -28.5t25.5 -74.5q0 -40 -22 -113.5t-22 -111.5q0 -60 43 -60q25 0 51 20.5t45.5 47t47 54t53.5 37.5l23 166q9 64 71 64q46 0 46 -32z" />
    <glyph glyph-name="v" unicode="v" horiz-adv-x="575" 
d="M376 374q0 47 27 75.5t64 28.5q38 0 65.5 -32t27.5 -87q0 -80 -36 -163.5t-105 -143.5t-151 -60q-61 0 -98 39.5t-37 100.5q0 37 19 102t19 107q0 65 -46 65q-23 0 -53 -23.5t-49 -63.5l-13 11q58 130 164 130q53 0 77 -35t24 -88q0 -35 -16 -95t-16 -91q0 -39 17.5 -67
t55.5 -29q73 0 139 79.5t66 167.5q0 42 -18 66t-46 24q-49 0 -66 -50l-13 5q-2 9 -2 27z" />
    <glyph glyph-name="w" unicode="w" horiz-adv-x="770" 
d="M560 347q-2 7 -2 22q0 42 25.5 75.5t68.5 33.5q37 0 61 -26.5t33 -63.5t9 -84q0 -79 -26 -148.5t-80.5 -116.5t-127.5 -47q-83 0 -124 52q-85 -52 -160 -52q-55 0 -97.5 33.5t-42.5 98.5q0 48 31.5 127.5t31.5 113.5q0 22 -11.5 34t-29.5 12q-51 0 -96 -91l-13 11
q51 129 148 129q57 0 82 -30.5t25 -78.5q0 -38 -26.5 -109t-26.5 -105q0 -45 25.5 -68t65.5 -23q41 0 81 21q-18 42 -18 89q0 63 30.5 110.5t88.5 47.5q33 0 49.5 -19t16.5 -49q0 -62 -70 -134q24 -57 81 -57q67 0 113.5 64t46.5 162q0 46 -19.5 79.5t-59.5 33.5
q-23 0 -43 -14.5t-27 -37.5zM473 136q55 61 55 111q0 33 -25 33q-39 0 -39 -77q0 -44 9 -67z" />
    <glyph glyph-name="x" unicode="x" horiz-adv-x="634" 
d="M82 325l-17 6q43 136 156 136q62 0 93.5 -42.5t49.5 -117.5q70 159 159 159q43 0 64.5 -25.5t21.5 -62.5q0 -40 -23 -67t-65 -28q-9 0 -13 1l-3 14q32 17 32 60q0 23 -12 39.5t-34 16.5q-15 0 -31 -8t-41 -41.5t-47 -90.5q2 -10 6.5 -33.5t7 -34.5t7 -31t8.5 -30.5
t10.5 -25.5t13 -22.5t15.5 -15.5t20.5 -11.5t24.5 -3.5q27 0 49 20t33 58l17 -6q-31 -143 -154 -146q-67 0 -100 44.5t-50 123.5q-27 -77 -68.5 -122.5t-91.5 -45.5q-47 0 -71 25t-24 61q0 38 25.5 68.5t68.5 32.5l3 -14q-22 -18 -22 -54q0 -28 15 -44t37 -16q35 0 67 38
t53 112q-20 111 -32 141q-23 56 -69 56q-26 0 -50 -20.5t-39 -52.5z" />
    <glyph glyph-name="y" unicode="y" horiz-adv-x="624" 
d="M234 134q0 -60 43 -60q25 0 50.5 20.5t44.5 46t46 53t53 38.5l26 167q9 64 71 64q44 0 44 -32l-71 -461q87 27 115 84l11 -10q-22 -72 -129 -101q-16 -121 -69.5 -189.5t-146.5 -68.5q-60 0 -105 33t-45 87q0 30 12.5 52.5t33.5 36t50 22.5t61.5 15t67.5 11q20 3 30 4
l40 260q-18 -12 -39.5 -38.5t-41.5 -54t-43 -54t-53.5 -43.5t-64.5 -17q-45 0 -74 34t-29 88q0 47 24 123t24 107q0 57 -41 57q-52 0 -107 -103l-12 10q28 73 72 110t95 37q50 0 75.5 -28.5t25.5 -74.5q0 -40 -22 -113.5t-22 -111.5zM202 -188q0 -36 27 -58.5t62 -22.5
q59 0 89 52.5t44 136.5q-125 -18 -162 -33q-60 -25 -60 -75z" />
    <glyph glyph-name="z" unicode="z" horiz-adv-x="473" 
d="M281 -48q2 22 2 40q0 54 -15 95q-42 -14 -87 -14q-47 0 -72 16.5t-25 39.5q0 26 26 40t57 14q68 0 122 -30q55 54 55 175q0 126 -100 126q-42 0 -72 -31t-30 -78q0 -31 14.5 -53t42.5 -23l1 -15q-26 -9 -48 -9q-42 0 -71 26t-29 68q0 66 55.5 102.5t144.5 36.5
q91 0 144 -50.5t53 -124.5q0 -55 -31 -103.5t-83 -81.5q58 -56 66 -138q79 29 104 81l11 -10q-21 -65 -114 -97q0 -115 -74 -192t-183 -77q-64 0 -107 30t-43 89q0 31 16.5 55t38 38t59 25t61 14.5t63.5 9t48 6.5zM165 162q-54 0 -54 -30q0 -16 16 -25.5t41 -9.5q45 0 83 22
q-31 43 -86 43zM277 -73q-12 -2 -41 -6.5t-42 -6.5t-37.5 -6.5t-37 -8.5t-31 -10.5t-27.5 -13.5t-19 -16.5t-14 -21t-4 -25.5q0 -39 26.5 -59t59.5 -20q72 0 113.5 57t53.5 137z" />
    <glyph glyph-name="braceleft" unicode="{" horiz-adv-x="314" 
d="M123 216q85 -28 85 -138q0 -43 -28.5 -129t-28.5 -128q0 -48 34 -84.5t89 -38.5q1 -14 1 -15q-97 0 -159.5 45t-62.5 119q0 36 11.5 70t25 58.5t25 65.5t11.5 89q0 30 -11 51.5t-34 24.5h-41l2 21h41q57 6 57 100q0 55 -19.5 123t-19.5 104q0 84 71 135.5t177 51.5
l-3 -15q-62 -2 -102.5 -44.5t-40.5 -100.5q0 -36 13.5 -107t13.5 -102q0 -113 -107 -156z" />
    <glyph glyph-name="bar" unicode="|" horiz-adv-x="119" 
d="M38 -184v925h44v-925h-44z" />
    <glyph glyph-name="braceright" unicode="}" horiz-adv-x="314" 
d="M191 216q-86 37 -86 132q0 41 29 126.5t29 128.5q0 49 -34.5 85t-90.5 38q1 14 1 15q97 0 159.5 -45.5t62.5 -118.5q0 -44 -18.5 -85.5t-37 -89t-18.5 -108.5t46 -67h41l-2 -21h-41q-57 -6 -57 -109q0 -55 18.5 -123t18.5 -104q0 -84 -71 -135.5t-175 -51.5l3 15
q61 2 101 44.5t40 100.5q0 36 -12.5 106.5t-12.5 101.5q0 52 24.5 99.5t82.5 65.5z" />
    <glyph glyph-name="asciitilde" unicode="~" horiz-adv-x="569" 
d="M515 139l-12 6q11 25 11 45q0 32 -21.5 51.5t-52.5 19.5q-36 0 -75.5 -18.5t-68.5 -41.5t-68.5 -41.5t-76.5 -18.5q-54 4 -83.5 38t-29.5 80q0 57 42 102l11 -6q-10 -23 -10 -47q0 -31 17 -50.5t50 -19.5q29 0 64.5 19.5t65 42.5t72.5 42.5t84 19.5q56 0 88.5 -38
t32.5 -89q0 -57 -40 -96z" />
    <glyph glyph-name="sterling" unicode="&#xa3;" horiz-adv-x="622" 
d="M407 645q79 0 121 -31t42 -80q0 -46 -36.5 -80t-87.5 -34q-28 0 -49 15l2 15q45 0 68 28.5t23 64.5q0 32 -24.5 55.5t-66.5 23.5q-64 0 -94 -45.5t-30 -104.5q0 -48 21 -149h207l-8 -30h-193q6 -39 6 -76q0 -61 -24 -109q9 -4 32.5 -14.5t35 -15t31 -11t37.5 -9t37 -2.5
q33 0 56.5 20t23.5 58q0 34 -31 50l10 16q71 -33 71 -105q0 -52 -39.5 -91.5t-104.5 -39.5q-24 0 -44.5 5t-42.5 19t-32.5 21.5t-36 30t-30.5 27.5q-58 -65 -147 -65q-44 0 -72 18t-28 51q0 37 32.5 55t82.5 18q44 0 85 -11q2 20 2 32q0 43 -20 128h-126l8 30h110
q-15 67 -15 112q0 82 59 145.5t179 64.5zM130 123q-30 0 -50 -14t-20 -39q0 -18 14 -31t40 -13q66 0 90 78q-35 19 -74 19z" />
    <glyph glyph-name="currency" unicode="&#xa4;" horiz-adv-x="759" 
d="M212 335l-5 -16q-2 0 -6 -0.5t-6 -0.5q-60 0 -93 39t-33 89q0 55 33.5 96t87.5 62t107 31t107 11q143 0 220.5 -59.5t77.5 -154.5q0 -85 -67.5 -142t-199.5 -57h-298l8 30h106q11 156 35 218q43 103 162 103l-2 -16q-44 -16 -58 -75.5t-23 -196.5q-1 -22 -2 -33h74
q88 0 128.5 52.5t40.5 126.5q0 82 -49.5 131.5t-145.5 49.5q-110 0 -186 -50t-76 -143q0 -34 15.5 -60.5t47.5 -34.5zM125 172l8 30h392l-8 -30h-168q-14 -86 -57 -139t-120 -53q-57 0 -89.5 26.5t-32.5 62.5q0 33 26.5 56.5t71.5 26.5l14 -13q-38 -15 -38 -70
q0 -28 13.5 -48t37.5 -20q34 0 48.5 44.5t20.5 126.5h-119z" />
    <glyph glyph-name="yen" unicode="&#xa5;" horiz-adv-x="685" 
d="M90 209l8 30h155l4 54q0 39 -2 69.5t-7 65t-15 60t-25.5 47.5t-40 33t-56.5 11q-53 0 -84 -34l-17 6q38 77 139 77q171 0 203 -224q62 240 210 240q52 0 77.5 -31t25.5 -74q0 -41 -32 -66.5t-71 -25.5q-30 0 -54 15l6 16q36 0 54.5 19.5t18.5 50.5q0 23 -15 39.5
t-40 16.5q-38 0 -70 -32t-52 -81t-32 -96.5t-17 -90.5l-5 -65h182l-8 -30h-440zM70 149l8 29h440l-9 -29h-162l-12 -119h109l-8 -30h-314l8 30h102l12 119h-174z" />
    <glyph glyph-name="brokenbar" unicode="&#xa6;" horiz-adv-x="164" 
d="M64 280l34 466h40l-33 -467zM22 -314l27 357h40l-25 -358z" />
    <glyph glyph-name="section" unicode="&#xa7;" horiz-adv-x="508" 
d="M342 572q21 5 33.5 26t12.5 46q0 37 -25 56t-70 19q-53 0 -83 -22.5t-30 -52.5q0 -31 27 -56.5t65 -44.5t76.5 -40t65.5 -53t27 -72t-28.5 -81.5t-69.5 -69.5q38 -41 38 -89q0 -67 -54.5 -107t-132.5 -40q-61 0 -110 29t-49 81q0 49 39 76.5t91 27.5q13 0 20 -1l-3 -15
q-30 -7 -46 -30t-16 -53q0 -38 26 -63.5t68 -25.5q45 0 75.5 24t30.5 56t-27 59.5t-65.5 48.5t-77 43.5t-65.5 55t-27 72.5q0 41 28 80t71 65q-37 40 -37 87q0 54 48 94.5t135 40.5q77 0 123.5 -27t46.5 -75q0 -43 -35.5 -65t-84.5 -22q-5 0 -13 2zM134 438q0 -38 31 -70
t87 -68.5t79 -59.5q37 34 37 78q0 38 -32 69t-88 65.5t-80 56.5q-34 -30 -34 -71z" />
    <glyph glyph-name="dieresis" unicode="&#xa8;" horiz-adv-x="389" 
d="M148 636q0 -24 -15.5 -40t-46.5 -16q-24 1 -38.5 15t-14.5 32q0 24 19 38t44 14q22 0 37 -11t15 -32zM356 636q0 -24 -15.5 -40t-46.5 -16q-24 1 -38.5 15t-14.5 32q0 24 19 38t44 14q22 0 37 -11t15 -32z" />
    <glyph glyph-name="copyright" unicode="&#xa9;" horiz-adv-x="865" 
d="M447 11q152 0 254.5 100t102.5 246q0 134 -87 222.5t-224 88.5q-151 0 -254 -102t-103 -250q0 -131 87 -218t224 -87zM445 -14q-146 0 -243 94.5t-97 234.5q0 157 114.5 267.5t275.5 110.5q147 0 243.5 -97t96.5 -239q0 -155 -114.5 -263t-275.5 -108zM643 240l13 -9
q-29 -50 -89.5 -80t-126.5 -30q-79 0 -131.5 45t-52.5 135q0 113 79.5 183t194.5 70q69 0 104.5 -26.5t35.5 -68.5q0 -39 -36.5 -64.5t-76.5 -25.5q-23 0 -40 10l2 12q32 3 48.5 28t16.5 54q0 25 -15 42.5t-45 17.5q-70 0 -110 -65t-40 -151q0 -72 34 -108.5t86 -36.5
q39 0 79.5 18t69.5 50z" />
    <glyph glyph-name="guillemotleft" unicode="&#xab;" horiz-adv-x="440" 
d="M25 239v30q69 20 131.5 64.5t77.5 99.5l16 -7q-8 -54 -36.5 -102t-65.5 -70q37 -22 65.5 -68.5t36.5 -100.5l-16 -7q-15 55 -77 98t-132 63zM200 239v30q69 20 131.5 64.5t77.5 99.5l16 -7q-8 -54 -36.5 -102t-65.5 -70q37 -22 65.5 -68.5t36.5 -100.5l-16 -7
q-15 55 -77 98t-132 63z" />
    <glyph glyph-name="logicalnot" unicode="&#xac;" horiz-adv-x="541" 
d="M452 197v221h-442l11 44h510v-265h-79z" />
    <glyph glyph-name="registered" unicode="&#xae;" horiz-adv-x="392" 
d="M190 392q64 0 105 39t41 99t-37.5 97t-98.5 37q-65 0 -105.5 -39.5t-40.5 -103.5q0 -57 37.5 -93t98.5 -36zM189 363q-70 0 -117 45.5t-47 111.5q0 72 51 121.5t125 49.5q70 0 118 -46.5t48 -114.5q0 -70 -52.5 -118.5t-125.5 -48.5zM194 607q-10 0 -12.5 -4t-3.5 -17
l-2 -47h21q40 0 40 34t-43 34zM113 454v16h19l6 1.5t3 3.5t1 10l4 104q0 7 -1 10t-3 3.5l-6 1.5h-19v16h92q31 0 46.5 -13.5t15.5 -30.5q0 -16 -16 -29t-39 -15q15 -3 24 -13.5t11 -20.5t6.5 -18.5t12.5 -8.5q14 0 18 26l10 -3q-3 -44 -43 -44q-18 0 -28.5 12.5t-13 27
t-11.5 27t-26 12.5l-2 -44q0 -7 1 -10t3 -3.5l6 -1.5h19v-16h-90z" />
    <glyph glyph-name="macron" unicode="&#xaf;" horiz-adv-x="294" 
d="M22 663l15 50h237l-15 -50h-237z" />
    <glyph glyph-name="degree" unicode="&#xb0;" horiz-adv-x="250" 
d="M25 608q0 42 29 71t71 29t71 -29t29 -71t-29 -71t-71 -29t-71 29t-29 71zM61 608q0 -26 19.5 -45t44.5 -19t44.5 19t19.5 45t-19.5 45t-44.5 19t-44.5 -19t-19.5 -45z" />
    <glyph glyph-name="plusminus" unicode="&#xb1;" horiz-adv-x="470" 
d="M210 329l14 191h43l-14 -191h207l-11 -42h-198l-10 -136h-43l10 136h-198l11 42h189zM449 87h-439l11 42h439z" />
    <glyph glyph-name="acute" unicode="&#xb4;" horiz-adv-x="233" 
d="M40 478l-11 15l93 172q16 28 37 28q19 0 34 -13.5t15 -28.5t-14 -29z" />
    <glyph glyph-name="mu" unicode="&#xb5;" horiz-adv-x="705" 
d="M251 431l-40 -280q-5 -29 6.5 -53t39.5 -24q24 0 48 18.5t42 42t43.5 51t48.5 40.5l24 173q9 64 71 64q46 0 46 -32l-40 -280q-10 -88 43 -88q46 0 93 92l14 -6q-49 -150 -160 -150q-50 0 -76.5 33.5t-26.5 87.5q0 20 8 77q-18 -16 -46 -53t-50.5 -67t-58.5 -54t-75 -24
q-62 0 -90 55v-18q0 -34 5.5 -101.5t5.5 -100.5q0 -119 -67 -119q-22 0 -38 12t-16 32q0 10 3.5 18.5t6 12t13.5 13.5t14 13q29 25 39.5 73t15.5 157t12 171l25 182q9 64 71 64q46 0 46 -32z" />
    <glyph glyph-name="paragraph" unicode="&#xb6;" horiz-adv-x="531" 
d="M272 163l20 211q-12 -2 -35 -2q-80 0 -133 44.5t-53 122.5q0 99 67.5 150.5t161.5 51.5h261l-4 -35h-39q-41 0 -58.5 -26t-20.5 -74q-30 -349 -31 -370q-7 -120 -67 -182t-158 -62q-69 0 -106 30.5t-37 73.5q0 53 36.5 81t85.5 28q27 0 48 -10l-3 -15q-38 -3 -58.5 -25.5
t-20.5 -60.5q0 -25 15 -43.5t41 -18.5q39 0 62 37.5t26 93.5zM345 614l-36 -451q-3 -49 -26 -87.5t-57 -53.5l2 -3q130 33 143 215q1 20 13.5 170.5t14.5 177.5q6 105 46 124h-26q-66 0 -74 -92z" />
    <glyph glyph-name="cedilla" unicode="&#xb8;" horiz-adv-x="196" 
d="M104 18h24l-35 -78q15 6 31 6q30 0 52 -19t22 -53q0 -48 -52 -77.5t-128 -29.5l3 17q42 4 69 26.5t27 47.5q0 18 -17.5 30.5t-51.5 12.5z" />
    <glyph glyph-name="guillemotright" unicode="&#xbb;" horiz-adv-x="440" 
d="M415 269v-30q-70 -20 -132 -63t-77 -98l-16 7q8 54 36.5 100.5t65.5 68.5q-37 22 -65.5 70t-36.5 102l16 7q15 -55 77.5 -99.5t131.5 -64.5zM240 269v-30q-70 -20 -132 -63t-77 -98l-16 7q8 54 36.5 100.5t65.5 68.5q-37 22 -65.5 70t-36.5 102l16 7q15 -55 77.5 -99.5
t131.5 -64.5z" />
    <glyph glyph-name="Agrave" unicode="&#xc0;" horiz-adv-x="950" 
d="M435 439q-50 12 -85 12q-48 0 -74.5 -24t-26.5 -60q0 -47 36.5 -72t92.5 -27q6 18 17 52.5t21 64t19 54.5zM908 370l-6 -22q-28 9 -58 9q-32 0 -80 -12q-15 -108 -15 -187q0 -117 76 -117q81 0 97 126l23 -1q-3 -82 -45.5 -128.5t-119.5 -46.5q-153 0 -153 177
q0 53 11 133q-150 -54 -231 -60q-21 -57 -40.5 -97.5t-47 -77.5t-63.5 -56t-80 -19q-66 0 -106 35t-40 82q0 46 36 82t92 37l8 -13q-40 -28 -40 -86q0 -40 21.5 -66t57.5 -26q55 0 92 52.5t71 151.5q-92 1 -155 36t-63 98q0 53 48 79t112 26q65 0 133 -19q23 61 48 106.5
t60.5 87t83.5 63t106 21.5q35 0 58 -17.5t19 -52.5q-3 -19 -22.5 -129.5t-27.5 -168.5q42 10 75 10q28 0 65 -10zM711 703q-84 -8 -137 -74t-96 -180q94 -33 168 -91q21 137 65 345zM417 269q86 4 224 57q1 2 1 6q-69 61 -172 96q-8 -23 -25.5 -77t-27.5 -82zM776 775
l-11 -15l-154 144q-14 14 -14 29t15 28.5t34 13.5q21 0 37 -28z" />
    <glyph glyph-name="Aacute" unicode="&#xc1;" horiz-adv-x="950" 
d="M435 439q-50 12 -85 12q-48 0 -74.5 -24t-26.5 -60q0 -47 36.5 -72t92.5 -27q6 18 17 52.5t21 64t19 54.5zM908 370l-6 -22q-28 9 -58 9q-32 0 -80 -12q-15 -108 -15 -187q0 -117 76 -117q81 0 97 126l23 -1q-3 -82 -45.5 -128.5t-119.5 -46.5q-153 0 -153 177
q0 53 11 133q-150 -54 -231 -60q-21 -57 -40.5 -97.5t-47 -77.5t-63.5 -56t-80 -19q-66 0 -106 35t-40 82q0 46 36 82t92 37l8 -13q-40 -28 -40 -86q0 -40 21.5 -66t57.5 -26q55 0 92 52.5t71 151.5q-92 1 -155 36t-63 98q0 53 48 79t112 26q65 0 133 -19q23 61 48 106.5
t60.5 87t83.5 63t106 21.5q35 0 58 -17.5t19 -52.5q-3 -19 -22.5 -129.5t-27.5 -168.5q42 10 75 10q28 0 65 -10zM711 703q-84 -8 -137 -74t-96 -180q94 -33 168 -91q21 137 65 345zM417 269q86 4 224 57q1 2 1 6q-69 61 -172 96q-8 -23 -25.5 -77t-27.5 -82zM642 752
l-11 15l93 172q16 28 37 28q19 0 34 -13.5t15 -28.5t-14 -29z" />
    <glyph glyph-name="Acircumflex" unicode="&#xc2;" horiz-adv-x="950" 
d="M435 439q-50 12 -85 12q-48 0 -74.5 -24t-26.5 -60q0 -47 36.5 -72t92.5 -27q6 18 17 52.5t21 64t19 54.5zM908 370l-6 -22q-28 9 -58 9q-32 0 -80 -12q-15 -108 -15 -187q0 -117 76 -117q81 0 97 126l23 -1q-3 -82 -45.5 -128.5t-119.5 -46.5q-153 0 -153 177
q0 53 11 133q-150 -54 -231 -60q-21 -57 -40.5 -97.5t-47 -77.5t-63.5 -56t-80 -19q-66 0 -106 35t-40 82q0 46 36 82t92 37l8 -13q-40 -28 -40 -86q0 -40 21.5 -66t57.5 -26q55 0 92 52.5t71 151.5q-92 1 -155 36t-63 98q0 53 48 79t112 26q65 0 133 -19q23 61 48 106.5
t60.5 87t83.5 63t106 21.5q35 0 58 -17.5t19 -52.5q-3 -19 -22.5 -129.5t-27.5 -168.5q42 10 75 10q28 0 65 -10zM711 703q-84 -8 -137 -74t-96 -180q94 -33 168 -91q21 137 65 345zM417 269q86 4 224 57q1 2 1 6q-69 61 -172 96q-8 -23 -25.5 -77t-27.5 -82zM682 925h41
q8 -51 44.5 -88t89.5 -52l-6 -12q-116 4 -148 47q-37 -43 -149 -47l-6 12q52 15 89 52t45 88z" />
    <glyph glyph-name="Atilde" unicode="&#xc3;" horiz-adv-x="934" 
d="M432 439q-50 12 -85 12q-48 0 -74.5 -24t-26.5 -60q0 -47 36.5 -72t92.5 -27q6 18 17 52.5t21 64t19 54.5zM905 370l-6 -22q-29 9 -58 9q-32 0 -80 -12q-15 -108 -15 -187q0 -117 76 -117q81 0 97 126l23 -1q-3 -82 -45.5 -128.5t-119.5 -46.5q-153 0 -153 177
q0 53 11 133q-150 -54 -231 -60q-21 -57 -40.5 -97.5t-47 -77.5t-63.5 -56t-80 -19q-66 0 -106 35t-40 82q0 46 36 82t92 37l8 -13q-40 -28 -40 -86q0 -40 21.5 -66t57.5 -26q55 0 92 52.5t71 151.5q-92 1 -155 36t-63 98q0 53 48 79t112 26q65 0 133 -19q23 61 48 106.5
t60.5 87t83.5 63t106 21.5q35 0 58 -17.5t19 -52.5q-3 -19 -22.5 -129.5t-27.5 -168.5q42 10 75 10q28 0 65 -10zM708 703q-84 -8 -137 -74t-96 -180q94 -33 168 -91q21 137 65 345zM414 269q86 4 224 57q1 2 1 6q-69 61 -172 96q-8 -23 -25.5 -77t-27.5 -82zM825 780l-12 3
q3 9 3 20q0 18 -10.5 31t-29.5 13q-29 0 -81.5 -34t-86.5 -34q-27 0 -48 20t-21 52q0 34 19 57l12 -3q-6 -13 -6 -25q0 -17 10.5 -28t28.5 -11q22 0 75.5 35.5t92.5 35.5q33 0 52.5 -24.5t19.5 -56.5q0 -31 -18 -51z" />
    <glyph glyph-name="Adieresis" unicode="&#xc4;" horiz-adv-x="950" 
d="M435 439q-50 12 -85 12q-48 0 -74.5 -24t-26.5 -60q0 -47 36.5 -72t92.5 -27q6 18 17 52.5t21 64t19 54.5zM908 370l-6 -22q-28 9 -58 9q-32 0 -80 -12q-15 -108 -15 -187q0 -117 76 -117q81 0 97 126l23 -1q-3 -82 -45.5 -128.5t-119.5 -46.5q-153 0 -153 177
q0 53 11 133q-150 -54 -231 -60q-21 -57 -40.5 -97.5t-47 -77.5t-63.5 -56t-80 -19q-66 0 -106 35t-40 82q0 46 36 82t92 37l8 -13q-40 -28 -40 -86q0 -40 21.5 -66t57.5 -26q55 0 92 52.5t71 151.5q-92 1 -155 36t-63 98q0 53 48 79t112 26q65 0 133 -19q23 61 48 106.5
t60.5 87t83.5 63t106 21.5q35 0 58 -17.5t19 -52.5q-3 -19 -22.5 -129.5t-27.5 -168.5q42 10 75 10q28 0 65 -10zM711 703q-84 -8 -137 -74t-96 -180q94 -33 168 -91q21 137 65 345zM417 269q86 4 224 57q1 2 1 6q-69 61 -172 96q-8 -23 -25.5 -77t-27.5 -82zM654 839
q0 -24 -15.5 -40t-46.5 -16q-24 1 -38.5 15t-14.5 32q0 24 19 38t44 14q22 0 37 -11t15 -32zM862 839q0 -24 -15.5 -40t-46.5 -16q-24 1 -38.5 15t-14.5 32q0 24 19 38t44 14q22 0 37 -11t15 -32z" />
    <glyph glyph-name="Aring" unicode="&#xc5;" horiz-adv-x="934" 
d="M432 439q-50 12 -85 12q-48 0 -74.5 -24t-26.5 -60q0 -47 36.5 -72t92.5 -27q6 18 17 52.5t21 64t19 54.5zM905 370l-6 -22q-29 9 -58 9q-32 0 -80 -12q-15 -108 -15 -187q0 -117 76 -117q81 0 97 126l23 -1q-3 -82 -45.5 -128.5t-119.5 -46.5q-153 0 -153 177
q0 53 11 133q-150 -54 -231 -60q-21 -57 -40.5 -97.5t-47 -77.5t-63.5 -56t-80 -19q-66 0 -106 35t-40 82q0 46 36 82t92 37l8 -13q-40 -28 -40 -86q0 -40 21.5 -66t57.5 -26q55 0 92 52.5t71 151.5q-92 1 -155 36t-63 98q0 53 48 79t112 26q65 0 133 -19q23 61 48 106.5
t60.5 87t83.5 63t106 21.5q35 0 58 -17.5t19 -52.5q-3 -19 -22.5 -129.5t-27.5 -168.5q42 10 75 10q28 0 65 -10zM708 703q-84 -8 -137 -74t-96 -180q94 -33 168 -91q21 137 65 345zM414 269q86 4 224 57q1 2 1 6q-69 61 -172 96q-8 -23 -25.5 -77t-27.5 -82zM724 775
q-51 0 -77.5 20.5t-26.5 54.5q0 46 35 67.5t81 21.5q42 0 73 -18.5t31 -57.5q0 -38 -30.5 -63t-85.5 -25zM726 794q22 0 35.5 21.5t13.5 48.5q0 24 -10.5 40t-30.5 16q-23 0 -36 -20.5t-13 -47.5q0 -24 10.5 -41t30.5 -17z" />
    <glyph glyph-name="AE" unicode="&#xc6;" horiz-adv-x="1203" 
d="M793 714q-104 0 -168 -55t-109 -155q112 -41 197 -105q10 6 32 16q-64 61 -64 144q0 55 30.5 95.5t81.5 59.5zM411 327q51 139 63 167q-56 16 -97 16q-48 0 -74.5 -24t-26.5 -60q0 -49 38 -73t97 -26zM507 483q-21 -49 -57 -155q108 6 240 61q-76 56 -183 94zM732 209
q0 -81 45 -137.5t126 -56.5t130 45.5t49 118.5q0 41 -18.5 70t-58.5 29l-3 16q21 10 47 10q61 0 96 -38t35 -87q0 -85 -87.5 -136.5t-208.5 -51.5q-135 0 -210.5 60.5t-75.5 161.5q0 78 50 134q-110 -42 -208 -47q-20 -58 -35 -95.5t-39 -82t-49 -70.5t-60.5 -43.5
t-77.5 -17.5q-62 0 -96.5 34t-34.5 81t34 83t92 39l8 -13q-45 -31 -45 -86q0 -29 18.5 -48.5t54.5 -19.5q35 0 63.5 17.5t51.5 54t39.5 73.5t36.5 93q-94 0 -159 35t-65 99q0 53 48 79t112 26q68 0 146 -24q50 106 116.5 166t169.5 60q31 0 76 -7q47 11 100 11
q104 0 168 -44.5t64 -106.5q0 -51 -34.5 -78.5t-80.5 -27.5q-25 0 -46 9l4 16q33 1 50 27.5t17 61.5q0 56 -35 87.5t-94 31.5q-78 0 -117.5 -53t-39.5 -126q0 -58 22 -101q52 11 97 11q49 0 83.5 -16t34.5 -43q0 -22 -24 -35.5t-65 -13.5q-87 0 -152 35q-65 -50 -65 -169z
M925 432q-42 0 -82 -20q35 -47 103 -47q44 0 44 32q0 19 -20.5 27t-44.5 8z" />
    <glyph glyph-name="Ccedilla" unicode="&#xc7;" horiz-adv-x="657" 
d="M586 200l21 -9q-35 -88 -109 -139t-164 -59l-25 -57q15 6 31 6q30 0 52 -19t22 -53q0 -48 -52 -77.5t-128 -29.5l3 17q42 4 69 26.5t27 47.5q0 18 -17.5 30.5t-51.5 12.5l45 94h-8q-134 0 -202.5 84.5t-68.5 221.5q0 89 25.5 169t74.5 142.5t126.5 99t173.5 36.5
q88 0 155 -47.5t67 -132.5q0 -80 -52 -132t-129 -52q-35 0 -65 19l5 16q2 0 5.5 -0.5t5.5 -0.5q63 0 98 54.5t35 120.5q0 56 -29 93.5t-88 37.5q-84 0 -149.5 -60.5t-99 -152.5t-33.5 -195q0 -114 48.5 -188.5t147.5 -74.5q74 0 136.5 42t97.5 109z" />
    <glyph glyph-name="Egrave" unicode="&#xc8;" horiz-adv-x="627" 
d="M164 209q0 -81 45 -137.5t126 -56.5t130 45.5t49 118.5q0 41 -18.5 70t-58.5 29l-3 16q21 10 47 10q61 0 96 -38t35 -87q0 -85 -87.5 -136.5t-208.5 -51.5q-135 0 -210.5 60.5t-75.5 161.5q0 136 147 202q-64 61 -64 144q0 85 71.5 135t192.5 50q104 0 168 -44.5
t64 -106.5q0 -51 -34.5 -78.5t-80.5 -27.5q-25 0 -46 9l4 16q33 1 50 27.5t17 61.5q0 56 -35 87.5t-94 31.5q-78 0 -117.5 -53t-39.5 -126q0 -58 22 -101q52 11 97 11q49 0 83.5 -16t34.5 -43q0 -22 -24 -35.5t-65 -13.5q-87 0 -152 35q-65 -50 -65 -169zM357 432
q-42 0 -82 -20q35 -47 103 -47q44 0 44 32q0 19 -20.5 27t-44.5 8zM434 777l-11 -15l-154 144q-14 14 -14 29t15 28.5t34 13.5q21 0 37 -28z" />
    <glyph glyph-name="Eacute" unicode="&#xc9;" horiz-adv-x="627" 
d="M164 209q0 -81 45 -137.5t126 -56.5t130 45.5t49 118.5q0 41 -18.5 70t-58.5 29l-3 16q21 10 47 10q61 0 96 -38t35 -87q0 -85 -87.5 -136.5t-208.5 -51.5q-135 0 -210.5 60.5t-75.5 161.5q0 136 147 202q-64 61 -64 144q0 85 71.5 135t192.5 50q104 0 168 -44.5
t64 -106.5q0 -51 -34.5 -78.5t-80.5 -27.5q-25 0 -46 9l4 16q33 1 50 27.5t17 61.5q0 56 -35 87.5t-94 31.5q-78 0 -117.5 -53t-39.5 -126q0 -58 22 -101q52 11 97 11q49 0 83.5 -16t34.5 -43q0 -22 -24 -35.5t-65 -13.5q-87 0 -152 35q-65 -50 -65 -169zM357 432
q-42 0 -82 -20q35 -47 103 -47q44 0 44 32q0 19 -20.5 27t-44.5 8zM266 762l-11 15l93 172q16 28 37 28q19 0 34 -13.5t15 -28.5t-14 -29z" />
    <glyph glyph-name="Ecircumflex" unicode="&#xca;" horiz-adv-x="627" 
d="M164 209q0 -81 45 -137.5t126 -56.5t130 45.5t49 118.5q0 41 -18.5 70t-58.5 29l-3 16q21 10 47 10q61 0 96 -38t35 -87q0 -85 -87.5 -136.5t-208.5 -51.5q-135 0 -210.5 60.5t-75.5 161.5q0 136 147 202q-64 61 -64 144q0 85 71.5 135t192.5 50q104 0 168 -44.5
t64 -106.5q0 -51 -34.5 -78.5t-80.5 -27.5q-25 0 -46 9l4 16q33 1 50 27.5t17 61.5q0 56 -35 87.5t-94 31.5q-78 0 -117.5 -53t-39.5 -126q0 -58 22 -101q52 11 97 11q49 0 83.5 -16t34.5 -43q0 -22 -24 -35.5t-65 -13.5q-87 0 -152 35q-65 -50 -65 -169zM357 432
q-42 0 -82 -20q35 -47 103 -47q44 0 44 32q0 19 -20.5 27t-44.5 8zM363 943h41q8 -51 44.5 -88t89.5 -52l-6 -12q-116 4 -148 47q-37 -43 -149 -47l-6 12q52 15 89 52t45 88z" />
    <glyph glyph-name="Edieresis" unicode="&#xcb;" horiz-adv-x="627" 
d="M164 209q0 -81 45 -137.5t126 -56.5t130 45.5t49 118.5q0 41 -18.5 70t-58.5 29l-3 16q21 10 47 10q61 0 96 -38t35 -87q0 -85 -87.5 -136.5t-208.5 -51.5q-135 0 -210.5 60.5t-75.5 161.5q0 136 147 202q-64 61 -64 144q0 85 71.5 135t192.5 50q104 0 168 -44.5
t64 -106.5q0 -51 -34.5 -78.5t-80.5 -27.5q-25 0 -46 9l4 16q33 1 50 27.5t17 61.5q0 56 -35 87.5t-94 31.5q-78 0 -117.5 -53t-39.5 -126q0 -58 22 -101q52 11 97 11q49 0 83.5 -16t34.5 -43q0 -22 -24 -35.5t-65 -13.5q-87 0 -152 35q-65 -50 -65 -169zM357 432
q-42 0 -82 -20q35 -47 103 -47q44 0 44 32q0 19 -20.5 27t-44.5 8zM323 865q0 -24 -15.5 -40t-46.5 -16q-24 1 -38.5 15t-14.5 32q0 24 19 38t44 14q22 0 37 -11t15 -32zM531 865q0 -24 -15.5 -40t-46.5 -16q-24 1 -38.5 15t-14.5 32q0 24 19 38t44 14q22 0 37 -11t15 -32z
" />
    <glyph glyph-name="Igrave" unicode="&#xcc;" horiz-adv-x="667" 
d="M250 426l1 -16q-27 -9 -52 -9q-64 0 -108.5 42t-44.5 113q0 83 61.5 131t140.5 48q85 0 185 -60q62 52 172 52q41 0 70 -16t29 -46q0 -39 -34.5 -58t-79.5 -19q-58 0 -98 21q-11 -34 -17.5 -100.5t-9 -131t-17 -136t-38.5 -125t-76.5 -89t-128.5 -35.5q-81 2 -123 36
t-42 84q0 51 39 82t90 31l8 -13q-40 -17 -40 -83q0 -46 18.5 -77.5t54.5 -31.5q43 0 69 40.5t36 107t14.5 136.5t12 145t21.5 116q18 55 49 90q-77 45 -134 45q-66 0 -100 -40.5t-34 -99.5q0 -53 28.5 -93.5t77.5 -40.5zM596 704q-61 0 -94 -69q46 -22 88 -22q25 0 44.5 14
t19.5 36q0 41 -58 41zM561 762l-11 -15l-154 144q-14 14 -14 29t15 28.5t34 13.5q21 0 37 -28z" />
    <glyph glyph-name="Iacute" unicode="&#xcd;" horiz-adv-x="667" 
d="M250 426l1 -16q-27 -9 -52 -9q-64 0 -108.5 42t-44.5 113q0 83 61.5 131t140.5 48q85 0 185 -60q62 52 172 52q41 0 70 -16t29 -46q0 -39 -34.5 -58t-79.5 -19q-58 0 -98 21q-11 -34 -17.5 -100.5t-9 -131t-17 -136t-38.5 -125t-76.5 -89t-128.5 -35.5q-81 2 -123 36
t-42 84q0 51 39 82t90 31l8 -13q-40 -17 -40 -83q0 -46 18.5 -77.5t54.5 -31.5q43 0 69 40.5t36 107t14.5 136.5t12 145t21.5 116q18 55 49 90q-77 45 -134 45q-66 0 -100 -40.5t-34 -99.5q0 -53 28.5 -93.5t77.5 -40.5zM596 704q-61 0 -94 -69q46 -22 88 -22q25 0 44.5 14
t19.5 36q0 41 -58 41zM292 751l-11 15l93 172q16 28 37 28q19 0 34 -13.5t15 -28.5t-14 -29z" />
    <glyph glyph-name="Icircumflex" unicode="&#xce;" horiz-adv-x="667" 
d="M250 426l1 -16q-27 -9 -52 -9q-64 0 -108.5 42t-44.5 113q0 83 61.5 131t140.5 48q85 0 185 -60q62 52 172 52q41 0 70 -16t29 -46q0 -39 -34.5 -58t-79.5 -19q-58 0 -98 21q-11 -34 -17.5 -100.5t-9 -131t-17 -136t-38.5 -125t-76.5 -89t-128.5 -35.5q-81 2 -123 36
t-42 84q0 51 39 82t90 31l8 -13q-40 -17 -40 -83q0 -46 18.5 -77.5t54.5 -31.5q43 0 69 40.5t36 107t14.5 136.5t12 145t21.5 116q18 55 49 90q-77 45 -134 45q-66 0 -100 -40.5t-34 -99.5q0 -53 28.5 -93.5t77.5 -40.5zM596 704q-61 0 -94 -69q46 -22 88 -22q25 0 44.5 14
t19.5 36q0 41 -58 41zM413 927h41q8 -51 44.5 -88t89.5 -52l-6 -12q-116 4 -148 47q-37 -43 -149 -47l-6 12q52 15 89 52t45 88z" />
    <glyph glyph-name="Idieresis" unicode="&#xcf;" horiz-adv-x="667" 
d="M250 426l1 -16q-27 -9 -52 -9q-64 0 -108.5 42t-44.5 113q0 83 61.5 131t140.5 48q85 0 185 -60q62 52 172 52q41 0 70 -16t29 -46q0 -39 -34.5 -58t-79.5 -19q-58 0 -98 21q-11 -34 -17.5 -100.5t-9 -131t-17 -136t-38.5 -125t-76.5 -89t-128.5 -35.5q-81 2 -123 36
t-42 84q0 51 39 82t90 31l8 -13q-40 -17 -40 -83q0 -46 18.5 -77.5t54.5 -31.5q43 0 69 40.5t36 107t14.5 136.5t12 145t21.5 116q18 55 49 90q-77 45 -134 45q-66 0 -100 -40.5t-34 -99.5q0 -53 28.5 -93.5t77.5 -40.5zM596 704q-61 0 -94 -69q46 -22 88 -22q25 0 44.5 14
t19.5 36q0 41 -58 41zM395 824q0 -24 -15.5 -40t-46.5 -16q-24 1 -38.5 15t-14.5 32q0 24 19 38t44 14q22 0 37 -11t15 -32zM603 824q0 -24 -15.5 -40t-46.5 -16q-24 1 -38.5 15t-14.5 32q0 24 19 38t44 14q22 0 37 -11t15 -32z" />
    <glyph glyph-name="Ntilde" unicode="&#xd1;" horiz-adv-x="1014" 
d="M159 225l7 -13q-39 -17 -39 -84q0 -46 18.5 -77t54.5 -31q42 0 68.5 37.5t38.5 101.5t18.5 130t14.5 142t19 119q21 78 81 109q-31 0 -91.5 15.5t-89.5 15.5q-49 0 -80.5 -30.5t-31.5 -96.5q0 -52 28.5 -85t87.5 -34l-3 -16q-33 -11 -62 -11q-62 0 -106 39.5t-44 106.5
q0 77 54.5 119t123.5 42q39 0 110.5 -18.5t103.5 -18.5q58 0 114 43l16 -18q-66 -43 -87.5 -120t-30.5 -232q97 345 296 345q134 0 134 -163q0 -70 -41 -182.5t-41 -202.5q0 -118 77 -118q66 0 110 97l22 -7q-46 -137 -172 -137q-60 0 -97 27t-49 62.5t-12 80.5
q0 76 41.5 203.5t41.5 189.5q0 89 -67 89q-62 0 -135.5 -104t-110.5 -250q-34 -298 -254 -298q-82 0 -123.5 34.5t-41.5 85.5t39 82t90 31zM687 769l-12 3q3 9 3 20q0 18 -10.5 31t-29.5 13q-29 0 -81.5 -34t-86.5 -34q-27 0 -48 20t-21 52q0 34 19 57l12 -3q-6 -14 -6 -25
q0 -17 10.5 -28t28.5 -11q22 0 75.5 35.5t92.5 35.5q33 0 52.5 -24.5t19.5 -56.5t-18 -51z" />
    <glyph glyph-name="Ograve" unicode="&#xd2;" horiz-adv-x="769" 
d="M477 266q-39 1 -61.5 39.5t-22.5 90.5q0 60 33 103t85 43q49 0 75.5 -47.5t26.5 -125.5q0 -43 -7 -88.5t-24 -94t-42.5 -86t-66 -61.5t-90.5 -24q-93 0 -142.5 78.5t-49.5 190.5q0 99 31.5 185t98.5 143.5t156 57.5q92 0 146 -62l12 21q-69 69 -182 69
q-175 -7 -281.5 -120.5t-106.5 -286.5q0 -128 79.5 -214t226.5 -86q157 0 262.5 99.5t105.5 250.5q0 92 -56.5 158.5t-166.5 66.5q-88 0 -149.5 -55t-61.5 -140q0 -59 34 -96t87 -37q26 0 55 10zM518 746l-11 -15l-154 144q-14 14 -14 29t15 28.5t34 13.5q21 0 37 -28z" />
    <glyph glyph-name="Oacute" unicode="&#xd3;" horiz-adv-x="769" 
d="M477 266q-39 1 -61.5 39.5t-22.5 90.5q0 60 33 103t85 43q49 0 75.5 -47.5t26.5 -125.5q0 -43 -7 -88.5t-24 -94t-42.5 -86t-66 -61.5t-90.5 -24q-93 0 -142.5 78.5t-49.5 190.5q0 99 31.5 185t98.5 143.5t156 57.5q92 0 146 -62l12 21q-69 69 -182 69
q-175 -7 -281.5 -120.5t-106.5 -286.5q0 -128 79.5 -214t226.5 -86q157 0 262.5 99.5t105.5 250.5q0 92 -56.5 158.5t-166.5 66.5q-88 0 -149.5 -55t-61.5 -140q0 -59 34 -96t87 -37q26 0 55 10zM354 728l-11 15l93 172q16 28 37 28q19 0 34 -13.5t15 -28.5t-14 -29z" />
    <glyph glyph-name="Ocircumflex" unicode="&#xd4;" horiz-adv-x="769" 
d="M477 266q-39 1 -61.5 39.5t-22.5 90.5q0 60 33 103t85 43q49 0 75.5 -47.5t26.5 -125.5q0 -43 -7 -88.5t-24 -94t-42.5 -86t-66 -61.5t-90.5 -24q-93 0 -142.5 78.5t-49.5 190.5q0 99 31.5 185t98.5 143.5t156 57.5q92 0 146 -62l12 21q-69 69 -182 69
q-175 -7 -281.5 -120.5t-106.5 -286.5q0 -128 79.5 -214t226.5 -86q157 0 262.5 99.5t105.5 250.5q0 92 -56.5 158.5t-166.5 66.5q-88 0 -149.5 -55t-61.5 -140q0 -59 34 -96t87 -37q26 0 55 10zM433 897h41q8 -51 44.5 -88t89.5 -52l-6 -12q-116 4 -148 47
q-37 -43 -149 -47l-6 12q52 15 89 52t45 88z" />
    <glyph glyph-name="Otilde" unicode="&#xd5;" horiz-adv-x="769" 
d="M477 266q-39 1 -61.5 39.5t-22.5 90.5q0 60 33 103t85 43q49 0 75.5 -47.5t26.5 -125.5q0 -43 -7 -88.5t-24 -94t-42.5 -86t-66 -61.5t-90.5 -24q-93 0 -142.5 78.5t-49.5 190.5q0 99 31.5 185t98.5 143.5t156 57.5q92 0 146 -62l12 21q-69 69 -182 69
q-175 -7 -281.5 -120.5t-106.5 -286.5q0 -128 79.5 -214t226.5 -86q157 0 262.5 99.5t105.5 250.5q0 92 -56.5 158.5t-166.5 66.5q-88 0 -149.5 -55t-61.5 -140q0 -59 34 -96t87 -37q26 0 55 10zM560 754l-12 3q3 9 3 20q0 18 -10.5 31t-29.5 13q-29 0 -81.5 -34t-86.5 -34
q-27 0 -48 20t-21 52q0 34 19 57l12 -3q-6 -13 -6 -25q0 -17 10.5 -28t28.5 -11q22 0 75.5 35.5t92.5 35.5q33 0 52.5 -24.5t19.5 -56.5q0 -31 -18 -51z" />
    <glyph glyph-name="Odieresis" unicode="&#xd6;" horiz-adv-x="769" 
d="M477 266q-39 1 -61.5 39.5t-22.5 90.5q0 60 33 103t85 43q49 0 75.5 -47.5t26.5 -125.5q0 -43 -7 -88.5t-24 -94t-42.5 -86t-66 -61.5t-90.5 -24q-93 0 -142.5 78.5t-49.5 190.5q0 99 31.5 185t98.5 143.5t156 57.5q92 0 146 -62l12 21q-69 69 -182 69
q-175 -7 -281.5 -120.5t-106.5 -286.5q0 -128 79.5 -214t226.5 -86q157 0 262.5 99.5t105.5 250.5q0 92 -56.5 158.5t-166.5 66.5q-88 0 -149.5 -55t-61.5 -140q0 -59 34 -96t87 -37q26 0 55 10zM394 811q0 -24 -15.5 -40t-46.5 -16q-24 1 -38.5 15t-14.5 32q0 24 19 38
t44 14q22 0 37 -11t15 -32zM602 811q0 -24 -15.5 -40t-46.5 -16q-24 1 -38.5 15t-14.5 32q0 24 19 38t44 14q22 0 37 -11t15 -32z" />
    <glyph glyph-name="multiply" unicode="&#xd7;" horiz-adv-x="404" 
d="M15 167l157 144l-143 132l24 33l149 -137l149 137l25 -33l-144 -132l157 -144l-25 -33l-162 149l-162 -149z" />
    <glyph glyph-name="Ugrave" unicode="&#xd9;" horiz-adv-x="921" 
d="M824 722q39 0 57.5 -27t18.5 -71q0 -163 -190 -391q-4 -38 -4 -73q0 -121 68 -121q35 0 68 29.5t52 76.5l22 -7q-22 -65 -73.5 -105.5t-113.5 -40.5q-105 0 -128 119q-119 -119 -232 -119q-88 0 -131.5 55t-43.5 134q0 53 17.5 111.5t39 102.5t39 103.5t17.5 115.5
q0 45 -19.5 75t-58.5 30q-55 0 -85 -43.5t-30 -113.5q0 -105 73 -116l-5 -16q-10 -2 -29 -2q-65 0 -101.5 39t-36.5 96q0 84 60.5 132t165.5 48q92 -4 136.5 -50.5t44.5 -115.5q0 -71 -50.5 -205.5t-50.5 -209.5q0 -119 91 -119q80 0 184 104q-1 13 -1 41q0 86 13.5 175.5
t39.5 172t72 134.5t104 52zM842 678q-32 0 -59.5 -70.5t-42 -150.5t-24.5 -173q154 203 154 343q0 51 -28 51zM681 746l-11 -15l-154 144q-14 14 -14 29t15 28.5t34 13.5q21 0 37 -28z" />
    <glyph glyph-name="Uacute" unicode="&#xda;" horiz-adv-x="921" 
d="M824 722q39 0 57.5 -27t18.5 -71q0 -163 -190 -391q-4 -38 -4 -73q0 -121 68 -121q35 0 68 29.5t52 76.5l22 -7q-22 -65 -73.5 -105.5t-113.5 -40.5q-105 0 -128 119q-119 -119 -232 -119q-88 0 -131.5 55t-43.5 134q0 53 17.5 111.5t39 102.5t39 103.5t17.5 115.5
q0 45 -19.5 75t-58.5 30q-55 0 -85 -43.5t-30 -113.5q0 -105 73 -116l-5 -16q-10 -2 -29 -2q-65 0 -101.5 39t-36.5 96q0 84 60.5 132t165.5 48q92 -4 136.5 -50.5t44.5 -115.5q0 -71 -50.5 -205.5t-50.5 -209.5q0 -119 91 -119q80 0 184 104q-1 13 -1 41q0 86 13.5 175.5
t39.5 172t72 134.5t104 52zM842 678q-32 0 -59.5 -70.5t-42 -150.5t-24.5 -173q154 203 154 343q0 51 -28 51zM457 730l-11 15l93 172q16 28 37 28q19 0 34 -13.5t15 -28.5t-14 -29z" />
    <glyph glyph-name="Ucircumflex" unicode="&#xdb;" horiz-adv-x="921" 
d="M824 722q39 0 57.5 -27t18.5 -71q0 -163 -190 -391q-4 -38 -4 -73q0 -121 68 -121q35 0 68 29.5t52 76.5l22 -7q-22 -65 -73.5 -105.5t-113.5 -40.5q-105 0 -128 119q-119 -119 -232 -119q-88 0 -131.5 55t-43.5 134q0 53 17.5 111.5t39 102.5t39 103.5t17.5 115.5
q0 45 -19.5 75t-58.5 30q-55 0 -85 -43.5t-30 -113.5q0 -105 73 -116l-5 -16q-10 -2 -29 -2q-65 0 -101.5 39t-36.5 96q0 84 60.5 132t165.5 48q92 -4 136.5 -50.5t44.5 -115.5q0 -71 -50.5 -205.5t-50.5 -209.5q0 -119 91 -119q80 0 184 104q-1 13 -1 41q0 86 13.5 175.5
t39.5 172t72 134.5t104 52zM842 678q-32 0 -59.5 -70.5t-42 -150.5t-24.5 -173q154 203 154 343q0 51 -28 51zM560 895h41q8 -51 44.5 -88t89.5 -52l-6 -12q-116 4 -148 47q-37 -43 -149 -47l-6 12q52 15 89 52t45 88z" />
    <glyph glyph-name="Udieresis" unicode="&#xdc;" horiz-adv-x="921" 
d="M824 722q39 0 57.5 -27t18.5 -71q0 -163 -190 -391q-4 -38 -4 -73q0 -121 68 -121q35 0 68 29.5t52 76.5l22 -7q-22 -65 -73.5 -105.5t-113.5 -40.5q-105 0 -128 119q-119 -119 -232 -119q-88 0 -131.5 55t-43.5 134q0 53 17.5 111.5t39 102.5t39 103.5t17.5 115.5
q0 45 -19.5 75t-58.5 30q-55 0 -85 -43.5t-30 -113.5q0 -105 73 -116l-5 -16q-10 -2 -29 -2q-65 0 -101.5 39t-36.5 96q0 84 60.5 132t165.5 48q92 -4 136.5 -50.5t44.5 -115.5q0 -71 -50.5 -205.5t-50.5 -209.5q0 -119 91 -119q80 0 184 104q-1 13 -1 41q0 86 13.5 175.5
t39.5 172t72 134.5t104 52zM842 678q-32 0 -59.5 -70.5t-42 -150.5t-24.5 -173q154 203 154 343q0 51 -28 51zM526 810q0 -24 -15.5 -40t-46.5 -16q-24 1 -38.5 15t-14.5 32q0 24 19 38t44 14q22 0 37 -11t15 -32zM734 810q0 -24 -15.5 -40t-46.5 -16q-24 1 -38.5 15
t-14.5 32q0 24 19 38t44 14q22 0 37 -11t15 -32z" />
    <glyph glyph-name="Yacute" unicode="&#xdd;" horiz-adv-x="786" 
d="M537 92q-143 -25 -184 -40q-82 -29 -82 -87q0 -41 24 -60.5t61 -19.5q137 0 181 207zM543 123l50 252q-97 -176 -244 -178q-66 1 -104 44.5t-38 102.5q0 51 33 143.5t33 141.5q0 38 -17 64t-54 26q-60 0 -89 -40t-29 -108q0 -114 77 -125l-4 -16q-10 -2 -29 -2
q-66 0 -104.5 40.5t-38.5 99.5q0 82 58.5 128.5t161.5 46.5q96 -3 138 -43t42 -101q0 -47 -29 -138t-29 -121q0 -38 19 -63t60 -25q47 0 103.5 54.5t99.5 148.5l38 188q7 33 29.5 49.5t55.5 16.5q36 0 36 -35l-99 -521q103 35 116 109l21 -2q-5 -98 -143 -140l-2 -10
q-22 -137 -97.5 -207t-183.5 -70q-59 0 -104 32t-45 93q0 24 10 45t26 35.5t40 26.5t46.5 19.5t52.5 14.5t50.5 10.5t48 7.5t38.5 6zM400 730l-11 15l93 172q16 28 37 28q19 0 34 -13.5t15 -28.5t-14 -29z" />
    <glyph glyph-name="agrave" unicode="&#xe0;" horiz-adv-x="650" 
d="M637 113l13 -9q-25 -51 -65.5 -77.5t-85.5 -26.5q-94 0 -94 124q0 20 3 41q-33 -75 -90 -124t-122 -49q-78 0 -117 50t-39 126q0 129 79 219.5t186 90.5q76 0 140 -56q17 41 66 41q46 0 46 -32l-39 -276q-12 -100 41 -100q38 0 78 58zM423 275l17 123q-44 39 -95 39
q-76 0 -127 -76.5t-51 -185.5q0 -52 19 -88.5t59 -36.5q60 0 112 75t66 150zM461 520l-11 -15l-154 144q-14 14 -14 29t15 28.5t34 13.5q21 0 37 -28z" />
    <glyph glyph-name="aacute" unicode="&#xe1;" horiz-adv-x="650" 
d="M637 113l13 -9q-25 -51 -65.5 -77.5t-85.5 -26.5q-94 0 -94 124q0 20 3 41q-33 -75 -90 -124t-122 -49q-78 0 -117 50t-39 126q0 129 79 219.5t186 90.5q76 0 140 -56q17 41 66 41q46 0 46 -32l-39 -276q-12 -100 41 -100q38 0 78 58zM423 275l17 123q-44 39 -95 39
q-76 0 -127 -76.5t-51 -185.5q0 -52 19 -88.5t59 -36.5q60 0 112 75t66 150zM268 505l-11 15l93 172q16 28 37 28q19 0 34 -13.5t15 -28.5t-14 -29z" />
    <glyph glyph-name="acircumflex" unicode="&#xe2;" horiz-adv-x="650" 
d="M637 113l13 -9q-25 -51 -65.5 -77.5t-85.5 -26.5q-94 0 -94 124q0 20 3 41q-33 -75 -90 -124t-122 -49q-78 0 -117 50t-39 126q0 129 79 219.5t186 90.5q76 0 140 -56q17 41 66 41q46 0 46 -32l-39 -276q-12 -100 41 -100q38 0 78 58zM423 275l17 123q-44 39 -95 39
q-76 0 -127 -76.5t-51 -185.5q0 -52 19 -88.5t59 -36.5q60 0 112 75t66 150zM349 686h41q8 -51 44.5 -88t89.5 -52l-6 -12q-116 4 -148 47q-37 -43 -149 -47l-6 12q52 15 89 52t45 88z" />
    <glyph glyph-name="atilde" unicode="&#xe3;" horiz-adv-x="650" 
d="M637 113l13 -9q-25 -51 -65.5 -77.5t-85.5 -26.5q-94 0 -94 124q0 20 3 41q-33 -75 -90 -124t-122 -49q-78 0 -117 50t-39 126q0 129 79 219.5t186 90.5q76 0 140 -56q17 41 66 41q46 0 46 -32l-39 -276q-12 -100 41 -100q38 0 78 58zM423 275l17 123q-44 39 -95 39
q-76 0 -127 -76.5t-51 -185.5q0 -52 19 -88.5t59 -36.5q60 0 112 75t66 150zM496 531l-12 3q3 9 3 20q0 18 -10.5 31t-29.5 13q-29 0 -81.5 -34t-86.5 -34q-27 0 -48 20t-21 52q0 34 19 57l12 -3q-6 -13 -6 -25q0 -17 10.5 -28t28.5 -11q22 0 75.5 35.5t92.5 35.5
q33 0 52.5 -24.5t19.5 -56.5t-18 -51z" />
    <glyph glyph-name="adieresis" unicode="&#xe4;" horiz-adv-x="650" 
d="M637 113l13 -9q-25 -51 -65.5 -77.5t-85.5 -26.5q-94 0 -94 124q0 20 3 41q-33 -75 -90 -124t-122 -49q-78 0 -117 50t-39 126q0 129 79 219.5t186 90.5q76 0 140 -56q17 41 66 41q46 0 46 -32l-39 -276q-12 -100 41 -100q38 0 78 58zM423 275l17 123q-44 39 -95 39
q-76 0 -127 -76.5t-51 -185.5q0 -52 19 -88.5t59 -36.5q60 0 112 75t66 150zM320 601q0 -24 -15.5 -40t-46.5 -16q-24 1 -38.5 15t-14.5 32q0 24 19 38t44 14q22 0 37 -11t15 -32zM528 601q0 -24 -15.5 -40t-46.5 -16q-24 1 -38.5 15t-14.5 32q0 24 19 38t44 14q22 0 37 -11
t15 -32z" />
    <glyph glyph-name="aring" unicode="&#xe5;" horiz-adv-x="650" 
d="M637 113l13 -9q-25 -51 -65.5 -77.5t-85.5 -26.5q-94 0 -94 124q0 20 3 41q-33 -75 -90 -124t-122 -49q-78 0 -117 50t-39 126q0 129 79 219.5t186 90.5q76 0 140 -56q17 41 66 41q46 0 46 -32l-39 -276q-12 -100 41 -100q38 0 78 58zM423 275l17 123q-44 39 -95 39
q-76 0 -127 -76.5t-51 -185.5q0 -52 19 -88.5t59 -36.5q60 0 112 75t66 150zM370 528q-51 0 -77.5 20.5t-26.5 54.5q0 46 35 67.5t81 21.5q42 0 73 -18.5t31 -57.5q0 -38 -30.5 -63t-85.5 -25zM372 547q22 0 35.5 21.5t13.5 48.5q0 24 -10.5 40t-30.5 16q-23 0 -36 -20.5
t-13 -47.5q0 -24 10.5 -41t30.5 -17z" />
    <glyph glyph-name="ae" unicode="&#xe6;" horiz-adv-x="904" 
d="M368 436q-76 0 -126.5 -76t-50.5 -185q0 -52 19 -88.5t59 -36.5q73 0 137 116q-2 12 -2 37q0 107 73 182q-51 51 -109 51zM819 119l11 -9q-34 -58 -94 -88t-127 -30q-75 0 -126 34.5t-70 101.5q-34 -61 -85 -98.5t-108 -37.5q-78 0 -117 50t-39 126q0 129 79 219.5
t186 90.5q93 0 163 -79q90 79 211 79q79 0 118.5 -32.5t39.5 -80.5q0 -42 -28.5 -65.5t-71.5 -32t-88 -15t-85.5 -23.5t-55.5 -49q8 -63 47 -97.5t92 -34.5q92 0 148 71zM532 210q22 29 53.5 48t59 28.5t52.5 20.5t40 31t15 52q0 31 -19.5 47.5t-47.5 16.5q-70 0 -112 -76
t-42 -162q0 -1 0.5 -3t0.5 -3z" />
    <glyph glyph-name="ccedilla" unicode="&#xe7;" horiz-adv-x="523" 
d="M485 126l11 -9q-76 -109 -205 -123l-26 -59q15 6 31 6q30 0 52 -19t22 -53q0 -48 -52 -77.5t-128 -29.5l3 17q42 4 69 26.5t27 47.5q0 18 -17.5 30.5t-51.5 12.5l46 96h-11q-93 0 -151 55.5t-53 158.5q9 124 95 198t212 74q77 0 116.5 -31t37.5 -79q-2 -42 -41 -70
t-83 -28q-26 0 -43 10l2 15q34 3 52.5 29t20.5 59q2 29 -16 50t-53 21q-74 0 -120 -66t-51 -155q-5 -97 32 -141t98 -44q45 0 93.5 22.5t81.5 55.5z" />
    <glyph glyph-name="egrave" unicode="&#xe8;" horiz-adv-x="517" 
d="M178 210q22 29 53.5 48t59 28.5t52.5 20.5t40 31t15 52q0 31 -19.5 47.5t-47.5 16.5q-70 0 -112 -76t-42 -162q0 -1 0.5 -3t0.5 -3zM465 119l11 -9q-34 -58 -94 -88t-127 -30q-94 0 -149.5 54.5t-55.5 156.5q0 64 27 117.5t71 87t96 52t105 18.5q79 0 118.5 -32.5
t39.5 -80.5q0 -42 -28.5 -65.5t-71.5 -32t-88 -15t-85.5 -23.5t-55.5 -49q8 -63 47 -97.5t92 -34.5q92 0 148 71zM413 515l-11 -15l-154 144q-14 14 -14 29t15 28.5t34 13.5q21 0 37 -28z" />
    <glyph glyph-name="eacute" unicode="&#xe9;" horiz-adv-x="517" 
d="M178 210q22 29 53.5 48t59 28.5t52.5 20.5t40 31t15 52q0 31 -19.5 47.5t-47.5 16.5q-70 0 -112 -76t-42 -162q0 -1 0.5 -3t0.5 -3zM465 119l11 -9q-34 -58 -94 -88t-127 -30q-94 0 -149.5 54.5t-55.5 156.5q0 64 27 117.5t71 87t96 52t105 18.5q79 0 118.5 -32.5
t39.5 -80.5q0 -42 -28.5 -65.5t-71.5 -32t-88 -15t-85.5 -23.5t-55.5 -49q8 -63 47 -97.5t92 -34.5q92 0 148 71zM234 500l-11 15l93 172q16 28 37 28q19 0 34 -13.5t15 -28.5t-14 -29z" />
    <glyph glyph-name="ecircumflex" unicode="&#xea;" horiz-adv-x="517" 
d="M178 210q22 29 53.5 48t59 28.5t52.5 20.5t40 31t15 52q0 31 -19.5 47.5t-47.5 16.5q-70 0 -112 -76t-42 -162q0 -1 0.5 -3t0.5 -3zM465 119l11 -9q-34 -58 -94 -88t-127 -30q-94 0 -149.5 54.5t-55.5 156.5q0 64 27 117.5t71 87t96 52t105 18.5q79 0 118.5 -32.5
t39.5 -80.5q0 -42 -28.5 -65.5t-71.5 -32t-88 -15t-85.5 -23.5t-55.5 -49q8 -63 47 -97.5t92 -34.5q92 0 148 71zM294 678h41q8 -51 44.5 -88t89.5 -52l-6 -12q-116 4 -148 47q-37 -43 -149 -47l-6 12q52 15 89 52t45 88z" />
    <glyph glyph-name="edieresis" unicode="&#xeb;" horiz-adv-x="517" 
d="M178 210q22 29 53.5 48t59 28.5t52.5 20.5t40 31t15 52q0 31 -19.5 47.5t-47.5 16.5q-70 0 -112 -76t-42 -162q0 -1 0.5 -3t0.5 -3zM465 119l11 -9q-34 -58 -94 -88t-127 -30q-94 0 -149.5 54.5t-55.5 156.5q0 64 27 117.5t71 87t96 52t105 18.5q79 0 118.5 -32.5
t39.5 -80.5q0 -42 -28.5 -65.5t-71.5 -32t-88 -15t-85.5 -23.5t-55.5 -49q8 -63 47 -97.5t92 -34.5q92 0 148 71zM265 597q0 -24 -15.5 -40t-46.5 -16q-24 1 -38.5 15t-14.5 32q0 24 19 38t44 14q22 0 37 -11t15 -32zM473 597q0 -24 -15.5 -40t-46.5 -16q-24 1 -38.5 15
t-14.5 32q0 24 19 38t44 14q22 0 37 -11t15 -32z" />
    <glyph glyph-name="igrave" unicode="&#xec;" horiz-adv-x="355" 
d="M240 431l-40 -280q-10 -88 43 -88q46 0 93 92l14 -6q-49 -150 -160 -150q-57 0 -83.5 43.5t-17.5 107.5l34 249q9 64 71 64q46 0 46 -32zM234 509l-11 -15l-154 144q-14 14 -14 29t15 28.5t34 13.5q21 0 37 -28z" />
    <glyph glyph-name="iacute" unicode="&#xed;" horiz-adv-x="324" 
d="M209 431l-40 -280q-10 -88 43 -88q46 0 93 92l14 -6q-49 -150 -160 -150q-57 0 -83.5 43.5t-17.5 107.5l34 249q9 64 71 64q46 0 46 -32zM143 494l-11 15l93 172q16 28 37 28q19 0 34 -13.5t15 -28.5t-14 -29z" />
    <glyph glyph-name="icircumflex" unicode="&#xee;" horiz-adv-x="370" 
d="M250 431l-40 -280q-10 -88 43 -88q46 0 93 92l14 -6q-49 -150 -160 -150q-57 0 -83.5 43.5t-17.5 107.5l34 249q9 64 71 64q46 0 46 -32zM189 656h41q8 -51 44.5 -88t89.5 -52l-6 -12q-116 4 -148 47q-37 -43 -149 -47l-6 12q52 15 89 52t45 88z" />
    <glyph glyph-name="idieresis" unicode="&#xef;" horiz-adv-x="383" 
d="M267 431l-40 -280q-10 -88 43 -88q46 0 93 92l14 -6q-49 -150 -160 -150q-57 0 -83.5 43.5t-17.5 107.5l34 249q9 64 71 64q46 0 46 -32zM170 575q0 -24 -15.5 -40t-46.5 -16q-24 1 -38.5 15t-14.5 32q0 24 19 38t44 14q22 0 37 -11t15 -32zM378 575q0 -24 -15.5 -40
t-46.5 -16q-24 1 -38.5 15t-14.5 32q0 24 19 38t44 14q22 0 37 -11t15 -32z" />
    <glyph glyph-name="ograve" unicode="&#xf2;" horiz-adv-x="563" 
d="M259 -9q-104 0 -156.5 62t-52.5 147q0 116 75.5 197.5t188.5 81.5q80 0 128 -43q15 -2 26.5 -15.5t17.5 -28t14.5 -26.5t19.5 -12q23 0 39 28.5t19 56.5l15 -6q-5 -51 -30.5 -81t-63.5 -36q3 -22 3 -47q0 -111 -67.5 -194.5t-175.5 -83.5zM475 274q0 20 -3 40
q-36 2 -64 20.5t-28 46.5q0 27 26 46q-27 16 -59 16q-77 0 -123 -70t-46 -169q0 -78 34.5 -118.5t85.5 -40.5q81 0 129 73t48 156zM419 515l-11 -15l-154 144q-14 14 -14 29t15 28.5t34 13.5q21 0 37 -28z" />
    <glyph glyph-name="oacute" unicode="&#xf3;" horiz-adv-x="563" 
d="M259 -9q-104 0 -156.5 62t-52.5 147q0 116 75.5 197.5t188.5 81.5q80 0 128 -43q15 -2 26.5 -15.5t17.5 -28t14.5 -26.5t19.5 -12q23 0 39 28.5t19 56.5l15 -6q-5 -51 -30.5 -81t-63.5 -36q3 -22 3 -47q0 -111 -67.5 -194.5t-175.5 -83.5zM475 274q0 20 -3 40
q-36 2 -64 20.5t-28 46.5q0 27 26 46q-27 16 -59 16q-77 0 -123 -70t-46 -169q0 -78 34.5 -118.5t85.5 -40.5q81 0 129 73t48 156zM234 500l-11 15l93 172q16 28 37 28q19 0 34 -13.5t15 -28.5t-14 -29z" />
    <glyph glyph-name="ocircumflex" unicode="&#xf4;" horiz-adv-x="563" 
d="M259 -9q-104 0 -156.5 62t-52.5 147q0 116 75.5 197.5t188.5 81.5q80 0 128 -43q15 -2 26.5 -15.5t17.5 -28t14.5 -26.5t19.5 -12q23 0 39 28.5t19 56.5l15 -6q-5 -51 -30.5 -81t-63.5 -36q3 -22 3 -47q0 -111 -67.5 -194.5t-175.5 -83.5zM475 274q0 20 -3 40
q-36 2 -64 20.5t-28 46.5q0 27 26 46q-27 16 -59 16q-77 0 -123 -70t-46 -169q0 -78 34.5 -118.5t85.5 -40.5q81 0 129 73t48 156zM302 679h41q8 -51 44.5 -88t89.5 -52l-6 -12q-116 4 -148 47q-37 -43 -149 -47l-6 12q52 15 89 52t45 88z" />
    <glyph glyph-name="otilde" unicode="&#xf5;" horiz-adv-x="563" 
d="M259 -9q-104 0 -156.5 62t-52.5 147q0 116 75.5 197.5t188.5 81.5q80 0 128 -43q15 -2 26.5 -15.5t17.5 -28t14.5 -26.5t19.5 -12q23 0 39 28.5t19 56.5l15 -6q-5 -51 -30.5 -81t-63.5 -36q3 -22 3 -47q0 -111 -67.5 -194.5t-175.5 -83.5zM475 274q0 20 -3 40
q-36 2 -64 20.5t-28 46.5q0 27 26 46q-27 16 -59 16q-77 0 -123 -70t-46 -169q0 -78 34.5 -118.5t85.5 -40.5q81 0 129 73t48 156zM444 516l-12 3q3 9 3 20q0 18 -10.5 31t-29.5 13q-29 0 -81.5 -34t-86.5 -34q-27 0 -48 20t-21 52q0 34 19 57l12 -3q-6 -13 -6 -25
q0 -17 10.5 -28t28.5 -11q22 0 75.5 35.5t92.5 35.5q33 0 52.5 -24.5t19.5 -56.5q0 -31 -18 -51z" />
    <glyph glyph-name="odieresis" unicode="&#xf6;" horiz-adv-x="563" 
d="M259 -9q-104 0 -156.5 62t-52.5 147q0 116 75.5 197.5t188.5 81.5q80 0 128 -43q15 -2 26.5 -15.5t17.5 -28t14.5 -26.5t19.5 -12q23 0 39 28.5t19 56.5l15 -6q-5 -51 -30.5 -81t-63.5 -36q3 -22 3 -47q0 -111 -67.5 -194.5t-175.5 -83.5zM475 274q0 20 -3 40
q-36 2 -64 20.5t-28 46.5q0 27 26 46q-27 16 -59 16q-77 0 -123 -70t-46 -169q0 -78 34.5 -118.5t85.5 -40.5q81 0 129 73t48 156zM277 597q0 -24 -15.5 -40t-46.5 -16q-24 1 -38.5 15t-14.5 32q0 24 19 38t44 14q22 0 37 -11t15 -32zM485 597q0 -24 -15.5 -40t-46.5 -16
q-24 1 -38.5 15t-14.5 32q0 24 19 38t44 14q22 0 37 -11t15 -32z" />
    <glyph glyph-name="divide" unicode="&#xf7;" horiz-adv-x="470" 
d="M279 143q0 -27 -18 -45.5t-54 -18.5q-25 1 -39.5 15.5t-14.5 34.5q0 26 22.5 42.5t50.5 16.5q22 0 37.5 -12t15.5 -33zM303 485q0 -27 -18 -45.5t-54 -18.5q-25 1 -39.5 15.5t-14.5 34.5q0 26 22.5 42.5t50.5 16.5q22 0 37.5 -12t15.5 -33zM21 329h439l-11 -42h-439z" />
    <glyph glyph-name="ugrave" unicode="&#xf9;" 
d="M614 431l-40 -280q-10 -88 43 -88q46 0 93 92l14 -6q-49 -150 -160 -150q-57 0 -83.5 43.5t-17.5 107.5l8 58q-22 -13 -51 -49.5t-52.5 -70.5t-62 -61.5t-80.5 -27.5q-45 0 -74 34t-29 88q0 47 24 123t24 107q0 57 -41 57q-52 0 -107 -103l-12 10q28 73 72 110t95 37
q50 0 75.5 -28.5t25.5 -74.5q0 -40 -22 -113.5t-22 -111.5q0 -60 43 -60q25 0 51 20.5t45.5 47t47 54t53.5 37.5l23 166q9 64 71 64q46 0 46 -32zM474 508l-11 -15l-154 144q-14 14 -14 29t15 28.5t34 13.5q21 0 37 -28z" />
    <glyph glyph-name="uacute" unicode="&#xfa;" 
d="M614 431l-40 -280q-10 -88 43 -88q46 0 93 92l14 -6q-49 -150 -160 -150q-57 0 -83.5 43.5t-17.5 107.5l8 58q-22 -13 -51 -49.5t-52.5 -70.5t-62 -61.5t-80.5 -27.5q-45 0 -74 34t-29 88q0 47 24 123t24 107q0 57 -41 57q-52 0 -107 -103l-12 10q28 73 72 110t95 37
q50 0 75.5 -28.5t25.5 -74.5q0 -40 -22 -113.5t-22 -111.5q0 -60 43 -60q25 0 51 20.5t45.5 47t47 54t53.5 37.5l23 166q9 64 71 64q46 0 46 -32zM283 491l-11 15l93 172q16 28 37 28q19 0 34 -13.5t15 -28.5t-14 -29z" />
    <glyph glyph-name="ucircumflex" unicode="&#xfb;" 
d="M614 431l-40 -280q-10 -88 43 -88q46 0 93 92l14 -6q-49 -150 -160 -150q-57 0 -83.5 43.5t-17.5 107.5l8 58q-22 -13 -51 -49.5t-52.5 -70.5t-62 -61.5t-80.5 -27.5q-45 0 -74 34t-29 88q0 47 24 123t24 107q0 57 -41 57q-52 0 -107 -103l-12 10q28 73 72 110t95 37
q50 0 75.5 -28.5t25.5 -74.5q0 -40 -22 -113.5t-22 -111.5q0 -60 43 -60q25 0 51 20.5t45.5 47t47 54t53.5 37.5l23 166q9 64 71 64q46 0 46 -32zM371 659h41q8 -51 44.5 -88t89.5 -52l-6 -12q-116 4 -148 47q-37 -43 -149 -47l-6 12q52 15 89 52t45 88z" />
    <glyph glyph-name="udieresis" unicode="&#xfc;" 
d="M614 431l-40 -280q-10 -88 43 -88q46 0 93 92l14 -6q-49 -150 -160 -150q-57 0 -83.5 43.5t-17.5 107.5l8 58q-22 -13 -51 -49.5t-52.5 -70.5t-62 -61.5t-80.5 -27.5q-45 0 -74 34t-29 88q0 47 24 123t24 107q0 57 -41 57q-52 0 -107 -103l-12 10q28 73 72 110t95 37
q50 0 75.5 -28.5t25.5 -74.5q0 -40 -22 -113.5t-22 -111.5q0 -60 43 -60q25 0 51 20.5t45.5 47t47 54t53.5 37.5l23 166q9 64 71 64q46 0 46 -32zM346 565q0 -24 -15.5 -40t-46.5 -16q-24 1 -38.5 15t-14.5 32q0 24 19 38t44 14q22 0 37 -11t15 -32zM554 565
q0 -24 -15.5 -40t-46.5 -16q-24 1 -38.5 15t-14.5 32q0 24 19 38t44 14q22 0 37 -11t15 -32z" />
    <glyph glyph-name="yacute" unicode="&#xfd;" horiz-adv-x="624" 
d="M234 134q0 -60 43 -60q25 0 50.5 20.5t44.5 46t46 53t53 38.5l26 167q9 64 71 64q44 0 44 -32l-71 -461q87 27 115 84l11 -10q-22 -72 -129 -101q-16 -121 -69.5 -189.5t-146.5 -68.5q-60 0 -105 33t-45 87q0 30 12.5 52.5t33.5 36t50 22.5t61.5 15t67.5 11q20 3 30 4
l40 260q-18 -12 -39.5 -38.5t-41.5 -54t-43 -54t-53.5 -43.5t-64.5 -17q-45 0 -74 34t-29 88q0 47 24 123t24 107q0 57 -41 57q-52 0 -107 -103l-12 10q28 73 72 110t95 37q50 0 75.5 -28.5t25.5 -74.5q0 -40 -22 -113.5t-22 -111.5zM202 -188q0 -36 27 -58.5t62 -22.5
q59 0 89 52.5t44 136.5q-125 -18 -162 -33q-60 -25 -60 -75zM289 459l-11 15l93 172q16 28 37 28q19 0 34 -13.5t15 -28.5t-14 -29z" />
    <glyph glyph-name="ydieresis" unicode="&#xff;" horiz-adv-x="624" 
d="M234 134q0 -60 43 -60q25 0 50.5 20.5t44.5 46t46 53t53 38.5l26 167q9 64 71 64q44 0 44 -32l-71 -461q87 27 115 84l11 -10q-22 -72 -129 -101q-16 -121 -69.5 -189.5t-146.5 -68.5q-60 0 -105 33t-45 87q0 30 12.5 52.5t33.5 36t50 22.5t61.5 15t67.5 11q20 3 30 4
l40 260q-18 -12 -39.5 -38.5t-41.5 -54t-43 -54t-53.5 -43.5t-64.5 -17q-45 0 -74 34t-29 88q0 47 24 123t24 107q0 57 -41 57q-52 0 -107 -103l-12 10q28 73 72 110t95 37q50 0 75.5 -28.5t25.5 -74.5q0 -40 -22 -113.5t-22 -111.5zM202 -188q0 -36 27 -58.5t62 -22.5
q59 0 89 52.5t44 136.5q-125 -18 -162 -33q-60 -25 -60 -75zM340 566q0 -24 -15.5 -40t-46.5 -16q-24 1 -38.5 15t-14.5 32q0 24 19 38t44 14q22 0 37 -11t15 -32zM548 566q0 -24 -15.5 -40t-46.5 -16q-24 1 -38.5 15t-14.5 32q0 24 19 38t44 14q22 0 37 -11t15 -32z" />
    <glyph glyph-name="Amacron" unicode="&#x100;" horiz-adv-x="950" 
d="M435 439q-50 12 -85 12q-48 0 -74.5 -24t-26.5 -60q0 -47 36.5 -72t92.5 -27q6 18 17 52.5t21 64t19 54.5zM908 370l-6 -22q-28 9 -58 9q-32 0 -80 -12q-15 -108 -15 -187q0 -117 76 -117q81 0 97 126l23 -1q-3 -82 -45.5 -128.5t-119.5 -46.5q-153 0 -153 177
q0 53 11 133q-150 -54 -231 -60q-21 -57 -40.5 -97.5t-47 -77.5t-63.5 -56t-80 -19q-66 0 -106 35t-40 82q0 46 36 82t92 37l8 -13q-40 -28 -40 -86q0 -40 21.5 -66t57.5 -26q55 0 92 52.5t71 151.5q-92 1 -155 36t-63 98q0 53 48 79t112 26q65 0 133 -19q23 61 48 106.5
t60.5 87t83.5 63t106 21.5q35 0 58 -17.5t19 -52.5q-3 -19 -22.5 -129.5t-27.5 -168.5q42 10 75 10q28 0 65 -10zM711 703q-84 -8 -137 -74t-96 -180q94 -33 168 -91q21 137 65 345zM417 269q86 4 224 57q1 2 1 6q-69 61 -172 96q-8 -23 -25.5 -77t-27.5 -82zM583 814l15 50
h237l-15 -50h-237z" />
    <glyph glyph-name="amacron" unicode="&#x101;" horiz-adv-x="650" 
d="M637 113l13 -9q-25 -51 -65.5 -77.5t-85.5 -26.5q-94 0 -94 124q0 20 3 41q-33 -75 -90 -124t-122 -49q-78 0 -117 50t-39 126q0 129 79 219.5t186 90.5q76 0 140 -56q17 41 66 41q46 0 46 -32l-39 -276q-12 -100 41 -100q38 0 78 58zM423 275l17 123q-44 39 -95 39
q-76 0 -127 -76.5t-51 -185.5q0 -52 19 -88.5t59 -36.5q60 0 112 75t66 150zM245 554l15 50h237l-15 -50h-237z" />
    <glyph glyph-name="Abreve" unicode="&#x102;" horiz-adv-x="950" 
d="M435 439q-50 12 -85 12q-48 0 -74.5 -24t-26.5 -60q0 -47 36.5 -72t92.5 -27q6 18 17 52.5t21 64t19 54.5zM908 370l-6 -22q-28 9 -58 9q-32 0 -80 -12q-15 -108 -15 -187q0 -117 76 -117q81 0 97 126l23 -1q-3 -82 -45.5 -128.5t-119.5 -46.5q-153 0 -153 177
q0 53 11 133q-150 -54 -231 -60q-21 -57 -40.5 -97.5t-47 -77.5t-63.5 -56t-80 -19q-66 0 -106 35t-40 82q0 46 36 82t92 37l8 -13q-40 -28 -40 -86q0 -40 21.5 -66t57.5 -26q55 0 92 52.5t71 151.5q-92 1 -155 36t-63 98q0 53 48 79t112 26q65 0 133 -19q23 61 48 106.5
t60.5 87t83.5 63t106 21.5q35 0 58 -17.5t19 -52.5q-3 -19 -22.5 -129.5t-27.5 -168.5q42 10 75 10q28 0 65 -10zM711 703q-84 -8 -137 -74t-96 -180q94 -33 168 -91q21 137 65 345zM417 269q86 4 224 57q1 2 1 6q-69 61 -172 96q-8 -23 -25.5 -77t-27.5 -82zM819 915l11 -5
q0 -4 -2.5 -15.5t-11 -32t-22 -38t-40 -31t-59.5 -13.5q-35 0 -59.5 13.5t-35.5 29t-17 39t-6.5 31t-0.5 17.5l11 4l1 -4q1 -4 2.5 -7.5t5 -9t8 -10.5t13 -10t19 -8.5t25.5 -6t33 -2.5q28 0 51 6t36 13.5t22 17t12 15t4 7.5z" />
    <glyph glyph-name="abreve" unicode="&#x103;" horiz-adv-x="650" 
d="M637 113l13 -9q-25 -51 -65.5 -77.5t-85.5 -26.5q-94 0 -94 124q0 20 3 41q-33 -75 -90 -124t-122 -49q-78 0 -117 50t-39 126q0 129 79 219.5t186 90.5q76 0 140 -56q17 41 66 41q46 0 46 -32l-39 -276q-12 -100 41 -100q38 0 78 58zM423 275l17 123q-44 39 -95 39
q-76 0 -127 -76.5t-51 -185.5q0 -52 19 -88.5t59 -36.5q60 0 112 75t66 150zM488 671l11 -5q0 -4 -2.5 -15.5t-11 -32t-22 -38t-40 -31t-59.5 -13.5q-35 0 -59.5 13.5t-35.5 29t-17 39t-6.5 31t-0.5 17.5l11 4l1 -4q1 -4 2.5 -7.5t5 -9t8 -10.5t13 -10t19 -8.5t25.5 -6
t33 -2.5q28 0 51 6t36 13.5t22 17t12 15t4 7.5z" />
    <glyph glyph-name="Aogonek" unicode="&#x104;" horiz-adv-x="950" 
d="M908 370l-6 -22q-28 9 -58 9q-32 0 -80 -12q-15 -108 -15 -187q0 -117 76 -117q81 0 97 126l23 -1q-4 -51 -22.5 -88.5t-41.5 -58.5t-46 -40.5t-38.5 -46t-15.5 -61.5q0 -24 12 -37t30 -13q20 0 35.5 15t17.5 43h14q0 -52 -28.5 -82t-70.5 -30q-43 0 -69.5 27t-26.5 64
q0 18 5.5 34t11 26t21.5 23t22.5 17.5t30 18.5t28.5 17q-16 -3 -34 -3q-153 0 -153 177q0 53 11 133q-150 -54 -231 -60q-21 -57 -40.5 -97.5t-47 -77.5t-63.5 -56t-80 -19q-66 0 -106 35t-40 82q0 46 36 82t92 37l8 -13q-40 -28 -40 -86q0 -40 21.5 -66t57.5 -26
q55 0 92 52.5t71 151.5q-92 1 -155 36t-63 98q0 53 48 79t112 26q65 0 133 -19q23 61 48 106.5t60.5 87t83.5 63t106 21.5q77 0 77 -70q-3 -19 -22.5 -129.5t-27.5 -168.5q42 10 75 10q28 0 65 -10zM711 703q-84 -8 -137 -74t-96 -180q94 -33 168 -91q21 137 65 345z
M435 439q-50 12 -85 12q-48 0 -74.5 -24t-26.5 -60q0 -47 36.5 -72t92.5 -27q6 18 17 52.5t21 64t19 54.5zM417 269q86 4 224 57q1 2 1 6q-69 61 -172 96q-8 -23 -25.5 -77t-27.5 -82z" />
    <glyph glyph-name="aogonek" unicode="&#x105;" horiz-adv-x="650" 
d="M559 55q47 0 78 58l13 -9q-8 -26 -27.5 -50.5t-40.5 -43t-41.5 -37.5t-34 -43t-13.5 -52q0 -24 11.5 -40.5t31.5 -16.5t35 15.5t17 42.5h14q0 -52 -28.5 -82t-70.5 -30q-43 0 -69.5 26.5t-26.5 62.5q0 27 13.5 50.5t42.5 45.5t47 33t54 31l-1 3q-32 -18 -64 -19
q-94 0 -94 124q0 20 3 41q-33 -75 -90 -124t-122 -49q-78 0 -117 50t-39 126q0 129 79 219.5t186 90.5q76 0 140 -56q17 41 66 41q46 0 46 -32l-39 -276q-12 -100 41 -100zM423 275l17 123q-44 39 -95 39q-76 0 -127 -76.5t-51 -185.5q0 -52 19 -88.5t59 -36.5q60 0 112 75
t66 150z" />
    <glyph glyph-name="Cacute" unicode="&#x106;" horiz-adv-x="657" 
d="M586 200l21 -9q-38 -97 -122 -148.5t-184 -51.5q-134 0 -202.5 84.5t-68.5 221.5q0 89 25.5 169t74.5 142.5t126.5 99t173.5 36.5q88 0 155 -47.5t67 -132.5q0 -80 -52 -132t-129 -52q-35 0 -65 19l5 16q2 0 5.5 -0.5t5.5 -0.5q63 0 98 54.5t35 120.5q0 56 -29 93.5
t-88 37.5q-84 0 -149.5 -60.5t-99 -152.5t-33.5 -195q0 -114 48.5 -188.5t147.5 -74.5q74 0 136.5 42t97.5 109zM298 762l-11 15l93 172q16 28 37 28q19 0 34 -13.5t15 -28.5t-14 -29z" />
    <glyph glyph-name="cacute" unicode="&#x107;" horiz-adv-x="523" 
d="M485 126l11 -9q-87 -125 -241 -125q-93 0 -151 55.5t-53 158.5q9 124 95 198t212 74q77 0 116.5 -31t37.5 -79q-2 -42 -41 -70t-83 -28q-26 0 -43 10l2 15q34 3 52.5 29t20.5 59q2 29 -16 50t-53 21q-74 0 -120 -66t-51 -155q-5 -97 32 -141t98 -44q45 0 93.5 22.5
t81.5 55.5zM250 499l-11 15l93 172q16 28 37 28q19 0 34 -13.5t15 -28.5t-14 -29z" />
    <glyph glyph-name="Ccircumflex" unicode="&#x108;" horiz-adv-x="657" 
d="M586 200l21 -9q-38 -97 -122 -148.5t-184 -51.5q-134 0 -202.5 84.5t-68.5 221.5q0 89 25.5 169t74.5 142.5t126.5 99t173.5 36.5q88 0 155 -47.5t67 -132.5q0 -80 -52 -132t-129 -52q-35 0 -65 19l5 16q2 0 5.5 -0.5t5.5 -0.5q63 0 98 54.5t35 120.5q0 56 -29 93.5
t-88 37.5q-84 0 -149.5 -60.5t-99 -152.5t-33.5 -195q0 -114 48.5 -188.5t147.5 -74.5q74 0 136.5 42t97.5 109zM383 954h41q8 -51 44.5 -88t89.5 -52l-6 -12q-116 4 -148 47q-37 -43 -149 -47l-6 12q52 15 89 52t45 88z" />
    <glyph glyph-name="ccircumflex" unicode="&#x109;" horiz-adv-x="523" 
d="M485 126l11 -9q-87 -125 -241 -125q-93 0 -151 55.5t-53 158.5q9 124 95 198t212 74q77 0 116.5 -31t37.5 -79q-2 -42 -41 -70t-83 -28q-26 0 -43 10l2 15q34 3 52.5 29t20.5 59q2 29 -16 50t-53 21q-74 0 -120 -66t-51 -155q-5 -97 32 -141t98 -44q45 0 93.5 22.5
t81.5 55.5zM317 678h41q8 -51 44.5 -88t89.5 -52l-6 -12q-116 4 -148 47q-37 -43 -149 -47l-6 12q52 15 89 52t45 88z" />
    <glyph glyph-name="Cdotaccent" unicode="&#x10a;" horiz-adv-x="657" 
d="M586 200l21 -9q-38 -97 -122 -148.5t-184 -51.5q-134 0 -202.5 84.5t-68.5 221.5q0 89 25.5 169t74.5 142.5t126.5 99t173.5 36.5q88 0 155 -47.5t67 -132.5q0 -80 -52 -132t-129 -52q-35 0 -65 19l5 16q2 0 5.5 -0.5t5.5 -0.5q63 0 98 54.5t35 120.5q0 56 -29 93.5
t-88 37.5q-84 0 -149.5 -60.5t-99 -152.5t-33.5 -195q0 -114 48.5 -188.5t147.5 -74.5q74 0 136.5 42t97.5 109zM477 861q0 -24 -15.5 -40t-46.5 -16q-24 1 -38.5 15t-14.5 32q0 24 19 38t44 14q22 0 37 -11t15 -32z" />
    <glyph glyph-name="cdotaccent" unicode="&#x10b;" horiz-adv-x="523" 
d="M485 126l11 -9q-87 -125 -241 -125q-93 0 -151 55.5t-53 158.5q9 124 95 198t212 74q77 0 116.5 -31t37.5 -79q-2 -42 -41 -70t-83 -28q-26 0 -43 10l2 15q34 3 52.5 29t20.5 59q2 29 -16 50t-53 21q-74 0 -120 -66t-51 -155q-5 -97 32 -141t98 -44q45 0 93.5 22.5
t81.5 55.5zM408 597q0 -24 -15.5 -40t-46.5 -16q-24 1 -38.5 15t-14.5 32q0 24 19 38t44 14q22 0 37 -11t15 -32z" />
    <glyph glyph-name="Ccaron" unicode="&#x10c;" horiz-adv-x="657" 
d="M586 200l21 -9q-38 -97 -122 -148.5t-184 -51.5q-134 0 -202.5 84.5t-68.5 221.5q0 89 25.5 169t74.5 142.5t126.5 99t173.5 36.5q88 0 155 -47.5t67 -132.5q0 -80 -52 -132t-129 -52q-35 0 -65 19l5 16q2 0 5.5 -0.5t5.5 -0.5q63 0 98 54.5t35 120.5q0 56 -29 93.5
t-88 37.5q-84 0 -149.5 -60.5t-99 -152.5t-33.5 -195q0 -114 48.5 -188.5t147.5 -74.5q74 0 136.5 42t97.5 109zM431 786h-41q-8 51 -44.5 88t-89.5 52l6 12q116 -4 148 -47q37 43 149 47l6 -12q-52 -15 -89 -52t-45 -88z" />
    <glyph glyph-name="ccaron" unicode="&#x10d;" horiz-adv-x="523" 
d="M485 126l11 -9q-87 -125 -241 -125q-93 0 -151 55.5t-53 158.5q9 124 95 198t212 74q77 0 116.5 -31t37.5 -79q-2 -42 -41 -70t-83 -28q-26 0 -43 10l2 15q34 3 52.5 29t20.5 59q2 29 -16 50t-53 21q-74 0 -120 -66t-51 -155q-5 -97 32 -141t98 -44q45 0 93.5 22.5
t81.5 55.5zM358 522h-41q-8 51 -44.5 88t-89.5 52l6 12q116 -4 148 -47q37 43 149 47l6 -12q-52 -15 -89 -52t-45 -88z" />
    <glyph glyph-name="Dcaron" unicode="&#x10e;" horiz-adv-x="881" 
d="M130 104q-31 0 -48 -12t-17 -33q0 -19 16 -31t40 -12q72 0 106 70q-51 18 -97 18zM404 438q-4 -66 -7 -97t-12 -88t-25.5 -98t-40.5 -74q123 -49 177 -49q60 0 106.5 32t73 85.5t39.5 114.5t13 127q0 153 -83.5 241t-217.5 88q-128 -4 -221 -84.5t-93 -202.5
q0 -97 72 -112l-4 -16q-15 -3 -29 -3q-59 0 -98 45t-39 109q0 62 29.5 112.5t75 82t104 53.5t113.5 31t107 9q106 0 197 -43.5t150.5 -134.5t59.5 -213q0 -70 -20.5 -133.5t-60 -115.5t-106.5 -82.5t-153 -30.5q-38 0 -81.5 12t-62 20.5t-69.5 32.5q-64 -64 -175 -64
q-46 0 -76.5 18.5t-30.5 50.5t30 49.5t75 17.5q54 0 115 -18q14 39 22 103t11 122t14.5 120.5t30 108t60 76t102.5 32.5q18 0 27 -2l-3 -16q-29 -8 -48.5 -31.5t-29 -59.5t-13 -62.5t-5.5 -62.5zM480 783h-41q-8 51 -44.5 88t-89.5 52l6 12q116 -4 148 -47q37 43 149 47
l6 -12q-52 -15 -89 -52t-45 -88z" />
    <glyph glyph-name="Emacron" unicode="&#x112;" horiz-adv-x="627" 
d="M164 209q0 -81 45 -137.5t126 -56.5t130 45.5t49 118.5q0 41 -18.5 70t-58.5 29l-3 16q21 10 47 10q61 0 96 -38t35 -87q0 -85 -87.5 -136.5t-208.5 -51.5q-135 0 -210.5 60.5t-75.5 161.5q0 136 147 202q-64 61 -64 144q0 85 71.5 135t192.5 50q104 0 168 -44.5
t64 -106.5q0 -51 -34.5 -78.5t-80.5 -27.5q-25 0 -46 9l4 16q33 1 50 27.5t17 61.5q0 56 -35 87.5t-94 31.5q-78 0 -117.5 -53t-39.5 -126q0 -58 22 -101q52 11 97 11q49 0 83.5 -16t34.5 -43q0 -22 -24 -35.5t-65 -13.5q-87 0 -152 35q-65 -50 -65 -169zM357 432
q-42 0 -82 -20q35 -47 103 -47q44 0 44 32q0 19 -20.5 27t-44.5 8zM263 826l15 50h237l-15 -50h-237z" />
    <glyph glyph-name="emacron" unicode="&#x113;" horiz-adv-x="517" 
d="M178 210q22 29 53.5 48t59 28.5t52.5 20.5t40 31t15 52q0 31 -19.5 47.5t-47.5 16.5q-70 0 -112 -76t-42 -162q0 -1 0.5 -3t0.5 -3zM465 119l11 -9q-34 -58 -94 -88t-127 -30q-94 0 -149.5 54.5t-55.5 156.5q0 64 27 117.5t71 87t96 52t105 18.5q79 0 118.5 -32.5
t39.5 -80.5q0 -42 -28.5 -65.5t-71.5 -32t-88 -15t-85.5 -23.5t-55.5 -49q8 -63 47 -97.5t92 -34.5q92 0 148 71zM210 554l15 50h237l-15 -50h-237z" />
    <glyph glyph-name="Ebreve" unicode="&#x114;" horiz-adv-x="627" 
d="M164 209q0 -81 45 -137.5t126 -56.5t130 45.5t49 118.5q0 41 -18.5 70t-58.5 29l-3 16q21 10 47 10q61 0 96 -38t35 -87q0 -85 -87.5 -136.5t-208.5 -51.5q-135 0 -210.5 60.5t-75.5 161.5q0 136 147 202q-64 61 -64 144q0 85 71.5 135t192.5 50q104 0 168 -44.5
t64 -106.5q0 -51 -34.5 -78.5t-80.5 -27.5q-25 0 -46 9l4 16q33 1 50 27.5t17 61.5q0 56 -35 87.5t-94 31.5q-78 0 -117.5 -53t-39.5 -126q0 -58 22 -101q52 11 97 11q49 0 83.5 -16t34.5 -43q0 -22 -24 -35.5t-65 -13.5q-87 0 -152 35q-65 -50 -65 -169zM357 432
q-42 0 -82 -20q35 -47 103 -47q44 0 44 32q0 19 -20.5 27t-44.5 8zM516 933l11 -5q0 -4 -2.5 -15.5t-11 -32t-22 -38t-40 -31t-59.5 -13.5q-35 0 -59.5 13.5t-35.5 29t-17 39t-6.5 31t-0.5 17.5l11 4l1 -4q1 -4 2.5 -7.5t5 -9t8 -10.5t13 -10t19 -8.5t25.5 -6t33 -2.5
q28 0 51 6t36 13.5t22 17t12 15t4 7.5z" />
    <glyph glyph-name="ebreve" unicode="&#x115;" horiz-adv-x="517" 
d="M178 210q22 29 53.5 48t59 28.5t52.5 20.5t40 31t15 52q0 31 -19.5 47.5t-47.5 16.5q-70 0 -112 -76t-42 -162q0 -1 0.5 -3t0.5 -3zM465 119l11 -9q-34 -58 -94 -88t-127 -30q-94 0 -149.5 54.5t-55.5 156.5q0 64 27 117.5t71 87t96 52t105 18.5q79 0 118.5 -32.5
t39.5 -80.5q0 -42 -28.5 -65.5t-71.5 -32t-88 -15t-85.5 -23.5t-55.5 -49q8 -63 47 -97.5t92 -34.5q92 0 148 71zM434 652l11 -5q0 -4 -2.5 -15.5t-11 -32t-22 -38t-40 -31t-59.5 -13.5q-35 0 -59.5 13.5t-35.5 29t-17 39t-6.5 31t-0.5 17.5l11 4l1 -4q1 -4 2.5 -7.5t5 -9
t8 -10.5t13 -10t19 -8.5t25.5 -6t33 -2.5q28 0 51 6t36 13.5t22 17t12 15t4 7.5z" />
    <glyph glyph-name="Edotaccent" unicode="&#x116;" horiz-adv-x="627" 
d="M164 209q0 -81 45 -137.5t126 -56.5t130 45.5t49 118.5q0 41 -18.5 70t-58.5 29l-3 16q21 10 47 10q61 0 96 -38t35 -87q0 -85 -87.5 -136.5t-208.5 -51.5q-135 0 -210.5 60.5t-75.5 161.5q0 136 147 202q-64 61 -64 144q0 85 71.5 135t192.5 50q104 0 168 -44.5
t64 -106.5q0 -51 -34.5 -78.5t-80.5 -27.5q-25 0 -46 9l4 16q33 1 50 27.5t17 61.5q0 56 -35 87.5t-94 31.5q-78 0 -117.5 -53t-39.5 -126q0 -58 22 -101q52 11 97 11q49 0 83.5 -16t34.5 -43q0 -22 -24 -35.5t-65 -13.5q-87 0 -152 35q-65 -50 -65 -169zM357 432
q-42 0 -82 -20q35 -47 103 -47q44 0 44 32q0 19 -20.5 27t-44.5 8zM435 861q0 -24 -15.5 -40t-46.5 -16q-24 1 -38.5 15t-14.5 32q0 24 19 38t44 14q22 0 37 -11t15 -32z" />
    <glyph glyph-name="edotaccent" unicode="&#x117;" horiz-adv-x="517" 
d="M178 210q22 29 53.5 48t59 28.5t52.5 20.5t40 31t15 52q0 31 -19.5 47.5t-47.5 16.5q-70 0 -112 -76t-42 -162q0 -1 0.5 -3t0.5 -3zM465 119l11 -9q-34 -58 -94 -88t-127 -30q-94 0 -149.5 54.5t-55.5 156.5q0 64 27 117.5t71 87t96 52t105 18.5q79 0 118.5 -32.5
t39.5 -80.5q0 -42 -28.5 -65.5t-71.5 -32t-88 -15t-85.5 -23.5t-55.5 -49q8 -63 47 -97.5t92 -34.5q92 0 148 71zM388 597q0 -24 -15.5 -40t-46.5 -16q-24 1 -38.5 15t-14.5 32q0 24 19 38t44 14q22 0 37 -11t15 -32z" />
    <glyph glyph-name="Eogonek" unicode="&#x118;" horiz-adv-x="627" 
d="M164 209q0 -81 45 -137.5t126 -56.5t130 45.5t49 118.5q0 41 -18.5 70t-58.5 29l-3 16q21 10 47 10q61 0 96 -38t35 -87q0 -41 -21.5 -77.5t-52.5 -64t-62 -54t-52.5 -59.5t-21.5 -70q0 -24 12 -37t30 -13q20 0 35.5 15t17.5 43h14q0 -52 -28.5 -82t-70.5 -30
q-43 0 -69.5 27t-26.5 64q0 36 19.5 62.5t45.5 41t62.5 37.5t58.5 48q-78 -39 -186 -39q-135 0 -210.5 60.5t-75.5 161.5q0 136 147 202q-64 61 -64 144q0 85 71.5 135t192.5 50q104 0 168 -44.5t64 -106.5q0 -51 -34.5 -78.5t-80.5 -27.5q-25 0 -46 9l4 16q33 1 50 27.5
t17 61.5q0 56 -35 87.5t-94 31.5q-78 0 -117.5 -53t-39.5 -126q0 -58 22 -101q52 11 97 11q49 0 83.5 -16t34.5 -43q0 -22 -24 -35.5t-65 -13.5q-87 0 -152 35q-65 -50 -65 -169zM357 432q-42 0 -82 -20q35 -47 103 -47q44 0 44 32q0 19 -20.5 27t-44.5 8z" />
    <glyph glyph-name="eogonek" unicode="&#x119;" horiz-adv-x="517" 
d="M465 119l11 -9q-17 -34 -58 -79.5t-71 -85.5t-33 -74q0 -24 12 -37t30 -13q20 0 35.5 15t17.5 43h14q0 -52 -28.5 -82t-70.5 -30q-43 0 -69.5 26.5t-26.5 62.5q0 24 10.5 44.5t30.5 38t39 30.5t47.5 30.5t44.5 29.5l-2 2q-64 -39 -143 -39q-94 0 -149.5 54.5t-55.5 156.5
q0 64 27 117.5t71 87t96 52t105 18.5q79 0 118.5 -32.5t39.5 -80.5q0 -42 -28.5 -65.5t-71.5 -32t-88 -15t-85.5 -23.5t-55.5 -49q8 -65 48 -99t96 -34q41 0 80.5 19t62.5 53zM178 210q22 29 53.5 48t59 28.5t52.5 20.5t40 31t15 52q0 31 -19.5 47.5t-47.5 16.5
q-70 0 -112 -76t-42 -162q0 -1 0.5 -3t0.5 -3z" />
    <glyph glyph-name="Ecaron" unicode="&#x11a;" horiz-adv-x="627" 
d="M164 209q0 -81 45 -137.5t126 -56.5t130 45.5t49 118.5q0 41 -18.5 70t-58.5 29l-3 16q21 10 47 10q61 0 96 -38t35 -87q0 -85 -87.5 -136.5t-208.5 -51.5q-135 0 -210.5 60.5t-75.5 161.5q0 136 147 202q-64 61 -64 144q0 85 71.5 135t192.5 50q104 0 168 -44.5
t64 -106.5q0 -51 -34.5 -78.5t-80.5 -27.5q-25 0 -46 9l4 16q33 1 50 27.5t17 61.5q0 56 -35 87.5t-94 31.5q-78 0 -117.5 -53t-39.5 -126q0 -58 22 -101q52 11 97 11q49 0 83.5 -16t34.5 -43q0 -22 -24 -35.5t-65 -13.5q-87 0 -152 35q-65 -50 -65 -169zM357 432
q-42 0 -82 -20q35 -47 103 -47q44 0 44 32q0 19 -20.5 27t-44.5 8zM402 780h-41q-8 51 -44.5 88t-89.5 52l6 12q116 -4 148 -47q37 43 149 47l6 -12q-52 -15 -89 -52t-45 -88z" />
    <glyph glyph-name="ecaron" unicode="&#x11b;" horiz-adv-x="517" 
d="M178 210q22 29 53.5 48t59 28.5t52.5 20.5t40 31t15 52q0 31 -19.5 47.5t-47.5 16.5q-70 0 -112 -76t-42 -162q0 -1 0.5 -3t0.5 -3zM465 119l11 -9q-34 -58 -94 -88t-127 -30q-94 0 -149.5 54.5t-55.5 156.5q0 64 27 117.5t71 87t96 52t105 18.5q79 0 118.5 -32.5
t39.5 -80.5q0 -42 -28.5 -65.5t-71.5 -32t-88 -15t-85.5 -23.5t-55.5 -49q8 -63 47 -97.5t92 -34.5q92 0 148 71zM344 521h-41q-8 51 -44.5 88t-89.5 52l6 12q116 -4 148 -47q37 43 149 47l6 -12q-52 -15 -89 -52t-45 -88z" />
    <glyph glyph-name="Gcircumflex" unicode="&#x11c;" horiz-adv-x="681" 
d="M518 163l4 22q5 36 29.5 55t52.5 19q35 0 35 -34q-5 -92 -36 -262q96 19 117 70l19 -7q-20 -72 -145 -95q-74 -246 -266 -246q-67 0 -101 33t-34 80q0 24 5.5 43t20.5 33.5t27.5 25t39 18t41.5 12t50.5 9t50 6t53.5 4.5q12 55 30 165q-87 -123 -236 -123
q-108 0 -176.5 76.5t-68.5 216.5q0 90 27.5 172.5t79 147t132.5 102.5t180 38q87 0 151.5 -46t64.5 -130q0 -81 -53 -134.5t-131 -53.5q-35 0 -64 19l5 16q2 0 5.5 -0.5t5.5 -0.5q65 0 101 56.5t36 123.5q0 54 -29 90t-86 36q-86 0 -156 -63.5t-106.5 -160t-36.5 -201.5
q0 -47 8 -88t25.5 -79.5t52 -61t81.5 -22.5q114 0 195 119zM229 -194q0 -36 23.5 -54t57.5 -18q70 0 110.5 54.5t56.5 130.5q-28 -2 -48 -3.5t-48 -5t-47.5 -8.5t-40.5 -13.5t-34 -19.5t-21.5 -27t-8.5 -36zM405 954h41q8 -51 44.5 -88t89.5 -52l-6 -12q-116 4 -148 47
q-37 -43 -149 -47l-6 12q52 15 89 52t45 88z" />
    <glyph glyph-name="gcircumflex" unicode="&#x11d;" horiz-adv-x="595" 
d="M627 52l11 -10q-27 -64 -120 -97l-1 -8q-18 -131 -72 -191.5t-143 -60.5q-53 0 -91 28.5t-38 77.5q0 37 15 62.5t53 42t62 23t83 18.5q16 3 24 5l21 155q-33 -49 -84.5 -77t-108.5 -28q-76 0 -132 53t-56 153q2 125 88 202.5t214 77.5q77 0 117.5 -31t40.5 -79
q0 -42 -38.5 -70t-81.5 -28q-25 0 -44 10l2 15q34 3 52 30t18 60q0 28 -18.5 48.5t-53.5 20.5q-75 0 -121.5 -70t-46.5 -174q0 -71 27 -122t89 -51q40 0 80.5 28t62.5 71l1 7q7 56 66 56q16 0 29.5 -8t13.5 -22l-26 -198q76 29 106 81zM206 -199q0 -34 23 -53t55 -19
q55 0 82.5 49t39.5 136v3q-113 -23 -146 -39q-54 -27 -54 -77zM323 678h41q8 -51 44.5 -88t89.5 -52l-6 -12q-116 4 -148 47q-37 -43 -149 -47l-6 12q52 15 89 52t45 88z" />
    <glyph glyph-name="Gbreve" unicode="&#x11e;" horiz-adv-x="681" 
d="M518 163l4 22q5 36 29.5 55t52.5 19q35 0 35 -34q-5 -92 -36 -262q96 19 117 70l19 -7q-20 -72 -145 -95q-74 -246 -266 -246q-67 0 -101 33t-34 80q0 24 5.5 43t20.5 33.5t27.5 25t39 18t41.5 12t50.5 9t50 6t53.5 4.5q12 55 30 165q-87 -123 -236 -123
q-108 0 -176.5 76.5t-68.5 216.5q0 90 27.5 172.5t79 147t132.5 102.5t180 38q87 0 151.5 -46t64.5 -130q0 -81 -53 -134.5t-131 -53.5q-35 0 -64 19l5 16q2 0 5.5 -0.5t5.5 -0.5q65 0 101 56.5t36 123.5q0 54 -29 90t-86 36q-86 0 -156 -63.5t-106.5 -160t-36.5 -201.5
q0 -47 8 -88t25.5 -79.5t52 -61t81.5 -22.5q114 0 195 119zM229 -194q0 -36 23.5 -54t57.5 -18q70 0 110.5 54.5t56.5 130.5q-28 -2 -48 -3.5t-48 -5t-47.5 -8.5t-40.5 -13.5t-34 -19.5t-21.5 -27t-8.5 -36zM544 933l11 -5q0 -4 -2.5 -15.5t-11 -32t-22 -38t-40 -31
t-59.5 -13.5q-35 0 -59.5 13.5t-35.5 29t-17 39t-6.5 31t-0.5 17.5l11 4l1 -4q1 -4 2.5 -7.5t5 -9t8 -10.5t13 -10t19 -8.5t25.5 -6t33 -2.5q28 0 51 6t36 13.5t22 17t12 15t4 7.5z" />
    <glyph glyph-name="gbreve" unicode="&#x11f;" horiz-adv-x="595" 
d="M627 52l11 -10q-27 -64 -120 -97l-1 -8q-18 -131 -72 -191.5t-143 -60.5q-53 0 -91 28.5t-38 77.5q0 37 15 62.5t53 42t62 23t83 18.5q16 3 24 5l21 155q-33 -49 -84.5 -77t-108.5 -28q-76 0 -132 53t-56 153q2 125 88 202.5t214 77.5q77 0 117.5 -31t40.5 -79
q0 -42 -38.5 -70t-81.5 -28q-25 0 -44 10l2 15q34 3 52 30t18 60q0 28 -18.5 48.5t-53.5 20.5q-75 0 -121.5 -70t-46.5 -174q0 -71 27 -122t89 -51q40 0 80.5 28t62.5 71l1 7q7 56 66 56q16 0 29.5 -8t13.5 -22l-26 -198q76 29 106 81zM206 -199q0 -34 23 -53t55 -19
q55 0 82.5 49t39.5 136v3q-113 -23 -146 -39q-54 -27 -54 -77zM460 652l11 -5q0 -4 -2.5 -15.5t-11 -32t-22 -38t-40 -31t-59.5 -13.5q-35 0 -59.5 13.5t-35.5 29t-17 39t-6.5 31t-0.5 17.5l11 4l1 -4q1 -4 2.5 -7.5t5 -9t8 -10.5t13 -10t19 -8.5t25.5 -6t33 -2.5q28 0 51 6
t36 13.5t22 17t12 15t4 7.5z" />
    <glyph glyph-name="Gdotaccent" unicode="&#x120;" horiz-adv-x="681" 
d="M518 163l4 22q5 36 29.5 55t52.5 19q35 0 35 -34q-5 -92 -36 -262q96 19 117 70l19 -7q-20 -72 -145 -95q-74 -246 -266 -246q-67 0 -101 33t-34 80q0 24 5.5 43t20.5 33.5t27.5 25t39 18t41.5 12t50.5 9t50 6t53.5 4.5q12 55 30 165q-87 -123 -236 -123
q-108 0 -176.5 76.5t-68.5 216.5q0 90 27.5 172.5t79 147t132.5 102.5t180 38q87 0 151.5 -46t64.5 -130q0 -81 -53 -134.5t-131 -53.5q-35 0 -64 19l5 16q2 0 5.5 -0.5t5.5 -0.5q65 0 101 56.5t36 123.5q0 54 -29 90t-86 36q-86 0 -156 -63.5t-106.5 -160t-36.5 -201.5
q0 -47 8 -88t25.5 -79.5t52 -61t81.5 -22.5q114 0 195 119zM229 -194q0 -36 23.5 -54t57.5 -18q70 0 110.5 54.5t56.5 130.5q-28 -2 -48 -3.5t-48 -5t-47.5 -8.5t-40.5 -13.5t-34 -19.5t-21.5 -27t-8.5 -36zM507 852q0 -24 -15.5 -40t-46.5 -16q-24 1 -38.5 15t-14.5 32
q0 24 19 38t44 14q22 0 37 -11t15 -32z" />
    <glyph glyph-name="gdotaccent" unicode="&#x121;" horiz-adv-x="595" 
d="M627 52l11 -10q-27 -64 -120 -97l-1 -8q-18 -131 -72 -191.5t-143 -60.5q-53 0 -91 28.5t-38 77.5q0 37 15 62.5t53 42t62 23t83 18.5q16 3 24 5l21 155q-33 -49 -84.5 -77t-108.5 -28q-76 0 -132 53t-56 153q2 125 88 202.5t214 77.5q77 0 117.5 -31t40.5 -79
q0 -42 -38.5 -70t-81.5 -28q-25 0 -44 10l2 15q34 3 52 30t18 60q0 28 -18.5 48.5t-53.5 20.5q-75 0 -121.5 -70t-46.5 -174q0 -71 27 -122t89 -51q40 0 80.5 28t62.5 71l1 7q7 56 66 56q16 0 29.5 -8t13.5 -22l-26 -198q76 29 106 81zM206 -199q0 -34 23 -53t55 -19
q55 0 82.5 49t39.5 136v3q-113 -23 -146 -39q-54 -27 -54 -77zM398 597q0 -24 -15.5 -40t-46.5 -16q-24 1 -38.5 15t-14.5 32q0 24 19 38t44 14q22 0 37 -11t15 -32z" />
    <glyph glyph-name="Hcircumflex" unicode="&#x124;" horiz-adv-x="1085" 
d="M159 225l7 -13q-39 -17 -39 -84q0 -46 18.5 -77t54.5 -31q20 0 37 10t28.5 24.5t21 40.5t15.5 49t11.5 59.5t8 62.5t6.5 67q-109 -4 -155 -42l-10 23q50 42 168 47q12 144 26 190q23 78 81 108q-31 0 -91.5 15.5t-89.5 15.5q-49 0 -80.5 -30.5t-31.5 -96.5
q0 -52 28.5 -85t87.5 -34l-3 -16q-33 -11 -62 -11q-62 0 -106 39.5t-44 106.5q0 77 54.5 119t123.5 42q39 0 110.5 -18.5t103.5 -18.5q58 0 114 43l16 -18q-29 -19 -49 -48t-31 -56.5t-17.5 -75.5t-8.5 -78.5t-4 -92.5q14 0 41 -0.5t40 -0.5q88 0 152 9q2 13 6 41.5t7 46
t8.5 46t10.5 47.5t13 44t17 41.5t21.5 34.5t27 28.5t33.5 17t41 6.5q51 0 74 -33t23 -83q0 -80 -45 -143t-118 -94q-23 -146 -23 -212q0 -117 79 -117q77 0 116 96l22 -7q-41 -137 -167 -137q-167 0 -167 183q0 51 16 163q-54 -7 -135 -7q-64 0 -95 1q-5 -54 -12.5 -95
t-25.5 -89.5t-45 -80.5t-72.5 -53.5t-105.5 -21.5q-82 0 -123.5 34.5t-41.5 85.5t39 82t90 31zM906 666q-41 0 -63 -96q-9 -39 -28 -166q129 68 129 206q0 56 -38 56zM643 915h41q8 -51 44.5 -88t89.5 -52l-6 -12q-116 4 -148 47q-37 -43 -149 -47l-6 12q52 15 89 52t45 88z
" />
    <glyph glyph-name="Itilde" unicode="&#x128;" horiz-adv-x="707" 
d="M247 426l1 -16q-27 -9 -52 -9q-64 0 -108.5 42t-44.5 113q0 83 61.5 131t140.5 48q85 0 185 -60q62 52 172 52q41 0 70 -16t29 -46q0 -39 -34.5 -58t-79.5 -19q-57 0 -98 21q-11 -34 -17.5 -100.5t-9 -131t-17 -136t-38.5 -125t-76.5 -89t-128.5 -35.5q-81 2 -123 36
t-42 84q0 51 39 82t90 31l8 -13q-40 -17 -40 -83q0 -46 18.5 -77.5t54.5 -31.5q43 0 69 40.5t36 107t14.5 136.5t12 145t21.5 116q18 55 49 90q-77 45 -134 45q-66 0 -100 -40.5t-34 -99.5q0 -53 28.5 -93.5t77.5 -40.5zM593 704q-61 0 -94 -69q46 -22 88 -22q25 0 44.5 14
t19.5 36q0 41 -58 41zM580 769l-12 3q3 9 3 20q0 18 -10.5 31t-29.5 13q-29 0 -81.5 -34t-86.5 -34q-27 0 -48 20t-21 52q0 34 19 57l12 -3q-6 -14 -6 -25q0 -17 10.5 -28t28.5 -11q22 0 75.5 35.5t92.5 35.5q33 0 52.5 -24.5t19.5 -56.5t-18 -51z" />
    <glyph glyph-name="itilde" unicode="&#x129;" horiz-adv-x="377" 
d="M262 431l-40 -280q-10 -88 43 -88q46 0 93 92l14 -6q-49 -150 -160 -150q-57 0 -83.5 43.5t-17.5 107.5l34 249q9 64 71 64q46 0 46 -32zM341 492l-12 3q3 9 3 20q0 18 -10.5 31t-29.5 13q-29 0 -81.5 -34t-86.5 -34q-27 0 -48 20t-21 52q0 34 19 57l12 -3q-6 -13 -6 -25
q0 -17 10.5 -28t28.5 -11q22 0 75.5 35.5t92.5 35.5q33 0 52.5 -24.5t19.5 -56.5q0 -31 -18 -51z" />
    <glyph glyph-name="Imacron" unicode="&#x12a;" horiz-adv-x="707" 
d="M247 426l1 -16q-27 -9 -52 -9q-64 0 -108.5 42t-44.5 113q0 83 61.5 131t140.5 48q85 0 185 -60q62 52 172 52q41 0 70 -16t29 -46q0 -39 -34.5 -58t-79.5 -19q-57 0 -98 21q-11 -34 -17.5 -100.5t-9 -131t-17 -136t-38.5 -125t-76.5 -89t-128.5 -35.5q-81 2 -123 36
t-42 84q0 51 39 82t90 31l8 -13q-40 -17 -40 -83q0 -46 18.5 -77.5t54.5 -31.5q43 0 69 40.5t36 107t14.5 136.5t12 145t21.5 116q18 55 49 90q-77 45 -134 45q-66 0 -100 -40.5t-34 -99.5q0 -53 28.5 -93.5t77.5 -40.5zM593 704q-61 0 -94 -69q46 -22 88 -22q25 0 44.5 14
t19.5 36q0 41 -58 41zM317 796l15 50h237l-15 -50h-237z" />
    <glyph glyph-name="Ibreve" unicode="&#x12c;" horiz-adv-x="667" 
d="M250 426l1 -16q-27 -9 -52 -9q-64 0 -108.5 42t-44.5 113q0 83 61.5 131t140.5 48q85 0 185 -60q62 52 172 52q41 0 70 -16t29 -46q0 -39 -34.5 -58t-79.5 -19q-58 0 -98 21q-11 -34 -17.5 -100.5t-9 -131t-17 -136t-38.5 -125t-76.5 -89t-128.5 -35.5q-81 2 -123 36
t-42 84q0 51 39 82t90 31l8 -13q-40 -17 -40 -83q0 -46 18.5 -77.5t54.5 -31.5q43 0 69 40.5t36 107t14.5 136.5t12 145t21.5 116q18 55 49 90q-77 45 -134 45q-66 0 -100 -40.5t-34 -99.5q0 -53 28.5 -93.5t77.5 -40.5zM596 704q-61 0 -94 -69q46 -22 88 -22q25 0 44.5 14
t19.5 36q0 41 -58 41zM556 899l11 -5q0 -4 -2.5 -15.5t-11 -32t-22 -38t-40 -31t-59.5 -13.5q-35 0 -59.5 13.5t-35.5 29t-17 39t-6.5 31t-0.5 17.5l11 4l1 -4q1 -4 2.5 -7.5t5 -9t8 -10.5t13 -10t19 -8.5t25.5 -6t33 -2.5q28 0 51 6t36 13.5t22 17t12 15t4 7.5z" />
    <glyph glyph-name="Iogonek" unicode="&#x12e;" horiz-adv-x="667" 
d="M250 426l1 -16q-27 -9 -52 -9q-64 0 -108.5 42t-44.5 113q0 83 61.5 131t140.5 48q85 0 185 -60q62 52 172 52q41 0 70 -16t29 -46q0 -39 -34.5 -58t-79.5 -19q-58 0 -98 21q-14 -42 -23.5 -171t-18.5 -185q-14 -79 -36.5 -134t-62.5 -101q-11 -12 -53.5 -49t-68 -71
t-25.5 -71q0 -24 12 -37t30 -13q20 0 35.5 15t17.5 43h14q0 -52 -28.5 -82t-70.5 -30q-43 0 -69.5 27t-26.5 64q0 35 23.5 64t54.5 47.5t68.5 47.5t57.5 58q-78 -39 -117 -39q-81 2 -123 36t-42 84q0 51 39 82t90 31l8 -13q-40 -17 -40 -83q0 -46 18.5 -77.5t54.5 -31.5
q43 0 69 40.5t36 107t14.5 136.5t12 145t21.5 116q18 55 49 90q-77 45 -134 45q-66 0 -100 -40.5t-34 -99.5q0 -53 28.5 -93.5t77.5 -40.5zM596 704q-61 0 -94 -69q46 -22 88 -22q25 0 44.5 14t19.5 36q0 41 -58 41z" />
    <glyph glyph-name="iogonek" unicode="&#x12f;" horiz-adv-x="327" 
d="M212 431l-40 -280q-2 -16 -2 -26q0 -62 45 -62q46 0 93 92l14 -6q-25 -81 -102 -150q-25 -23 -39 -37.5t-27 -39.5t-13 -51q0 -24 12 -37t30 -13q20 0 35.5 15t17.5 43h14q0 -52 -28.5 -82t-70.5 -30q-43 0 -69.5 27t-26.5 64q0 23 6.5 41t22 33t27.5 23.5t37.5 23.5
t36.5 22q-14 -2 -23 -2q-50 0 -76.5 33.5t-26.5 87.5q0 20 2 30l35 249q8 59 62 64q11 19 44.5 44.5t33.5 41.5q0 11 -11.5 18.5t-25 12t-25 15.5t-11.5 27q0 20 21 36t45 16q25 0 43 -18t18 -52q0 -36 -21.5 -62t-51 -46.5t-37.5 -33.5q32 -4 32 -31z" />
    <glyph glyph-name="Idotaccent" unicode="&#x130;" horiz-adv-x="707" 
d="M247 426l1 -16q-27 -9 -52 -9q-64 0 -108.5 42t-44.5 113q0 83 61.5 131t140.5 48q85 0 185 -60q62 52 172 52q41 0 70 -16t29 -46q0 -39 -34.5 -58t-79.5 -19q-57 0 -98 21q-11 -34 -17.5 -100.5t-9 -131t-17 -136t-38.5 -125t-76.5 -89t-128.5 -35.5q-81 2 -123 36
t-42 84q0 51 39 82t90 31l8 -13q-40 -17 -40 -83q0 -46 18.5 -77.5t54.5 -31.5q43 0 69 40.5t36 107t14.5 136.5t12 145t21.5 116q18 55 49 90q-77 45 -134 45q-66 0 -100 -40.5t-34 -99.5q0 -53 28.5 -93.5t77.5 -40.5zM593 704q-61 0 -94 -69q46 -22 88 -22q25 0 44.5 14
t19.5 36q0 41 -58 41zM497 826q0 -24 -15.5 -40t-46.5 -16q-24 1 -38.5 15t-14.5 32q0 24 19 38t44 14q22 0 37 -11t15 -32z" />
    <glyph glyph-name="dotlessi" unicode="&#x131;" horiz-adv-x="324" 
d="M202 431l-40 -280q-10 -88 43 -88q46 0 93 92l14 -6q-49 -150 -160 -150q-57 0 -83.5 43.5t-17.5 107.5l34 249q9 64 71 64q46 0 46 -32z" />
    <glyph glyph-name="jcircumflex" unicode="&#x135;" horiz-adv-x="396" 
d="M-19 -271q27 1 45.5 16.5t29 47t15 55t10.5 66.5q-34 -7 -54.5 -12.5t-46 -15t-39.5 -20t-24 -27t-10 -37.5q0 -31 20.5 -52t53.5 -21zM255 431l-55 -460q74 26 110 67l10 -12q-35 -53 -124 -82q-26 -255 -207 -259q-51 0 -82.5 31.5t-31.5 77.5q0 29 12.5 52t28.5 36.5
t49 26t54.5 17.5l64.5 15l56 458q9 64 69 64q46 0 46 -32zM194 667h41q8 -51 44.5 -88t89.5 -52l-6 -12q-116 4 -148 47q-37 -43 -149 -47l-6 12q52 15 89 52t45 88z" />
    <glyph glyph-name="Lacute" unicode="&#x139;" horiz-adv-x="750" 
d="M129 491q0 -51 28.5 -84.5t87.5 -34.5l-3 -16q-33 -11 -62 -11q-62 0 -106 39.5t-44 106.5q0 37 13 66t33 47t48 29t55.5 15.5t57.5 4.5q52 0 134 -16q57 110 189 110q44 0 71.5 -21t27.5 -51q0 -39 -40.5 -59.5t-94.5 -20.5q-26 0 -50 3q-9 -45 -19.5 -152.5t-28 -191
t-51.5 -133.5q29 -12 92 -43.5t105 -46t83 -14.5q36 0 58 21.5t22 54.5q0 13 -5 31l18 8q15 -36 15 -70q0 -71 -45 -107.5t-104 -36.5q-37 0 -70.5 8.5t-65 28t-50.5 33.5t-52 43.5t-45 39.5q-70 -63 -156 -63q-49 0 -76.5 20.5t-27.5 50.5q0 40 38.5 60.5t91.5 20.5
q46 0 96 -13q12 50 17.5 141.5t14.5 180t33 146.5q-45 8 -86 8q-147 0 -147 -132zM282 106q-46 28 -94 28q-33 0 -51.5 -14.5t-18.5 -36.5t18.5 -35t45.5 -13q68 0 100 71zM479 619q11 -1 36 -1q96 0 96 62q0 19 -12.5 31t-34.5 12q-60 0 -85 -104zM290 705l-11 15l93 172
q16 28 37 28q19 0 34 -13.5t15 -28.5t-14 -29z" />
    <glyph glyph-name="Nacute" unicode="&#x143;" horiz-adv-x="1014" 
d="M159 225l7 -13q-39 -17 -39 -84q0 -46 18.5 -77t54.5 -31q42 0 68.5 37.5t38.5 101.5t18.5 130t14.5 142t19 119q21 78 81 109q-31 0 -91.5 15.5t-89.5 15.5q-49 0 -80.5 -30.5t-31.5 -96.5q0 -52 28.5 -85t87.5 -34l-3 -16q-33 -11 -62 -11q-62 0 -106 39.5t-44 106.5
q0 77 54.5 119t123.5 42q39 0 110.5 -18.5t103.5 -18.5q58 0 114 43l16 -18q-66 -43 -87.5 -120t-30.5 -232q97 345 296 345q134 0 134 -163q0 -70 -41 -182.5t-41 -202.5q0 -118 77 -118q66 0 110 97l22 -7q-46 -137 -172 -137q-60 0 -97 27t-49 62.5t-12 80.5
q0 76 41.5 203.5t41.5 189.5q0 89 -67 89q-62 0 -135.5 -104t-110.5 -250q-34 -298 -254 -298q-82 0 -123.5 34.5t-41.5 85.5t39 82t90 31zM369 729l-11 15l93 172q16 28 37 28q19 0 34 -13.5t15 -28.5t-14 -29z" />
    <glyph glyph-name="nacute" unicode="&#x144;" horiz-adv-x="756" 
d="M642 63q30 0 52 24t43 68l14 -6q-25 -71 -61 -110.5t-99 -39.5q-56 0 -81 34.5t-25 87.5q0 43 19 113.5t19 99.5q0 58 -42 58q-22 0 -47 -22.5t-45 -50.5t-50.5 -56t-61.5 -37l-23 -162q-11 -64 -71 -64q-47 0 -47 32l40 276q18 101 -34 101q-22 0 -50.5 -27.5
t-54.5 -76.5l-12 10q28 73 72 110t95 37q119 0 95 -169l-6 -42q28 13 52 41t41 57t36.5 56.5t49.5 45t69 17.5q47 0 76.5 -25.5t29.5 -79.5q0 -32 -20 -108.5t-20 -121.5q0 -70 47 -70zM299 456l-11 15l93 172q16 28 37 28q19 0 34 -13.5t15 -28.5t-14 -29z" />
    <glyph glyph-name="Ncaron" unicode="&#x147;" horiz-adv-x="1014" 
d="M159 225l7 -13q-39 -17 -39 -84q0 -46 18.5 -77t54.5 -31q42 0 68.5 37.5t38.5 101.5t18.5 130t14.5 142t19 119q21 78 81 109q-31 0 -91.5 15.5t-89.5 15.5q-49 0 -80.5 -30.5t-31.5 -96.5q0 -52 28.5 -85t87.5 -34l-3 -16q-33 -11 -62 -11q-62 0 -106 39.5t-44 106.5
q0 77 54.5 119t123.5 42q39 0 110.5 -18.5t103.5 -18.5q58 0 114 43l16 -18q-66 -43 -87.5 -120t-30.5 -232q97 345 296 345q134 0 134 -163q0 -70 -41 -182.5t-41 -202.5q0 -118 77 -118q66 0 110 97l22 -7q-46 -137 -172 -137q-60 0 -97 27t-49 62.5t-12 80.5
q0 76 41.5 203.5t41.5 189.5q0 89 -67 89q-62 0 -135.5 -104t-110.5 -250q-34 -298 -254 -298q-82 0 -123.5 34.5t-41.5 85.5t39 82t90 31zM628 758h-41q-8 51 -44.5 88t-89.5 52l6 12q116 -4 148 -47q37 43 149 47l6 -12q-52 -15 -89 -52t-45 -88z" />
    <glyph glyph-name="ncaron" unicode="&#x148;" horiz-adv-x="756" 
d="M642 63q30 0 52 24t43 68l14 -6q-25 -71 -61 -110.5t-99 -39.5q-56 0 -81 34.5t-25 87.5q0 43 19 113.5t19 99.5q0 58 -42 58q-22 0 -47 -22.5t-45 -50.5t-50.5 -56t-61.5 -37l-23 -162q-11 -64 -71 -64q-47 0 -47 32l40 276q18 101 -34 101q-22 0 -50.5 -27.5
t-54.5 -76.5l-12 10q28 73 72 110t95 37q119 0 95 -169l-6 -42q28 13 52 41t41 57t36.5 56.5t49.5 45t69 17.5q47 0 76.5 -25.5t29.5 -79.5q0 -32 -20 -108.5t-20 -121.5q0 -70 47 -70zM385 478h-41q-8 51 -44.5 88t-89.5 52l6 12q116 -4 148 -47q37 43 149 47l6 -12
q-52 -15 -89 -52t-45 -88z" />
    <glyph glyph-name="Omacron" unicode="&#x14c;" horiz-adv-x="769" 
d="M477 266q-39 1 -61.5 39.5t-22.5 90.5q0 60 33 103t85 43q49 0 75.5 -47.5t26.5 -125.5q0 -43 -7 -88.5t-24 -94t-42.5 -86t-66 -61.5t-90.5 -24q-93 0 -142.5 78.5t-49.5 190.5q0 99 31.5 185t98.5 143.5t156 57.5q92 0 146 -62l12 21q-69 69 -182 69
q-175 -7 -281.5 -120.5t-106.5 -286.5q0 -128 79.5 -214t226.5 -86q157 0 262.5 99.5t105.5 250.5q0 92 -56.5 158.5t-166.5 66.5q-88 0 -149.5 -55t-61.5 -140q0 -59 34 -96t87 -37q26 0 55 10zM328 776l15 50h237l-15 -50h-237z" />
    <glyph glyph-name="omacron" unicode="&#x14d;" horiz-adv-x="563" 
d="M259 -9q-104 0 -156.5 62t-52.5 147q0 116 75.5 197.5t188.5 81.5q80 0 128 -43q15 -2 26.5 -15.5t17.5 -28t14.5 -26.5t19.5 -12q23 0 39 28.5t19 56.5l15 -6q-5 -51 -30.5 -81t-63.5 -36q3 -22 3 -47q0 -111 -67.5 -194.5t-175.5 -83.5zM475 274q0 20 -3 40
q-36 2 -64 20.5t-28 46.5q0 27 26 46q-27 16 -59 16q-77 0 -123 -70t-46 -169q0 -78 34.5 -118.5t85.5 -40.5q81 0 129 73t48 156zM196 553l15 50h237l-15 -50h-237z" />
    </font>
</defs>
</svg>
